<?xml version="1.0" standalone="no"?>
<!DOCTYPE svg PUBLIC "-//W3C//DTD SVG 1.1//EN" "http://www.w3.org/Graphics/SVG/1.1/DTD/svg11.dtd" >
<svg xmlns="http://www.w3.org/2000/svg">
<metadata>Generated by IcoMoon</metadata>
<defs>
<font id="icomoon" horiz-adv-x="1024">
<font-face units-per-em="1024" ascent="890.88" descent="-133.12" />
<missing-glyph horiz-adv-x="1024" />
<glyph unicode="&#x20;" horiz-adv-x="512" d="" />
<glyph unicode="&#xe900;" glyph-name="symbol_type" d="M512-128c-282.77 0-512 229.23-512 512s229.23 512 512 512c282.77 0 512-229.23 512-512s-229.23-512-512-512zM512-51.2c240.354 0 435.2 194.846 435.2 435.2s-194.846 435.2-435.2 435.2c-240.354 0-435.2-194.846-435.2-435.2s194.846-435.2 435.2-435.2zM230.449 340.376h562.841c0 29.932 0.801 43.624 0 87.247h-562.841c0-43.624-0.214-63.025 0-87.247z" />
<glyph unicode="&#xe901;" glyph-name="more_01" d="M64.82 683.437c22.885 18.381 56.36 14.729 74.741-8.156l373.582-464.391 371.269 462.078c18.381 22.885 51.856 26.537 74.741 8.156s26.537-51.856 8.156-74.741l-412.779-513.691c-9.982-12.538-25.319-19.842-41.387-19.842-16.19 0-31.406 7.304-41.509 19.842l-414.97 515.882c-7.791 9.86-11.686 21.668-11.686 33.353 0 15.581 6.817 30.919 19.842 41.509z" />
<glyph unicode="&#xe902;" glyph-name="acclerate_ongoing" d="M216.211 554.667v-341.333h-102.433v341.333h102.433zM369.861 554.667v-341.333h-102.433v341.333h102.433zM523.511 554.667v-341.333h-102.433v341.333h102.433zM910.222 298.667h56.889v170.667h-56.889v128c0 7.993-6.229 14.222-14.222 14.222h-824.889c-7.993 0-14.222-6.229-14.222-14.222v-426.667c0-7.993 6.229-14.222 14.222-14.222h824.889c7.993 0 14.222 6.229 14.222 14.222v128zM1024 469.333v-170.667c0-31.545-25.344-56.889-56.889-56.889v-71.111c0-39.111-32-71.111-71.111-71.111h-824.889c-39.228 0.109-71.002 31.883-71.111 71.111v426.667c0 39.111 32 71.111 71.111 71.111h824.889c39.111 0 71.111-32 71.111-71.111v-71.111c31.545 0 56.889-25.344 56.889-56.889z" />
<glyph unicode="&#xe903;" glyph-name="acclerate_portion" d="M512 832c-247.397 0-448-200.603-448-448 0-6.195 0.172-12.839 0.507-20.327 10.733-238.827 207.656-427.673 447.493-427.673 247.397 0 448 200.603 448 448s-200.603 448-448 448zM512 896c282.743 0 512-229.257 512-512s-229.257-512-512-512c-274.971 0-499.2 216.686-511.429 488.8-0.343 7.657-0.571 15.429-0.571 23.2 0 282.743 229.257 512 512 512zM534.965 476.8h181.060l-265.39-563.953v370.353h-181.060l265.39 563.953v-370.353zM615.175 412.8h-144.21v148.047l-100.54-213.647h144.21v-148.047l100.54 213.647z" />
<glyph unicode="&#xe904;" glyph-name="acclerate_ready" d="M910.222 298.667h56.889v170.667h-56.889v128c0 7.993-6.229 14.222-14.222 14.222h-824.889c-7.993 0-14.222-6.229-14.222-14.222v-426.667c0-7.993 6.229-14.222 14.222-14.222h824.889c7.993 0 14.222 6.229 14.222 14.222v128zM1024 469.333v-170.667c0-31.545-25.344-56.889-56.889-56.889v-71.111c0-39.111-32-71.111-71.111-71.111h-824.889c-39.228 0.109-71.002 31.883-71.111 71.111v426.667c0 39.111 32 71.111 71.111 71.111h824.889c39.111 0 71.111-32 71.111-71.111v-71.111c31.545 0 56.889-25.344 56.889-56.889z" />
<glyph unicode="&#xe905;" glyph-name="acclerate" d="M793.6 486.4h-265.035v409.6l-298.165-614.4h265.035v-409.6z" />
<glyph unicode="&#xe906;" glyph-name="add-new-user" d="M582.755 408.694c-4.142-10.699-6.413-22.332-6.413-34.497v-41.441c-25.936 12.894-55.171 20.145-86.101 20.145h-110.412c-106.958 0-193.664-86.707-193.664-193.664v-148.864c0-24.742 20.058-44.8 44.8-44.8h348.62c10.91-40.765 48.092-70.767 92.306-70.767 11.769 0 23.040 2.126 33.45 6.015-19.323-11.708-41.992-18.447-66.235-18.447h-408.141c-70.692 0-128 57.308-128 128v148.864c0 152.908 126.813 262.867 279.721 262.867h110.412c31.495 0 61.641-4.665 89.657-13.41zM613.99 807.783c15.686-18.018 83.905-93.695 58.724-218.026-12.339-60.921-58.724-134.066-121.882-163.684-6.278-2.944-248.787-5.696-238.089 0-36.205 18.673-67.166 45.592-90.387 78.816-28.339 40.499-43.321 87.788-43.321 136.897 0 134.472 112.609 243.843 251.060 243.843 70.412 0 136.454-28.252 183.894-77.846zM254.016 654.191c0-45.27 18.134-87.931 51.043-119.894 33.043-32.094 76.967-49.706 123.577-49.706 46.744 0 90.534 17.612 123.443 49.706 33.043 31.963 51.177 74.494 51.177 119.894 0 45.27-18.134 87.801-51.177 119.894-32.909 32.094-76.698 49.706-123.443 49.706s-90.534-17.612-123.443-49.706c-33.043-31.963-51.177-74.494-51.177-119.894zM858.58 219.786c20.974 0 37.949-16.975 37.949-37.949s-16.975-37.949-37.949-37.949h-154.411v-153.535c0-20.974-16.975-37.949-37.949-37.949s-37.949 16.975-37.949 37.949v153.535h-155.288c-20.974 0-37.949 16.975-37.949 37.949s16.975 37.949 37.949 37.949h155.288v154.411c0 20.974 16.975 37.949 37.949 37.949s37.949-16.975 37.949-37.949v-154.411h154.411z" />
<glyph unicode="&#xe907;" glyph-name="add_data_source" d="M497.427 862.968c-248.713 0-497.427-64.044-497.427-186.535v-435.249c0-76.168 100.107-137.414 274.517-168.192l10.881 62.178c-163.84 27.98-223.22 78.967-223.22 106.014v122.491c70.883-47.566 191.82-74.925 308.094-85.806l5.596 62.178c-213.894 19.586-313.69 82.386-313.69 118.761v122.491c89.537-60.313 263.014-91.402 435.249-91.402s345.712 31.089 435.249 91.402v-60.313h62.178v155.446c0 122.491-248.713 186.535-497.427 186.535zM497.427 552.076c-265.813 0-435.249 73.681-435.249 124.357s169.436 124.357 435.249 124.357c265.813 0 435.249-73.681 435.249-124.357s-169.436-124.357-435.249-124.357zM759.742-94.968c-145.946 0-264.258 118.312-264.258 264.258s118.312 264.258 264.258 264.258c145.946 0 264.258-118.312 264.258-264.258s-118.312-264.258-264.258-264.258zM759.742-28.903c109.459 0 198.194 88.734 198.194 198.194s-88.734 198.194-198.194 198.194c-109.459 0-198.194-88.734-198.194-198.194s88.734-198.194 198.194-198.194zM792.774 301.419h-66.065v-99.097h-99.097v-66.065h99.097v-99.097h66.065v99.097h99.097v66.065h-99.097v99.097z" />
<glyph unicode="&#xe908;" glyph-name="add_table" d="M0 844.152v-894.38h1024v894.38h-1024zM384-50.228v511.074h640v-511.074h-640zM640 716.383v-191.653h-256v191.653h256zM320 716.383v-191.653h-256v191.653h256zM64 460.846h256v-191.653h-256v191.653zM704 524.731v191.653h256v-191.653h-256zM685.367 202.532v147.443h45.367v-147.443h147.443v-45.367h-147.443v-147.443h-45.367v147.443h-147.443v45.367h147.443zM64 205.309h256v-191.653h-256v191.653zM706.43-76.152c-139.595 0-252.759 113.164-252.759 252.759s113.164 252.759 252.759 252.759c139.595 0 252.759-113.164 252.759-252.759s-113.164-252.759-252.759-252.759zM706.43-24.304c110.96 0 200.911 89.951 200.911 200.911s-89.951 200.911-200.911 200.911c-110.96 0-200.911-89.951-200.911-200.911s89.951-200.911 200.911-200.911z" />
<glyph unicode="&#xe909;" glyph-name="add" d="M976.372 432.794h-421.375v415.081c0 26.603-21.3 48.125-47.628 48.125s-47.628-21.523-47.628-48.125v-415.081h-412.114c-26.328 0-47.628-21.523-47.628-48.125s21.3-48.125 47.628-48.125h412.114v-416.418c0-26.603 21.3-48.125 47.628-48.125s47.628 21.523 47.628 48.125v416.418h421.375c26.328 0 47.628 21.523 47.628 48.125s-21.3 48.125-47.628 48.125z" />
<glyph unicode="&#xe90a;" glyph-name="alert" d="M312.615 856c-62.359-26.667-116.718-63.179-163.077-109.539s-82.872-100.718-109.538-163.077c-26.667-62.359-40-128.82-40-199.385s13.333-137.025 40-199.385c26.667-62.359 63.179-116.718 109.538-163.077s100.718-82.872 163.077-109.538c62.359-26.667 128.82-40 199.385-40s137.025 13.333 199.385 40c62.359 26.667 116.718 63.179 163.077 109.538s82.872 100.718 109.539 163.077c26.667 62.359 40 128.82 40 199.385s-13.333 137.025-40 199.385c-26.667 62.359-63.179 116.718-109.539 163.077s-100.718 82.872-163.077 109.539c-62.359 26.667-128.82 40-199.385 40s-137.025-13.333-199.385-40zM470.154 110.769c-11.487 11.487-17.231 25.436-17.231 41.846s5.744 30.359 17.231 41.846c11.487 11.487 25.436 17.231 41.846 17.231s30.359-5.744 41.846-17.231c11.487-11.487 17.231-25.436 17.231-41.846s-5.744-30.359-17.231-41.846c-11.487-11.487-25.436-17.231-41.846-17.231s-30.359 5.744-41.846 17.231zM571.077 349.538c0-16.41-5.744-30.359-17.231-41.846s-25.436-17.231-41.846-17.231c-16.41 0-30.359 5.744-41.846 17.231s-17.231 25.436-17.231 41.846v275.692c0 16.41 5.744 30.359 17.231 41.846s25.436 17.231 41.846 17.231c16.41 0 30.359-5.744 41.846-17.231s17.231-25.436 17.231-41.846v-275.692z" />
<glyph unicode="&#xe90b;" glyph-name="arrow_down" d="M512.001-128l365.713 490.503h-243.809v533.497h-243.81v-533.499h-243.809z" />
<glyph unicode="&#xe90c;" glyph-name="arrow_up" d="M512.001 896l365.713-490.503h-243.809v-533.497h-243.81v533.499h-243.809z" />
<glyph unicode="&#xe90d;" glyph-name="auto_computed_column" d="M83.2 761.6c-24.742 0-44.8-20.058-44.8-44.8v-665.6c0-24.742 20.058-44.8 44.8-44.8h857.6c24.742 0 44.8 20.058 44.8 44.8v665.6c0 24.742-20.058 44.8-44.8 44.8h-857.6zM83.2 800h857.6c45.95 0 83.2-37.25 83.2-83.2v-665.6c0-45.95-37.25-83.2-83.2-83.2h-857.6c-45.95 0-83.2 37.25-83.2 83.2v665.6c0 45.95 37.25 83.2 83.2 83.2zM424.515 461.567c-6.144 29.184-19.68 51.072-40.608 65.664s-45.792 21.888-74.592 21.888c-24.576 0-45.6-4.608-63.072-13.824s-31.872-21.6-43.2-37.152c-11.328-15.552-19.68-33.312-25.056-53.28s-8.064-40.704-8.064-62.208c0-23.424 2.688-45.6 8.064-66.528s13.728-39.168 25.056-54.72c11.328-15.552 25.824-27.936 43.488-37.152s38.784-13.824 63.36-13.824c18.048 0 34.080 2.976 48.096 8.928s26.112 14.208 36.288 24.768c10.176 10.56 18.144 23.136 23.904 37.728s9.216 30.336 10.368 47.232h54.72c-5.376-51.84-23.232-92.16-53.568-120.96s-71.808-43.2-124.416-43.2c-31.872 0-59.712 5.472-83.52 16.416s-43.584 26.016-59.328 45.216c-15.744 19.2-27.552 41.856-35.424 67.968s-11.808 54.144-11.808 84.096c0 29.952 4.224 58.080 12.672 84.384s20.832 49.248 37.152 68.832c16.32 19.584 36.672 35.040 61.056 46.368s52.32 16.992 83.808 16.992c21.504 0 41.856-2.88 61.056-8.64s36.288-14.208 51.264-25.344c14.976-11.136 27.456-25.056 37.44-41.76s16.512-36 19.584-57.888h-54.72zM840.387 461.567c-6.144 29.184-19.68 51.072-40.608 65.664s-45.792 21.888-74.592 21.888c-24.576 0-45.6-4.608-63.072-13.824s-31.872-21.6-43.2-37.152c-11.328-15.552-19.68-33.312-25.056-53.28s-8.064-40.704-8.064-62.208c0-23.424 2.688-45.6 8.064-66.528s13.728-39.168 25.056-54.72c11.328-15.552 25.824-27.936 43.488-37.152s38.784-13.824 63.36-13.824c18.048 0 34.080 2.976 48.096 8.928s26.112 14.208 36.288 24.768c10.176 10.56 18.144 23.136 23.904 37.728s9.216 30.336 10.368 47.232h54.72c-5.376-51.84-23.232-92.16-53.568-120.96s-71.808-43.2-124.416-43.2c-31.872 0-59.712 5.472-83.52 16.416s-43.584 26.016-59.328 45.216c-15.744 19.2-27.552 41.856-35.424 67.968s-11.808 54.144-11.808 84.096c0 29.952 4.224 58.080 12.672 84.384s20.832 49.248 37.152 68.832c16.32 19.584 36.672 35.040 61.056 46.368s52.32 16.992 83.808 16.992c21.504 0 41.856-2.88 61.056-8.64s36.288-14.208 51.264-25.344c14.976-11.136 27.456-25.056 37.44-41.76s16.512-36 19.584-57.888h-54.72z" />
<glyph unicode="&#xe90e;" glyph-name="auto_model_ssistant" d="M497.606 890.236c5.725 3.099 12.629 3.086 18.342-0.034l446.592-243.883c6.098-3.33 9.921-9.695 9.997-16.642l5.254-482.789c0.077-7.045-3.711-13.566-9.869-16.99l-453.282-252.029c-5.878-3.268-13.039-3.223-18.875 0.121l-439.902 252.029c-5.972 3.421-9.655 9.777-9.655 16.66v487.766c0 7.048 3.862 13.53 10.060 16.885l441.338 238.906zM506.706 851.496l-422.097-228.491v-465.199l420.843-241.11 433.817 241.207-5.007 460.106-427.556 233.488zM753.6 249.515c0-3.77-1.502-6.356-4.451-7.864l-232.644-125.82h-1.126c-0.751-0.754-1.877-1.131-3.379-1.131s-2.628 0.377-3.379 1.131h-1.073l-232.644 125.82c-3.003 1.508-4.505 4.093-4.505 7.864v270.708c0 0.7 0.375 1.508 1.126 2.262v1.131l3.379 3.393 232.644 125.767c3.003 0.7 5.953 0.7 8.956 0l232.644-125.82 3.379-3.393 1.073-3.339v-270.708zM315.62 515.796l196.38-106.365 196.38 106.365-196.38 106.365-196.38-106.365zM723.76 261.451v231.575l-199.401-108.485v-231.575l199.401 108.485z" />
<glyph unicode="&#xe90f;" glyph-name="auto_modeling2" d="M719.614 712.121l-214.012 109.468-416.011-214.099v-427.376l416.319-226.027 428.5 226.5v421.665l-210.644 107.745-20.385-65.655 50.794-57.922-73.574 22.844-57.922-50.794 22.844 73.574-50.794 57.922 73.574-22.844 51.312 44.998zM505.417 896l498.864-255.171v-505.135l-498.864-263.694-485.698 263.694v510.342l485.698 249.964zM550.999 528.381l73.346-47.631c12.756-8.284 16.11-24.063 7.826-36.819l-242.298-373.106c-8.284-12.756-24.063-16.11-36.819-7.826l-73.346 47.631c-12.756 8.284-16.11 24.063-7.826 36.819l242.298 373.106c8.284 12.756 24.063 16.11 36.819 7.826zM329.93 564.964l-50.794 57.922 73.574-22.844 57.922 50.794-22.844-73.574 50.794-57.922-73.574 22.844-57.922-50.794 22.844 73.574zM770.461 328.752l50.794-57.922-73.574 22.844-57.922-50.794 22.844 73.574-50.794 57.922 73.574-22.844 57.922 50.794-22.844-73.574z" />
<glyph unicode="&#xe910;" glyph-name="auto_status_warning" d="M128 793.6c-49.485 0-89.6-40.115-89.6-89.6v-640c0-49.485 40.115-89.6 89.6-89.6h768c49.485 0 89.6 40.115 89.6 89.6v640c0 49.485-40.115 89.6-89.6 89.6h-768zM128 832h768c70.692 0 128-57.308 128-128v-640c0-70.692-57.308-128-128-128h-768c-70.692 0-128 57.308-128 128v640c0 70.692 57.308 128 128 128zM0 640h1024v-51.2h-1024v51.2zM608 640c35.346 0 64 28.654 64 64s-28.654 64-64 64c-35.346 0-64-28.654-64-64s28.654-64 64-64zM736 640c35.346 0 64 28.654 64 64s-28.654 64-64 64c-35.346 0-64-28.654-64-64s28.654-64 64-64zM864 640c35.346 0 64 28.654 64 64s-28.654 64-64 64c-35.346 0-64-28.654-64-64s28.654-64 64-64zM535.551 45.055c-29.181 0-52.992 23.74-52.992 52.992s23.811 52.992 52.992 52.992c29.393 0 52.992-23.74 52.992-52.992s-23.599-52.992-52.992-52.992zM588.543 241.921c0-27.622-23.599-49.92-52.992-49.92-29.181 0-52.992 22.298-52.992 49.92v232.96c0 27.622 23.811 49.92 52.992 49.92 29.393 0 52.992-22.298 52.992-49.92v-232.96z" />
<glyph unicode="&#xe911;" glyph-name="auto_type_hierarchy" d="M1024 657.067h-68.267v68.267h-68.267v68.267h-750.933v-68.267h-68.267v-68.267h-68.267v-546.133h68.267v-68.267h68.267v-68.267h750.933v68.267h68.267v68.267h68.267v546.133zM34.133 145.067v477.867h34.133v-477.867h-34.133zM102.4 76.8v614.4h34.133v-614.4h-34.133zM853.333 8.533h-682.667v750.933h682.667v-750.933zM921.6 76.8h-34.133v614.4h34.133v-614.4zM989.867 145.067h-34.133v477.867h34.133v-477.867zM352 602h47.232v-178.56h237.888v178.56h47.232v-411.264h-47.232v191.808h-237.888v-191.808h-47.232v411.264z" />
<glyph unicode="&#xe912;" glyph-name="auto_type_join" d="M1024 657.067h-68.267v68.267h-68.267v68.267h-750.933v-68.267h-68.267v-68.267h-68.267v-546.133h68.267v-68.267h68.267v-68.267h750.933v68.267h68.267v68.267h68.267v546.133zM34.133 145.067v477.867h34.133v-477.867h-34.133zM102.4 76.8v614.4h34.133v-614.4h-34.133zM853.333 8.533h-682.667v750.933h682.667v-750.933zM921.6 76.8h-34.133v614.4h34.133v-614.4zM989.867 145.067h-34.133v477.867h34.133v-477.867zM572.227 602h47.232v-279.936c0-44.928-9.216-78.336-27.648-101.376-20.736-25.344-54.144-38.016-99.648-38.016-38.592 0-67.968 10.944-88.704 31.68-21.888 21.888-32.256 52.992-32.256 93.312v14.4h47.232v-13.824c0-55.296 24.768-83.52 74.88-83.52 27.648 0 47.808 8.64 60.48 24.768 12.096 15.552 18.432 40.32 18.432 74.304v278.208z" />
<glyph unicode="&#xe913;" glyph-name="auto_type_mandantory" d="M1024 657.067h-68.267v68.267h-68.267v68.267h-750.933v-68.267h-68.267v-68.267h-68.267v-546.133h68.267v-68.267h68.267v-68.267h750.933v68.267h68.267v68.267h68.267v546.133zM34.133 145.067v477.867h34.133v-477.867h-34.133zM102.4 76.8v614.4h34.133v-614.4h-34.133zM853.333 8.533h-682.667v750.933h682.667v-750.933zM921.6 76.8h-34.133v614.4h34.133v-614.4zM989.867 145.067h-34.133v477.867h34.133v-477.867zM307.203 602h58.752l153.216-350.784h1.728l152.64 350.784h58.752v-411.264h-47.232v327.168h-1.728l-142.272-327.168h-42.624l-142.272 327.168h-1.728v-327.168h-47.232v411.264z" />
<glyph unicode="&#xe914;" glyph-name="auto_wizard" d="M316.952 720.457l121.905-68.267-68.267 121.905 68.267 121.905-121.905-68.267-121.905 68.267 68.267-121.905-68.267-121.905 121.905 68.267zM902.095 242.59l-121.905 68.267 68.267-121.905-68.267-121.905 121.905 68.267 121.905-68.267-68.267 121.905 68.267 121.905-121.905-68.267zM1024 896l-121.905-68.267-121.905 68.267 68.267-121.905-68.267-121.905 121.905 68.267 121.905-68.267-68.267 121.905 68.267 121.905zM653.41 637.562c-19.505 19.505-48.762 19.505-68.267 0l-570.514-570.514c-19.505-19.505-19.505-48.762 0-68.267l112.152-112.152c19.505-19.505 48.762-19.505 68.267 0l570.514 570.514c19.505 19.505 19.505 48.762 0 68.267l-112.152 112.152zM599.771 369.371l-102.4 102.4 117.029 117.029 102.4-102.4-117.029-117.029z" />
<glyph unicode="&#xe915;" glyph-name="auto" d="M64 896c-35.346 0-64-28.654-64-64v-896c0-35.346 28.654-64 64-64h896c35.346 0 64 28.654 64 64v896c0 35.346-28.654 64-64 64h-896zM147.112 237.399h160.497c17.673 0 32-14.327 32-32v-160.497c0-17.673-14.327-32-32-32h-160.497c-17.673 0-32 14.327-32 32v160.497c0 17.673 14.327 32 32 32zM287.175 65.336v119.63h-119.63v-119.63h119.63zM429.972 237.549h160.497c17.673 0 32-14.327 32-32v-160.497c0-17.673-14.327-32-32-32h-160.497c-17.673 0-32 14.327-32 32v160.497c0 17.673 14.327 32 32 32zM570.035 65.486v119.63h-119.63v-119.63h119.63zM429.972 755.098h160.497c17.673 0 32-14.327 32-32v-160.497c0-17.673-14.327-32-32-32h-160.497c-17.673 0-32 14.327-32 32v160.497c0 17.673 14.327 32 32 32zM570.035 583.034v119.63h-119.63v-119.63h119.63zM774.677 237.549v148.028h-239.936v-148.178h-51.177v148.178h-230.883v-148.178h-50.629v136.406c0 40.466-2.313 61.965 50.629 61.965h230.883v95.328h51.177v-95.328h239.936c49.054 0 50.433-21.499 50.433-61.965v-136.256h51.778c17.673 0 32-14.327 32-32v-160.497c0-17.673-14.327-32-32-32h-160.497c-17.673 0-32 14.327-32 32v160.497c0 17.673 14.327 32 32 32h58.286zM856.455 65.486v119.63h-119.63v-119.63h119.63z" />
<glyph unicode="&#xe916;" glyph-name="az" d="M703.169 603.359h150.92l-74.213 181.712h-1.247l-75.46-181.712zM747.447 832h65.482l173.995-389.618h-65.482l-48.644 117.322h-188.339l-49.891-117.322h-60.493l173.371 389.618zM604.064-20.512l275.837 301.153h-254.714v43.488h324.295v-43.488l-275.216-301.153h282.671v-43.488h-352.873v43.488zM298.241 804.371v-774.506c0-0.041 48.723 44.25 146.168 132.873 11.795 10.75 31.382 11.119 43.668 0.737 12.286-10.32 12.707-27.459 0.842-38.209l-198.752-180.973c-5.827-5.283-13.901-8.293-22.255-8.293-8.425 0-16.428 3.010-22.255 8.293l-199.946 181.956c-5.757 5.222-8.635 11.979-8.635 18.736 0 7.126 3.159 14.19 9.478 19.473 12.286 10.32 31.873 10.013 43.668-0.737l146.028-132.934c0.047-0.041 0.094 258.025 0.14 774.199 0 14.375 12.848 26.108 28.995 26.968 17.973 0.921 32.856-11.917 32.856-27.582z" />
<glyph unicode="&#xe917;" glyph-name="backup" d="M572 292h-376c-19.9 0-36-16.1-36-36s16.1-36 36-36h376c19.9 0 36 16.1 36 36s-16.1 36-36 36zM348 444v-376c0-19.9 16.1-36 36-36s36 16.1 36 36v376c0 19.9-16.1 36-36 36s-36-16.1-36-36zM696 568v-624h-624v624h624zM696 640h-624c-39.8 0-72-32.2-72-72v-624c0-39.8 32.2-72 72-72h624c39.8 0 72 32.2 72 72v624c0 39.8-32.2 72-72 72zM952 896h-592.3c-19.9 0-36-16.1-36-36s16.1-36 36-36h592.3v-596c0-19.9 16.1-36 36-36s36 16.1 36 36v596c0 39.8-32.2 72-72 72zM824 768h-660c-19.9 0-36-16.1-36-36s16.1-36 36-36h660v-660c0-19.9 16.1-36 36-36s36 16.1 36 36v660c0 39.8-32.2 72-72 72z" />
<glyph unicode="&#xe918;" glyph-name="blank_section" d="M64 832v-896h896v896h-896zM0 896h1024v-1024h-1024v1024zM280.25 896l62.431-14.082-216.25-958.698-62.431 14.082 216.25 958.698zM600.25 896l62.431-14.082-216.25-958.698-62.431 14.082 216.25 958.698zM920.25 896l62.431-14.082-216.25-958.698-62.431 14.082 216.25 958.698z" />
<glyph unicode="&#xe919;" glyph-name="bottom_bar" d="M0 320h1024v-64h-1024v64zM0 448h1024v-64h-1024v64z" />
<glyph unicode="&#xe91a;" glyph-name="calendar" d="M888 768h-120v28c0 19.9-16.1 36-36 36s-36-16.1-36-36v-28h-368v28c0 19.9-16.1 36-36 36s-36-16.1-36-36v-28h-120c-39.8 0-72-32.2-72-72v-688c0-39.8 32.2-72 72-72h752c39.8 0 72 32.3 72 72v688c0 39.8-32.2 72-72 72zM136 696h120v-20c0-19.9 16.1-36 36-36s36 16.1 36 36v20h368v-20c0-19.9 16.1-36 36-36s36 16.1 36 36v20h120v-112h-752v112zM888 8h-752v504h752v-504zM288 384h64c17.7 0 32-14.3 32-32s-14.3-32-32-32h-64c-17.7 0-32 14.3-32 32s14.3 32 32 32zM480 384h64c17.7 0 32-14.3 32-32s-14.3-32-32-32h-64c-17.7 0-32 14.3-32 32s14.3 32 32 32zM672 384h64c17.7 0 32-14.3 32-32s-14.3-32-32-32h-64c-17.7 0-32 14.3-32 32s14.3 32 32 32zM288 190h64c17.7 0 32-14.3 32-32s-14.3-32-32-32h-64c-17.7 0-32 14.3-32 32s14.3 32 32 32zM480 190h64c17.7 0 32-14.3 32-32s-14.3-32-32-32h-64c-17.7 0-32 14.3-32 32s14.3 32 32 32z" />
<glyph unicode="&#xe91b;" glyph-name="card" d="M76.8 804.351v-294.4h294.4v294.4h-294.4zM19.2 881.151h409.6c10.604 0 19.2-8.596 19.2-19.2v-409.6c0-10.604-8.596-19.2-19.2-19.2h-409.6c-10.604 0-19.2 8.596-19.2 19.2v409.6c0 10.604 8.596 19.2 19.2 19.2zM19.2 334.849h409.6c10.604 0 19.2-8.596 19.2-19.2v-409.6c0-10.604-8.596-19.2-19.2-19.2h-409.6c-10.604 0-19.2 8.596-19.2 19.2v409.6c0 10.604 8.596 19.2 19.2 19.2zM76.8 258.049v-294.4h294.4v294.4h-294.4zM595.2 881.151h409.6c10.604 0 19.2-8.596 19.2-19.2v-409.6c0-10.604-8.596-19.2-19.2-19.2h-409.6c-10.604 0-19.2 8.596-19.2 19.2v409.6c0 10.604 8.596 19.2 19.2 19.2zM652.8 804.351v-294.4h294.4v294.4h-294.4zM595.2 334.849h409.6c10.604 0 19.2-8.596 19.2-19.2v-409.6c0-10.604-8.596-19.2-19.2-19.2h-409.6c-10.604 0-19.2 8.596-19.2 19.2v409.6c0 10.604 8.596 19.2 19.2 19.2zM652.8 258.049v-294.4h294.4v294.4h-294.4z" />
<glyph unicode="&#xe91c;" glyph-name="check" d="M661.333-25.6h-531.866c-14.949 0-27.068 12.119-27.068 27.068v765.065c0 14.949 12.119 27.068 27.068 27.068h765.065c14.949 0 27.068-12.119 27.068-27.068v-442.266c0-21.208 17.192-38.4 38.4-38.4s38.4 17.192 38.4 38.4v442.266c0 57.364-46.503 103.868-103.868 103.868h-765.065c-57.364 0-103.868-46.503-103.868-103.868v-765.065c0-57.364 46.503-103.868 103.868-103.868h531.866c21.208 0 38.4 17.192 38.4 38.4s-17.192 38.4-38.4 38.4zM713.047 233.797c45.205 54.557 72.36 124.538 72.36 200.918 0 174.009-141.028 315.037-315.037 315.037s-315.037-141.028-315.037-315.037c0-174.009 141.028-315.037 315.037-315.037 76.38 0 146.361 27.156 200.918 72.36l41.759 41.759zM563.008 215.33c-29.302-12.438-60.436-18.695-92.638-18.695s-63.335 6.257-92.638 18.695c-28.31 11.98-53.797 29.15-75.697 51.050s-39.070 47.387-51.050 75.697c-12.438 29.302-18.695 60.436-18.695 92.638s6.257 63.335 18.695 92.638c11.98 28.31 29.15 53.797 51.050 75.697s47.387 39.070 75.697 51.050c29.302 12.438 60.436 18.695 92.638 18.695s63.335-6.257 92.638-18.695c28.31-11.98 53.797-29.15 75.697-51.050s39.070-47.387 51.050-75.697c12.438-29.302 18.695-60.436 18.695-92.638s-6.257-63.335-18.695-92.638c-11.98-28.31-29.15-53.797-51.050-75.697s-47.311-39.070-75.697-51.050zM796.259 113.609c-14.503-15.018-14.085-38.949 0.933-53.451l83.583-80.715c15.018-14.503 38.949-14.085 53.451 0.933s14.085 38.949-0.933 53.451l-83.583 80.715c-15.018 14.503-38.949 14.085-53.451-0.933zM778.573 192.831c41.069 17.451 90.366 9.906 124.487-23.044l83.583-80.715c45.529-43.967 46.795-116.517 2.829-162.046s-116.517-46.795-162.046-2.829l-83.583 80.715c-37.531 36.244-44.985 91.911-21.816 135.854l-51.18 51.18 54.306 54.306 53.421-53.421z" />
<glyph unicode="&#xe91d;" glyph-name="close" d="M512 482.291l393.566 393.566c26.92 26.92 70.556 26.929 97.888-0.403 27.142-27.142 26.769-71.522 0.403-97.888l-393.566-393.566 393.566-393.566c26.92-26.92 26.929-70.556-0.403-97.888-27.142-27.142-71.522-26.769-97.888-0.403l-393.566 393.566-393.566-393.566c-26.92-26.92-70.556-26.929-97.888 0.403-27.142 27.142-26.769 71.522-0.403 97.888l393.566 393.566-393.566 393.566c-26.92 26.92-26.929 70.556 0.403 97.888 27.142 27.142 71.522 26.769 97.888 0.403l393.566-393.566z" />
<glyph unicode="&#xe91e;" glyph-name="collapse" d="M64 832v-896h896v896h-896zM0 896h1024v-1024h-1024v1024zM142.831 213.611h159.324l-175.090-175.090c-12.975-12.975-12.975-33.947 0-46.922s33.947-12.975 46.922 0l177.881 177.806v-157.966c0-18.331 14.861-33.192 33.192-33.192s33.192 14.861 33.192 33.192v235.365c0 18.331-14.861 33.192-33.192 33.192h-242.154c-18.331 0-33.192-14.861-33.192-33.192s14.786-33.192 33.117-33.192zM649.811 484.612h242.154c18.331 0 33.192 14.861 33.192 33.192s-14.861 33.192-33.192 33.192h-159.248l175.090 175.015c12.975 12.975 12.975 33.947 0 46.922-6.488 6.488-15.012 9.731-23.461 9.731-8.524 0-16.973-3.244-23.461-9.731l-177.806-177.806v157.966c0 18.331-14.861 33.192-33.192 33.192s-33.192-14.861-33.192-33.192v-235.365c-0.075-18.256 14.786-33.117 33.117-33.117z" />
<glyph unicode="&#xe91f;" glyph-name="computed" d="M156.194-128c-128.505 0.112-156.083 28.037-156.194 156.194v711.646c0.171 130.706 39.027 156.032 156.194 156.16h711.612c122.951-0.134 156.036-35.73 156.194-156.16v-711.646c-0.107-123.513-20.674-156.076-156.194-156.194h-711.612zM58.3 739.976v-711.986c0.1-95.043 1.268-97.553 97.655-97.655h712.090c95.672 0.101 97.554 1.331 97.655 97.655v712.055c-0.065 92.918-1.425 97.589-97.655 97.69h-712.090c-95.912-0.224-97.588-1.322-97.655-97.759zM238.66 103.186c-11.765 0.016-22.37 7.095-26.897 17.954s-2.091 23.375 6.178 31.743l51.2 51.2-51.2 51.2c-8.287 8.346-10.738 20.859-6.213 31.715s15.137 17.924 26.898 17.915c7.678 0.035 15.051-3 20.48-8.43l51.2-51.2 51.2 51.2c11.315 11.301 29.645 11.301 40.96 0 11.341-11.365 11.341-29.767 0-41.132l-51.37-51.2 51.37-51.2c8.301-8.342 10.756-20.865 6.22-31.724s-15.17-17.913-26.939-17.871c-7.674-0.048-15.048 2.976-20.48 8.397l-51.2 51.2-51.2-51.2c-5.35-5.389-12.614-8.444-20.207-8.5v-0.067zM308.702 456.466c-16.059 0-29.093 12.988-29.15 29.047v72.567h-72.636c-16.099 0-29.15 13.051-29.15 29.15s13.051 29.15 29.15 29.15h72.636v72.635c0.537 15.702 13.421 28.155 29.133 28.155s28.596-12.452 29.133-28.155v-72.635h72.635c16.099 0 29.15-13.051 29.15-29.15s-13.051-29.15-29.15-29.15h-72.533v-72.602c-0.094-16.053-13.164-29.002-29.218-28.945v-0.067zM613.547 558.114c-16.099 0-29.15 13.051-29.15 29.15s13.051 29.15 29.15 29.15h203.537c16.099 0 29.15-13.051 29.15-29.15s-13.051-29.15-29.15-29.15h-203.537zM715.298 100.727c-14.61 0.016-26.946 10.857-28.838 25.344s7.244 28.133 21.359 31.902c14.115 3.769 28.838-3.506 34.42-17.008s0.292-29.049-12.365-36.347c-4.431-2.563-9.457-3.917-14.575-3.926v0.034zM715.298 253.201c-14.61 0.017-26.945 10.859-28.837 25.346s7.245 28.133 21.361 31.901c14.116 3.768 28.838-3.508 34.418-17.010s0.29-29.049-12.367-36.346c-4.437-2.539-9.463-3.869-14.575-3.857v-0.034zM613.547 176.981c-15.702 0.537-28.155 13.421-28.155 29.133s12.452 28.596 28.155 29.133h203.537c15.702-0.537 28.155-13.421 28.155-29.133s-12.452-28.596-28.155-29.133h-203.537z" />
<glyph unicode="&#xe920;" glyph-name="copy" d="M812.798-128h-671.744c-54.272 0-96.256 41.472-96.256 96.256v799.744h671.744c54.272 0 96.256-41.472 96.256-96.256v-799.744zM109.31 704v-736.256c0-19.456 12.8-31.744 31.744-31.744h608.256v736.256c0 19.456-12.8 31.744-31.744 31.744h-608.256zM621.31 489.472h-384c-15.872 0-31.744 12.8-31.744 31.744 0 15.872 12.8 31.744 31.744 31.744h384c15.872 0 31.744-12.8 31.744-31.744 0-15.36-15.872-31.744-31.744-31.744zM621.31 329.728h-384c-15.872 0-31.744 12.8-31.744 31.744 0 15.872 12.8 31.744 31.744 31.744h384c15.872 0 31.744-12.8 31.744-31.744 0-15.872-15.872-31.744-31.744-31.744zM621.31 169.472h-384c-15.872 0-31.744 12.8-31.744 31.744 0 15.872 12.8 31.744 31.744 31.744h384c15.872 0 31.744-12.8 31.744-31.744 0-15.36-15.872-31.744-31.744-31.744zM883.454 896h-640c-19.456 0-31.744-12.8-31.744-31.744s12.8-32.256 31.744-32.256h640c19.456 0 31.744-12.8 31.744-31.744v-736.256h-38.4v-64h102.404l-0.004 800.256c0.512 54.272-44.544 95.744-95.744 95.744zM845.054 32.256c0-17.92 14.336-31.744 31.744-31.744s31.744 14.336 31.744 31.744c0 17.408-14.336 31.744-31.744 31.744s-31.744-14.336-31.744-31.744z" />
<glyph unicode="&#xe921;" glyph-name="cube" d="M768 495.475c1.586 0.002 3.173-0.182 4.773-0.554l246.51-132.745 3.58-3.58 1.137-3.523v-285.606c0-3.978-1.591-6.705-4.717-8.297l-246.51-132.745h-1.193c-0.796-0.796-1.989-1.193-3.58-1.193s-2.784 0.398-3.58 1.193h-1.137l-246.51 132.745c-3.182 1.591-4.773 4.319-4.773 8.297 0-3.978-1.591-6.705-4.717-8.297l-246.51-132.745h-1.193c-0.796-0.796-1.989-1.193-3.58-1.193s-2.784 0.398-3.58 1.193h-1.137l-246.51 132.745c-3.182 1.591-4.773 4.319-4.773 8.297v285.606c0 0.739 0.398 1.591 1.193 2.387v1.193l3.58 3.58 246.51 132.688c1.582 0.367 3.149 0.552 4.717 0.554v260.123c0 0.739 0.398 1.591 1.193 2.387v1.193l3.58 3.58 246.51 132.688c3.182 0.739 6.308 0.739 9.49 0l246.51-132.745 3.58-3.58 1.137-3.523v-260.123zM303.915 750.928l208.085-112.218 208.085 112.218-208.085 112.218-208.085-112.218zM736.382 482.585v244.319l-211.286-114.455v-244.319l211.286 114.455zM47.915 350.403l208.085-112.218 208.085 112.218-208.085 112.218-208.085-112.218zM480.382 82.060v244.319l-211.286-114.455v-244.319l211.286 114.455zM559.915 350.403l208.085-112.218 208.085 112.218-208.085 112.218-208.085-112.218zM992.382 82.060v244.319l-211.286-114.455v-244.319l211.286 114.455z" />
<glyph unicode="&#xe922;" glyph-name="data_range" d="M879.543 103.429h-68v121.371c0 16.114-13.143 29.371-29.371 29.371h-9.943c-16.114 0-29.371-13.143-29.371-29.371v-146.857c-0.114-1.257-0.229-2.514-0.229-3.886v-9.943c0-16.114 13.143-29.371 29.371-29.371h107.543c16.114 0 29.371 13.143 29.371 29.371v9.943c-0.114 16.114-13.257 29.371-29.371 29.371zM777.714 364.571c-136 0-246.286-110.286-246.286-246.286s110.286-246.286 246.286-246.286c136 0 246.286 110.286 246.286 246.286s-110.286 246.286-246.286 246.286zM903.429-7.429c-33.6-33.6-78.171-52-125.714-52s-92.114 18.514-125.714 52c-33.6 33.486-52 78.286-52 125.714s18.514 92.114 52 125.714c33.486 33.6 78.286 52 125.714 52s92.114-18.514 125.714-52c33.6-33.486 52-78.286 52-125.714s-18.514-92.114-52-125.714zM449.143-12.571h-380.571v519.2h830.857v-50.629c0-18.857 15.429-34.286 34.286-34.286s34.286 15.429 34.286 34.286v307.429c0 37.714-30.857 68.571-68.571 68.571h-166.857v29.714c0 18.857-15.429 34.286-34.286 34.286s-34.286-15.429-34.286-34.286v-29.714h-357.714v29.714c0 18.857-15.429 34.286-34.286 34.286s-34.286-15.429-34.286-34.286v-29.714h-169.143c-37.714 0-68.571-30.857-68.571-68.571v-776c0-37.714 30.857-68.571 68.571-68.571h380.571c18.857 0 34.286 15.429 34.286 34.286s-15.429 34.286-34.286 34.286zM237.714 763.429v-25.143c0-18.857 15.429-34.286 34.286-34.286s34.286 15.429 34.286 34.286v25.143h357.714v-25.143c0-18.857 15.429-34.286 34.286-34.286s34.286 15.429 34.286 34.286v25.143h166.857v-188.229h-830.857v188.229h169.143zM302.971 392.457c0 6.286-5.143 11.429-11.429 11.429h-96.457c-6.286 0-11.429-5.143-11.429-11.429v-96.457c0-6.286 5.143-11.429 11.429-11.429h96.457c6.286 0 11.429 5.143 11.429 11.429v96.457zM291.543 194.4h-96.457c-6.286 0-11.429-5.143-11.429-11.429v-96.571c0-6.286 5.143-11.429 11.429-11.429h96.457c6.286 0 11.429 5.143 11.429 11.429v96.571c0 6.286-5.143 11.429-11.429 11.429zM435.771 403.886c-6.286 0-11.429-5.143-11.429-11.429v-96.457c0-6.286 5.143-11.429 11.429-11.429h96.457c6.286 0 11.429 5.143 11.429 11.429v96.571c0 6.286-5.143 11.429-11.429 11.429h-96.457v-0.114zM435.771 194.4c-6.286 0-11.429-5.143-11.429-11.429v-96.571c0-6.286 5.143-11.429 11.429-11.429h65.257c-1.829 12.229-2.857 24.8-2.857 37.486 0 28.686 4.914 56.229 13.943 81.829h-76.343v0.114z" />
<glyph unicode="&#xe923;" glyph-name="data_source" d="M870.4 838.4c-89.6 38.399-217.6 57.6-358.4 57.6-140.801 0-268.801-19.201-358.401-57.6-102.399-44.8-153.599-96.001-153.599-153.6v-595.2c0-57.6 51.2-115.2 153.6-153.6 89.601-44.8 217.601-64 358.401-64s268.798 19.201 358.4 57.6c95.999 38.4 153.599 96.001 153.599 153.601v601.6c0 57.599-51.2 108.8-153.6 153.6zM812.8 576c-83.2-32-198.401-44.801-300.8-44.801-108.8 0-217.601 12.801-300.801 44.801-96 25.6-140.799 64.001-140.799 108.8 0 38.399 51.2 76.8 140.801 108.8 83.199 25.599 191.999 38.399 300.8 38.399 102.399 0 217.6-19.2 300.8-44.8 89.6-32 140.8-70.4 140.8-108.8s-44.801-76.8-140.8-102.4zM819.201 390.401c-83.201-25.601-198.402-44.801-307.2-44.801-108.8 0-217.601 19.2-307.201 44.801-89.599 31.999-140.799 70.4-140.799 108.799v70.4c63.999-25.6 108.8-57.6 179.2-70.4 83.2-19.201 172.8-32 268.801-32s185.599 12.799 268.798 32c70.401 12.799 115.2 44.8 179.201 70.4v-76.8c-0.001-31.999-51.201-70.4-140.799-102.399zM819.201 185.601c-83.201-25.6-198.402-44.801-307.2-44.801-108.8 0-217.601 19.201-307.201 44.801-89.599 25.601-140.799 64.001-140.799 108.799v96.001c63.999-32 108.8-57.601 179.2-76.8 83.2-19.201 172.8-32 268.801-32s185.599 12.799 268.798 32c70.401 19.199 115.2 44.8 179.201 76.8v-96.001c-0.001-44.8-51.201-83.199-140.799-108.799zM512-64c-108.8 0-217.601 19.199-307.201 44.8-89.599 25.6-140.799 64-140.799 102.401v96c63.999-31.999 108.8-57.6 179.2-76.8 76.8-19.2 172.8-32 262.399-32 96.001 0 185.6 12.8 268.799 32 76.801 19.2 121.601 44.801 185.6 76.8v-96c0-38.4-51.2-76.801-140.8-108.8-83.199-25.6-204.8-38.4-307.199-38.4z" />
<glyph unicode="&#xe924;" glyph-name="desc" d="M847.169 578.031l-256.431 258.923c-4.154 4.154-8.677 7.662-13.569 10.615-1.292 0.738-2.585 1.477-3.969 2.123-0.831 0.462-1.754 0.831-2.585 1.2-8.308 3.692-17.446 5.723-26.769 5.723h-318.462c-36.738 0-67.385-29.723-67.385-66.462v-812.308c0-36.738 30.646-66.462 67.385-66.462h575.077c36.738 0 65.538 29.723 65.538 66.462v553.385c0 17.538-6.462 34.338-18.831 46.8zM803.394-27.926h-585.66v827.257l310.823 0.702v-225.615c0-37.415 12.747-60.587 50.162-60.587h224.675v-541.756zM581.126 343.181c0 13.063-14.411 23.631-32.222 23.631h-229.137c-17.812 0-32.222-10.568-32.222-23.631s14.411-23.631 32.222-23.631h229.137c17.812 0 32.222 10.568 32.222 23.631zM752.979 222.144c0 13.063-14.411 23.631-32.222 23.631h-400.99c-17.812 0-32.222-10.568-32.222-23.631s14.411-23.631 32.222-23.631h400.99c17.812 0 32.222 10.568 32.222 23.631zM638.41 101.108c0 13.063-14.411 23.631-32.222 23.631h-286.421c-17.812 0-32.222-10.568-32.222-23.631s14.411-23.631 32.222-23.631h286.421c17.812 0 32.222 10.568 32.222 23.631zM578.832 762.905l199.586-200.381h-199.586v200.381z" />
<glyph unicode="&#xe925;" glyph-name="details" d="M128 861.867c-53.019 0-96-45.846-96-102.4v-750.933c0-56.554 42.981-102.4 96-102.4h768c53.019 0 96 45.846 96 102.4v750.933c0 56.554-42.981 102.4-96 102.4h-768zM128 896h768c70.692 0 128-61.128 128-136.533v-750.933c0-75.405-57.308-136.533-128-136.533h-768c-70.692 0-128 61.128-128 136.533v750.933c0 75.405 57.308 136.533 128 136.533zM788.922 544.311l-211.867 213.926c-3.432 3.432-7.169 6.33-11.211 8.771-1.068 0.61-2.135 1.22-3.279 1.754-0.686 0.381-1.449 0.686-2.135 0.991-6.864 3.051-14.414 4.728-22.117 4.728h-263.118c-30.354 0-55.674-24.558-55.674-54.912v-671.141c0-30.354 25.32-54.912 55.674-54.912h475.137c30.354 0 54.149 24.558 54.149 54.912v457.215c0 14.491-5.339 28.371-15.558 38.667zM566.53 690.284l153.142-153.752h-153.142v153.752zM749.569 48.43h-475.137v671.141h237.187v-183.038c0-30.354 25.32-54.912 55.674-54.912h182.276v-433.191zM567.293 405.354c0 15.177-12.279 27.456-27.456 27.456h-195.241c-15.177 0-27.456-12.279-27.456-27.456s12.279-27.456 27.456-27.456h195.241c15.177 0 27.456 12.279 27.456 27.456zM713.724 283.329c0 15.177-12.279 27.456-27.456 27.456h-341.672c-15.177 0-27.456-12.279-27.456-27.456s12.279-27.456 27.456-27.456h341.672c15.177 0 27.456 12.279 27.456 27.456zM616.103 161.303c0 15.177-12.279 27.456-27.456 27.456h-244.051c-15.177 0-27.456-12.279-27.456-27.456s12.279-27.456 27.456-27.456h244.051c15.177 0 27.456 12.279 27.456 27.456z" />
<glyph unicode="&#xe926;" glyph-name="diagnose" d="M541.867 320v162.133h162.133v59.733h-162.133v162.133h-59.733v-162.133h-162.133v-59.733h162.133v-162.133h59.733zM894.609 896h-764.618c-71.792 0-129.991-59.192-129.991-132.21v-623.63c0-73.017 58.199-132.21 129.991-132.21h287.575v-79.825h-54.572c-15.239 0-27.592-12.564-27.592-28.063s12.354-28.063 27.592-28.063h297.999c15.239 0 27.592 12.564 27.592 28.063s-12.354 28.063-27.592 28.063h-54.572v77.954h288.188c71.553 0.343 129.379 59.435 129.378 132.209v623.63c0.491 35.279-12.903 69.295-37.202 94.477s-57.486 39.441-92.176 39.604zM551.849-73.744h-78.485v79.825h78.485v-79.825zM963.897 138.29c0.001-38.333-30.373-69.504-68.061-69.847h-765.844c-37.928 0-68.675 31.271-68.675 69.847v38.041h901.354l1.226-38.041zM963.897 226.845h-902.58v536.945c0 38.575 30.747 69.847 68.675 69.847h764.618c37.688-0.342 68.063-31.514 68.061-69.847l1.226-536.945z" />
<glyph unicode="&#xe927;" glyph-name="dimansion" d="M512-96c-265.097 0-480 214.903-480 480s214.903 480 480 480c265.097 0 480-214.903 480-480s-214.903-480-480-480zM512-32c229.75 0 416 186.25 416 416s-186.25 416-416 416c-229.75 0-416-186.25-416-416s186.25-416 416-416zM352 115.67v492.33h163.666c48.79 0 88.209-5.433 118.259-16.3s56.052-29.274 78.008-55.221c34.818-41.249 52.227-95.583 52.227-163.001 0-81.834-21.622-145.259-64.868-190.279s-104.121-67.529-182.628-67.529h-164.664zM416 156.124h89.484c63.87 0 109.111 17.187 135.723 51.562 28.609 36.592 42.913 85.714 42.913 147.366 0 57.882-14.082 103.345-42.247 136.389-17.076 20.181-37.479 33.986-61.209 41.416s-59.434 11.144-107.115 11.144h-57.549v-387.876z" />
<glyph unicode="&#xe928;" glyph-name="dm" d="M107.717 204.425v599.023h199.135c59.363 0 107.325-6.611 143.887-19.833s68.199-35.617 94.913-67.188c42.364-50.189 63.545-116.296 63.545-198.325 0-99.568-26.308-176.739-78.925-231.514s-126.685-82.163-222.205-82.163h-200.349zM165.91 258.698h128.524c91.735 0 156.713 21.733 194.936 65.201 41.090 46.272 61.634 108.387 61.634 186.348 0 73.193-20.226 130.682-60.679 172.466-24.526 25.52-53.83 42.976-87.912 52.371s-85.364 14.092-153.846 14.092h-82.657v-490.477zM363.392-71.893v575.83h85.473l165.687-471.193 178.691 471.193h78.971v-575.83h-53.425v480.6l-162.861-441.082h-81.031l-158.071 442.28v-481.798z" />
<glyph unicode="&#xe929;" glyph-name="Document" d="M861.102 880h-698.318c-44.973 0-81.357-35.606-81.357-79.617v-832.767c0-44.010 36.385-79.617 81.357-79.617h698.431c44.973 0 81.357 35.606 81.357 79.617v832.767c-0.113 44.010-36.611 79.617-81.47 79.617zM486.067 800.383v-232.104l-47.458 46.443c-10.735 10.505-28.249 10.616-39.097 0.111l-50.17-48.544v234.095h136.726zM267.984 800.383v-306.634c0-21.784 17.966-39.366 40.227-39.366 26.328 0 51.639 10.173 70.397 28.308l40.114 38.924 39.436-38.592c17.966-17.582 42.148-27.866 67.572-28.64h1.582c22.26 0 40.227 17.582 40.227 39.366v306.634h293.678v-690.342h-698.318v690.342h105.087zM162.785-32.383v62.809h698.318v-62.809h-698.318z" />
<glyph unicode="&#xe92a;" glyph-name="download" d="M483.893 133.853c7.657-7.2 17.829-10.854 28-10.854s20.229 3.654 28 10.854l178.171 167.539c15.429 14.508 15.429 38.043 0 52.551-7.429 6.985-17.371 10.854-27.886 10.854s-20.457-3.869-27.886-10.854l-110.743-104.134v535.865c0 20.526-17.714 37.183-39.543 37.183s-39.543-16.657-39.543-37.183v-535.865l-110.743 104.134c-15.429 14.508-40.457 14.508-55.771 0-15.429-14.508-15.429-38.043-0.114-52.551l178.057-167.539zM984.457 288.496c-21.829 0-39.543-16.657-39.543-37.183v-209.988c0-12.144-10.514-22.138-23.543-22.138h-818.857c-12.914 0-23.543 9.887-23.543 22.138v210.096c0 20.526-17.714 37.183-39.543 37.183s-39.429-16.765-39.429-37.183v-239.541c0-36.861 31.886-66.736 70.971-66.736h882.057c39.2 0 70.971 29.983 70.971 66.736v239.541c0 20.419-17.714 37.076-39.543 37.076z" />
<glyph unicode="&#xe92b;" glyph-name="elapsed-time" d="M512 896c-282.8 0-512-229.2-512-512s229.2-512 512-512c282.8 0 512 229.2 512 512s-229.2 512-512 512zM823.1 72.9c-40.4-40.4-87.5-72.2-139.9-94.3-54.2-23-111.8-34.6-171.2-34.6s-117 11.6-171.2 34.5c-52.4 22.2-99.4 53.9-139.9 94.3-40.4 40.4-72.2 87.5-94.3 139.9-23 54.3-34.6 111.9-34.6 171.3s11.6 117 34.5 171.2c22.2 52.4 53.9 99.4 94.3 139.9 40.4 40.4 87.5 72.2 139.9 94.3 54.3 23 111.9 34.6 171.3 34.6s117-11.6 171.2-34.5c52.4-22.2 99.4-53.9 139.9-94.3 40.4-40.4 72.2-87.5 94.3-139.9 23-54.3 34.6-111.9 34.6-171.3s-11.6-117-34.5-171.2c-22.2-52.4-53.9-99.5-94.4-139.9zM733 392h-185v240c0 19.9-16.1 36-36 36s-36-16.1-36-36v-240c0-39.8 32.2-72 72-72h185c19.9 0 36 16.1 36 36s-16.1 36-36 36z" />
<glyph unicode="&#xe92c;" glyph-name="enlarge" d="M64 896h896c35.346 0 64-28.654 64-64v-896c0-35.346-28.654-64-64-64h-896c-35.346 0-64 28.654-64 64v896c0 35.346 28.654 64 64 64zM721.219 418.128h-174.548v176.16c0 19.104-15.315 34.56-34.244 34.56s-34.244-15.456-34.244-34.56v-176.16h-175.499c-18.929 0-34.244-15.456-34.244-34.56s15.315-34.56 34.244-34.56h175.499v-175.2c0-19.104 15.315-34.56 34.244-34.56s34.244 15.456 34.244 34.56v175.2h174.548c18.929 0 34.244 15.456 34.244 34.56s-15.315 34.56-34.244 34.56z" />
<glyph unicode="&#xe92d;" glyph-name="error_01" d="M512-128c-70.564 0-137.025 13.333-199.385 40s-116.718 63.179-163.077 109.538c-46.359 46.359-82.872 100.718-109.538 163.077s-40 128.82-40 199.385c0 70.564 13.333 137.025 40 199.385s63.179 116.718 109.538 163.077c46.359 46.359 100.718 82.872 163.077 109.539s128.82 40 199.385 40c70.564 0 137.025-13.333 199.385-40s116.718-63.179 163.077-109.539c46.359-46.359 82.872-100.718 109.539-163.077s40-128.82 40-199.385c0-70.564-13.333-137.025-40-199.385s-63.179-116.718-109.539-163.077c-46.359-46.359-100.718-82.872-163.077-109.538s-128.82-40-199.385-40v0zM747.077 532.923c4.923 4.923 7.384 10.872 7.384 17.846s-2.461 12.923-7.384 17.846l-52.923 51.692c-4.923 4.923-10.667 7.385-17.231 7.385s-12.308-2.462-17.231-7.385l-147.692-147.692-148.923 147.692c-4.923 4.923-10.667 7.385-17.231 7.385s-12.308-2.462-17.231-7.385l-52.923-51.692c-4.103-4.923-6.154-10.872-6.154-17.846s2.051-12.923 6.154-17.846l148.923-147.692-148.923-147.692c-4.103-4.923-6.154-10.872-6.154-17.846s2.051-12.923 6.154-17.846l52.923-51.692c4.923-4.923 10.667-7.385 17.231-7.385s12.308 2.462 17.231 7.385l148.923 147.692 147.692-147.692c4.923-4.923 10.667-7.385 17.231-7.385s12.308 2.462 17.231 7.385l52.923 51.692c4.923 4.923 7.384 10.872 7.384 17.846s-2.461 12.923-7.384 17.846l-148.923 147.692 148.923 147.692z" />
<glyph unicode="&#xe92e;" glyph-name="error_02" d="M717.2 589.8c-14.1 14-36.9 14-50.9-0.1l-154.3-154.7-154.3 154.7c-14 14.1-36.8 14.1-50.9 0.1s-14.1-36.8-0.1-50.9l154.5-154.9-154.5-154.9c-14-14.1-14-36.9 0.1-50.9 7-7 16.2-10.5 25.4-10.5s18.5 3.5 25.5 10.6l154.3 154.7 154.3-154.8c7-7.1 16.3-10.6 25.5-10.6s18.4 3.5 25.4 10.5c14.1 14 14.1 36.8 0.1 50.9l-154.5 155 154.4 154.9c14.1 14.1 14.1 36.9 0 50.9zM512 896c-282.8 0-512-229.2-512-512s229.2-512 512-512c282.8 0 512 229.2 512 512s-229.2 512-512 512zM823.1 72.9c-40.4-40.4-87.5-72.2-139.9-94.3-54.2-23-111.8-34.6-171.2-34.6s-117 11.6-171.2 34.5c-52.4 22.2-99.4 53.9-139.9 94.3-40.4 40.4-72.2 87.5-94.3 139.9-23 54.3-34.6 111.9-34.6 171.3s11.6 117 34.5 171.2c22.2 52.4 53.9 99.4 94.3 139.9 40.4 40.4 87.5 72.2 139.9 94.3 54.3 23 111.9 34.6 171.3 34.6s117-11.6 171.2-34.5c52.4-22.2 99.4-53.9 139.9-94.3 40.4-40.4 72.2-87.5 94.3-139.9 23-54.3 34.6-111.9 34.6-171.3s-11.6-117-34.5-171.2c-22.2-52.4-53.9-99.5-94.4-139.9z" />
<glyph unicode="&#xe92f;" glyph-name="export" d="M136.533 861.867c-56.554 0-102.4-45.846-102.4-102.4v-750.933c0-56.554 45.846-102.4 102.4-102.4h750.933c56.554 0 102.4 45.846 102.4 102.4v750.933c0 56.554-45.846 102.4-102.4 102.4h-750.933zM136.533 896h750.933c75.405 0 136.533-61.128 136.533-136.533v-750.933c0-75.405-61.128-136.533-136.533-136.533h-750.933c-75.405 0-136.533 61.128-136.533 136.533v750.933c0 75.405 61.128 136.533 136.533 136.533zM781.054 378.526c-17.555 0-31.901-14.258-31.901-31.901v-245.695c0-9.178-7.396-16.574-16.574-16.574h-505.254c-9.178 0-16.574 7.396-16.574 16.574v587.165c0 9.178 7.396 16.574 16.574 16.574h226.874c17.555 0 31.901 14.258 31.901 31.901s-14.258 31.901-31.901 31.901h-226.785c-44.288 0-80.288-36-80.288-80.288v-587.165c0-44.199 36-80.199 80.288-80.199h505.343c44.288 0 80.288 36 80.288 80.288v245.517c-0.089 17.555-14.436 31.901-31.991 31.901zM447.96 565.835c-38.317-57.922-47.674-114.863-48.565-121.19-2.406-17.466 9.713-33.684 27-36.090 1.426-0.267 3.030-0.356 4.545-0.356 15.683 0 29.228 11.763 31.545 27.089 0.267 2.139 8.376 50.258 39.654 96.684 41.080 60.951 102.833 92.051 183.21 92.318 1.248-0.089 2.317-0.178 3.208-0.178 17.555 0 31.901 14.258 31.901 31.901v37.515l89.556-85.189-89.645-74.674v30.476c0 17.555-14.258 31.901-31.901 31.901-17.555 0-31.901-14.258-31.901-31.901v-98.556c0-12.297 7.218-23.614 18.446-28.872 4.188-2.050 8.911-3.030 13.456-3.030 7.485 0 14.703 2.673 20.317 7.307l169.398 141.061c6.951 5.97 11.139 14.436 11.317 23.436 0.356 9.089-3.208 17.911-9.802 24.238l-169.309 161.2c-9.267 8.911-22.812 11.228-34.486 6.238-11.763-5.079-19.248-16.574-19.248-29.317v-81.001c-112.011-9.357-175.279-70.753-208.696-121.011z" />
<glyph unicode="&#xe930;" glyph-name="fact_table" d="M64 832v-896h896v896h-896zM0 896h1024v-1024h-1024v1024zM325.888 703.744h420.224v-71.68h-335.104v-203.392h293.888v-71.68h-293.888v-292.992h-85.12v639.744z" />
<glyph unicode="&#xe931;" glyph-name="filter" d="M886.778 875.261c22.329-25.398 22.33-65.167 0.003-90.555l-238.243-270.977v-409.145c0-23.853-11.896-45.81-31.122-57.589l-129.69-147.195c-4.178-6.082-9.32-11.392-14.192-14.881-25.076-19.841-60.234-16.513-81.617 7.816-13.729 15.613-19.248 36.988-16.142 52.269v570.033l-228.090 259.431c-16.992 12.228-27.21 32.727-27.21 54.781 0 31.306 20.61 58.951 48.417 64.454 8.083 2.156 16.494 2.545 19.683 1.572l644.178 0.004c19.933 3.166 40.124-4.21 54.026-20.019zM835.556 835.045l-652.026 0.421c-1.272-0.455-2.821-2.534-2.821-6.217 0-3.106 1.223-5.344 2.242-5.944l7.333-6.064 245.726-279.49v-11.357l-0.445-586.546c-0.495-2.851 0.202-5.665 1.495-7.23 0.39 0.506 0.7 0.827 3.223 4.121l135.439 154.050 10.179 7.542c0.965 0.438 2.402 2.804 2.402 6.253v431.859l253.243 288.038c2.326 2.645 2.326 8.353-0.002 11.003-0.085 0.097-2.082-0.049-5.989-0.439zM437.060-67.382c0.228-0.262 0.077-0.325-0.056-0.289l0.056 0.289zM841.763 835.749l-0.256-0.029c0.056 0.018 0.145 0.023 0.256 0.029z" />
<glyph unicode="&#xe932;" glyph-name="folder" d="M959.189 687.463c35.712 0 64.896-30.665 64.811-68.447v-614.657c0.085-18.452-6.827-35.717-19.456-48.809-11.974-12.495-28.307-19.536-45.355-19.55h-894.293c-35.669 0-64.896 30.577-64.896 68.315v759.239c0 37.782 29.227 68.447 64.939 68.447h338.048c15.872 0 32.299-6.151 45.909-17.397 13.824-11.422 23.381-26.667 27.179-43.713l19.072-70.38c3.84-6.414 8.832-10.544 13.653-12.169l450.389-0.879zM419.605 734.203c-1.87 5.23-5.121 9.818-9.387 13.245-4.472 4.042-10.148 6.393-16.092 6.663h-312.495c-11.123 0-17.63-9.914-17.63-19.624v-79.309h377.219l-20.825 76.14v0.488l-0.789 2.397zM64 594.891v-568.906c0-9.692 7.054-19.425 18.333-19.425h859.458c4.511 0 8.859 1.609 12.427 5.148 3.699 3.79 5.77 8.83 5.783 14.076v15.604l-0.082 553.503h-895.918z" />
<glyph unicode="&#xe933;" glyph-name="full_screen" d="M64 832v-896h896v896h-896zM0 896h1024v-1024h-1024v1024zM370.883 46.080h-151.078l166.029 169.765c12.304 12.581 12.304 32.914 0 45.495s-32.19 12.581-44.494 0l-168.676-172.398v153.161c0 17.774-14.092 32.183-31.475 32.183s-31.475-14.409-31.475-32.183v-228.206c0-17.774 14.092-32.183 31.475-32.183h229.622c17.383 0 31.475 14.409 31.475 32.183s-14.021 32.183-31.403 32.183zM882.875 786.286h-229.678c-17.387 0-31.482-14.413-31.482-32.191s14.096-32.191 31.482-32.191h151.044l-166.069-169.734c-12.307-12.584-12.307-32.923 0-45.506 6.153-6.292 14.239-9.438 22.252-9.438 8.085 0 16.099 3.146 22.252 9.438l168.645 172.441v-153.199c0-17.778 14.096-32.191 31.482-32.191s31.482 14.413 31.482 32.191v228.263c0.072 17.705-14.024 32.118-31.411 32.118z" />
<glyph unicode="&#xe934;" glyph-name="good-health" d="M512 896c-70.564 0-137.025-13.333-199.385-40s-116.718-63.179-163.077-109.539c-46.359-46.359-82.872-100.718-109.538-163.077s-40-128.82-40-199.385c0-70.564 13.333-137.025 40-199.385s63.179-116.718 109.538-163.077c46.359-46.359 100.718-82.872 163.077-109.538s128.82-40 199.385-40c70.564 0 137.025 13.333 199.385 40s116.718 63.179 163.077 109.538c46.359 46.359 82.872 100.718 109.539 163.077s40 128.82 40 199.385c0 70.564-13.333 137.025-40 199.385s-63.179 116.718-109.539 163.077c-46.359 46.359-100.718 82.872-163.077 109.539s-128.82 40-199.385 40v0zM797.538 497.231l-372.923-372.923c-4.923-4.923-10.667-7.385-17.231-7.385s-12.308 2.462-17.231 7.385l-7.384 7.384-205.539 206.769c-4.923 4.923-7.385 10.667-7.385 17.231s2.462 12.308 7.385 17.231l50.461 50.462c4.923 4.923 10.667 7.385 17.231 7.385s12.308-2.462 17.231-7.385l145.231-146.461 305.231 305.231c4.923 4.923 10.667 7.384 17.231 7.384s12.308-2.461 17.231-7.384l50.461-50.462c4.923-4.923 7.385-10.667 7.385-17.231s-2.462-12.308-7.385-17.231v0z" />
<glyph unicode="&#xe935;" glyph-name="grid_01" d="M40.955 750.089h942.089c22.639 0 40.955 18.316 40.955 40.955s-18.316 40.955-40.955 40.955h-942.089c-22.639 0-40.955-18.316-40.955-40.955s18.316-40.955 40.955-40.955zM980.769 471.365h-642.887c-22.639 0-40.955-18.316-40.955-40.955s18.316-40.955 40.955-40.955h642.887c22.639 0 40.955 18.316 40.955 40.955s-18.43 40.955-40.955 40.955zM983.045 41.332h-938.676c-22.639 0-40.955-18.316-40.955-40.955s18.316-40.955 40.955-40.955h938.676c22.639 0 40.955 18.316 40.955 40.955s-18.43 40.955-40.955 40.955zM152.787 278.874c7.964-7.85 18.316-11.718 28.669-11.718 10.58 0 21.16 4.096 29.238 12.287 15.813 16.155 15.7 42.093-0.455 57.906l-108.532 106.712 106.598 100.455c16.496 15.472 17.292 41.411 1.706 57.906-15.472 16.496-41.411 17.179-57.906 1.706l-137.542-129.692c-8.077-7.622-12.742-18.202-12.855-29.351s4.323-21.843 12.287-29.693l138.793-136.518z" />
<glyph unicode="&#xe936;" glyph-name="grid_02" d="M40.955 750.089h942.089c22.639 0 40.955 18.316 40.955 40.955s-18.316 40.955-40.955 40.955h-942.089c-22.639 0-40.955-18.316-40.955-40.955s18.316-40.955 40.955-40.955zM683.842 471.365h-642.887c-22.639 0-40.955-18.316-40.955-40.955s18.316-40.955 40.955-40.955h642.887c22.639 0 40.955 18.316 40.955 40.955s-18.43 40.955-40.955 40.955zM983.045 41.332h-938.676c-22.639 0-40.955-18.316-40.955-40.955s18.316-40.955 40.955-40.955h938.676c22.639 0 40.955 18.316 40.955 40.955s-18.43 40.955-40.955 40.955zM870.642 603.562c-7.964 7.85-18.316 11.718-28.669 11.718-10.58 0-21.16-4.096-29.238-12.287-15.813-16.155-15.7-42.093 0.455-57.906l108.532-106.712-106.598-100.455c-16.496-15.472-17.292-41.411-1.706-57.906 15.472-16.496 41.411-17.179 57.906-1.706l137.542 129.692c8.077 7.622 12.742 18.202 12.855 29.351s-4.323 21.843-12.287 29.693l-138.793 136.518z" />
<glyph unicode="&#xe937;" glyph-name="help" d="M512-67.765c249.503 0 451.765 202.262 451.765 451.765s-202.262 451.765-451.765 451.765c-249.503 0-451.765-202.262-451.765-451.765s202.262-451.765 451.765-451.765zM512-128c-282.77 0-512 229.23-512 512s229.23 512 512 512c282.77 0 512-229.23 512-512s-229.23-512-512-512zM380.894 595.745c-26.821-28.162-39.561-65.711-39.561-112.648h52.971c0 32.856 7.376 58.335 22.127 77.11 16.093 22.127 40.902 32.856 74.428 32.856 28.162 0 50.289-7.376 65.711-23.468 14.752-14.752 22.798-35.538 22.798-62.359 0-18.775-6.705-36.208-20.116-52.971-4.023-5.364-12.069-13.41-22.798-24.139-36.208-32.185-58.335-57.665-67.723-77.781-8.046-16.763-12.069-36.208-12.069-58.336v-15.422h53.642v15.422c0 18.104 4.023 34.197 12.74 48.948 6.705 12.069 16.763 24.139 31.515 36.879 29.503 26.15 47.607 43.584 54.312 51.63 16.763 22.127 25.48 48.278 25.48 78.451 0 40.231-12.74 71.746-37.549 94.544-26.15 24.139-60.347 35.538-103.261 35.538-48.278 0-85.827-14.752-112.648-44.255zM505.475 213.333c-10.24 0-18.673-3.012-25.901-10.24-7.228-6.626-10.24-15.059-10.24-25.299s3.012-18.673 10.24-25.901c7.228-6.626 15.661-10.24 25.901-10.24s18.673 3.614 25.901 10.24c7.228 6.626 10.842 15.059 10.842 25.901 0 10.24-3.614 18.673-10.24 25.299-7.228 7.228-16.264 10.24-26.504 10.24z" />
<glyph unicode="&#xe938;" glyph-name="import_sql" d="M159.905 156.775c0-11.104 1.946-20.583 5.837-28.437s9.311-14.286 16.26-19.296c6.949-5.010 14.94-8.666 23.973-10.969s18.831-3.453 29.393-3.453c11.396 0 21.124 1.286 29.185 3.859s14.592 5.89 19.596 9.953c5.003 4.062 8.616 8.734 10.84 14.015s3.335 10.63 3.335 16.047c0 11.104-2.571 19.296-7.713 24.578s-10.771 9.005-16.886 11.172c-10.562 3.792-22.861 7.38-36.898 10.765s-31.339 7.786-51.907 13.203c-12.786 3.25-23.417 7.515-31.895 12.797s-15.218 11.172-20.221 17.672c-5.003 6.5-8.547 13.406-10.632 20.718s-3.127 14.76-3.127 22.343c0 14.625 3.127 27.286 9.381 37.984s14.523 19.567 24.807 26.609c10.284 7.042 21.958 12.255 35.022 15.64s26.266 5.078 39.608 5.078c15.565 0 30.227-1.963 43.986-5.891s25.849-9.817 36.273-17.672c10.423-7.854 18.692-17.536 24.807-29.046s9.172-24.848 9.172-40.015h-52.116c-1.39 18.687-7.922 31.89-19.596 39.609s-26.544 11.578-44.611 11.578c-6.115 0-12.369-0.609-18.762-1.828s-12.23-3.25-17.511-6.094c-5.281-2.844-9.659-6.703-13.133-11.578s-5.212-10.968-5.212-18.281c0-10.292 3.266-18.349 9.798-24.171s15.079-10.224 25.641-13.203c1.112-0.271 5.489-1.422 13.133-3.453s16.191-4.266 25.641-6.703c9.45-2.437 18.692-4.807 27.726-7.109s15.496-3.995 19.387-5.078c9.728-2.979 18.206-7.041 25.433-12.187s13.272-11.036 18.136-17.672c4.864-6.635 8.477-13.744 10.84-21.328s3.544-15.166 3.544-22.75c0-16.25-3.405-30.13-10.215-41.64s-15.774-20.921-26.892-28.234c-11.118-7.312-23.765-12.661-37.94-16.047s-28.629-5.078-43.36-5.078c-16.955 0-32.937 2.031-47.947 6.094s-28.073 10.291-39.191 18.687c-11.118 8.396-20.012 19.161-26.683 32.296s-10.145 28.64-10.423 46.515h52.116zM661.468 61.309l-25.433-27.624-43.36 36.968c-11.118-6.229-22.653-10.698-34.605-13.406s-23.765-4.062-35.439-4.062c-22.236 0-42.179 3.995-59.829 11.984s-32.59 18.89-44.82 32.702c-12.23 13.812-21.611 29.926-28.143 48.343s-9.798 38.051-9.798 58.905c0 20.583 3.266 40.082 9.798 58.499s15.913 34.53 28.143 48.343c12.23 13.812 27.17 24.781 44.82 32.906s37.593 12.187 59.829 12.187c22.236 0 42.179-4.062 59.829-12.187s32.59-19.093 44.82-32.906c12.23-13.812 21.611-29.926 28.143-48.343s9.798-37.916 9.798-58.499c0-10.021-0.834-20.109-2.502-30.265s-4.169-20.109-7.505-29.859c-3.335-9.75-7.644-19.026-12.925-27.828s-11.674-16.588-19.179-23.359l38.357-32.499zM525.967 127.12l25.016 28.031 36.273-30.874c9.45 11.104 16.121 23.697 20.012 37.78s5.837 28.437 5.837 43.062c0 13.812-1.737 27.354-5.212 40.624s-8.825 25.119-16.052 35.546c-7.227 10.427-16.608 18.755-28.143 24.984s-25.224 9.344-41.067 9.344c-15.843 0-29.532-3.114-41.067-9.344s-20.916-14.557-28.143-24.984c-7.227-10.427-12.577-22.276-16.052-35.546s-5.212-26.812-5.212-40.624c0-13.812 1.737-27.354 5.212-40.624s8.825-25.119 16.052-35.546c7.227-10.427 16.608-18.755 28.143-24.984s25.224-9.344 41.067-9.344c5.559 0 11.188 0.542 16.886 1.625s11.188 2.844 16.469 5.281l-30.019 25.593zM712.75 350.147h52.116v-246.182h151.344v-43.874h-203.46v290.057zM951.182 384c0 20.108 16.301 36.409 36.409 36.409s36.409-16.301 36.409-36.409v227.559-682.678c0-31.415-25.473-56.881-56.881-56.881h-910.238c-31.415 0-56.881 25.473-56.881 56.881v910.238c0 31.415 25.473 56.881 56.881 56.881h455.119c20.108 0 36.409-16.301 36.409-36.409s-16.301-36.409-36.409-36.409h-405.052c-18.838 0-34.13-15.28-34.13-34.13v-810.105c0-18.838 15.28-34.13 34.13-34.13h810.105c18.838 0 34.13 15.28 34.13 34.13v405.052zM665.284 589.235l298.007 296.408c13.885 13.81 36.399 13.81 50.291-0.008 13.89-13.815 13.891-36.212 0.008-50.021l-300.854-299.241h200.204c19.643 0 35.566-15.834 35.566-35.375 0-19.537-15.916-35.375-35.566-35.375h-247.655v-0.782h-71.133v0.782h-1.309v70.751h1.309v246.846c0 19.537 15.919 35.375 35.566 35.375 19.643 0 35.566-15.829 35.566-35.375v-193.986z" />
<glyph unicode="&#xe939;" glyph-name="insight" d="M76.8-51.2h947.2v-76.8h-978.344c-25.215 0-45.656 20.441-45.656 45.656v978.344h76.8v-947.2zM232.649 97.173h74.551v411.372h-74.551v-411.372zM168.649 585.344h202.551c7.069 0 12.8-5.731 12.8-12.8v-539.372c0-7.069-5.731-12.8-12.8-12.8h-202.551c-7.069 0-12.8 5.731-12.8 12.8v539.372c0 7.069 5.731 12.8 12.8 12.8zM522.52 603.463v-506.291h74.551v506.291h-74.551zM458.52 680.263h202.551c7.069 0 12.8-5.731 12.8-12.8v-634.291c0-7.069-5.731-12.8-12.8-12.8h-202.551c-7.069 0-12.8 5.731-12.8 12.8v634.291c0 7.069 5.731 12.8 12.8 12.8zM814.626 787.942v-690.769h74.551v690.769h-74.551zM750.626 864.742h202.551c7.069 0 12.8-5.731 12.8-12.8v-818.769c0-7.069-5.731-12.8-12.8-12.8h-202.551c-7.069 0-12.8 5.731-12.8 12.8v818.769c0 7.069 5.731 12.8 12.8 12.8z" />
<glyph unicode="&#xe93a;" glyph-name="list" d="M956.538 755.7h-891.861c-35.653 0-64.677 24.3-64.677 54.15s29.024 54.15 64.677 54.15h892.040c35.653 0 64.677-24.3 64.677-54.15-0.179-30-29.024-54.15-64.856-54.15zM956.538 307.7h-891.861c-35.653 0-64.677 24.3-64.677 54.15s29.024 54.15 64.677 54.15h892.040c35.653 0 64.677-24.3 64.677-54.15-0.179-29.85-29.024-54.15-64.856-54.15zM956.538-76.3h-891.861c-35.653 0-64.677 24.3-64.677 54.15s29.024 54.15 64.677 54.15h892.040c35.653 0 64.677-24.3 64.677-54.15-0.179-30-29.024-54.15-64.856-54.15z" />
<glyph unicode="&#xe93b;" glyph-name="load" d="M652.753 820.148c-20.946 0-37.926 16.98-37.926 37.926s16.98 37.926 37.926 37.926h247.689c57.060 0 103.315-46.256 103.315-103.315v-817.369c0-57.060-46.256-103.315-103.315-103.315h-719.285c-57.060 0-103.315 46.256-103.315 103.315v507.316c0 20.946 16.98 37.926 37.926 37.926s37.926-16.98 37.926-37.926v-507.316c0-15.168 12.296-27.464 27.464-27.464h719.285c15.168 0 27.464 12.296 27.464 27.464v817.369c0 15.168-12.296 27.464-27.464 27.464h-247.689zM77.638 710.862c-45.003 68.027-55.992 134.903-57.038 142.334-2.826 20.513 11.408 39.56 31.711 42.386 1.675 0.314 3.558 0.419 5.338 0.419 18.42 0 34.328-13.815 37.049-31.816 0.314-2.512 9.838-59.027 46.572-113.553 48.247-71.585 120.774-108.111 215.175-108.425 1.465 0.105 2.721 0.209 3.768 0.209 20.617 0 37.467-16.745 37.467-37.467v-44.061l105.18 100.052-105.285 87.703v-35.793c0-20.617-16.745-37.467-37.467-37.467-20.617 0-37.467 16.745-37.467 37.467v115.751c0 14.443 8.477 27.734 21.664 33.909 4.919 2.407 10.466 3.558 15.803 3.558 8.791 0 17.268-3.14 23.862-8.582l198.953-165.672c8.163-7.012 13.082-16.954 13.291-27.525 0.419-10.675-3.768-21.036-11.512-28.467l-198.848-189.325c-10.884-10.466-26.792-13.187-40.502-7.326-13.815 5.965-22.606 19.466-22.606 34.432v95.133c-131.554 10.989-205.86 83.098-245.107 142.124z" />
<glyph unicode="&#xe93c;" glyph-name="loading" d="M0 384c0 16.634 13.484 30.118 30.118 30.118s30.118-13.484 30.118-30.118c0-249.503 202.262-451.765 451.765-451.765s451.765 202.262 451.765 451.765c0 249.503-202.262 451.765-451.765 451.765-16.634 0-30.118 13.484-30.118 30.118s13.484 30.118 30.118 30.118c282.77 0 512-229.23 512-512s-229.23-512-512-512c-282.77 0-512 229.23-512 512z" />
<glyph unicode="&#xe93d;" glyph-name="lock" d="M868.497 646.536c-19.752 48.751-47.723 92.364-83.002 129.47-35.279 37.448-76.609 67.018-122.848 87.798-47.838 21.35-98.415 32.196-150.477 32.196s-102.754-10.846-150.592-32.31c-46.239-20.665-87.455-50.235-122.848-87.683-35.621-37.562-63.593-81.176-83.002-129.47-20.208-50.007-30.484-103.211-30.484-158.241v-536.832c0-43.842 33.909-79.463 75.695-79.463h622.118c41.787 0 75.695 35.621 75.467 79.463v473.81l0.228 21.807v41.216c0.228 54.802-10.047 108.006-30.255 158.241zM391.947 791.876h0.228l1.484 0.571c37.334 17.011 77.18 25.574 118.395 25.574 40.987 0 80.947-8.677 118.51-25.346 36.421-16.441 69.53-40.074 98.187-70.101 28.885-30.484 51.377-65.763 67.247-105.037 16.555-40.873 24.889-84.258 24.889-129.242v-33.795h-617.665v33.909c0 44.527 8.334 87.912 24.889 129.127 15.984 39.617 38.704 74.896 67.247 104.923 28.429 29.913 60.739 53.318 96.589 69.416zM821.23 376.75v-425.173c0-0.685-0.114-1.256-0.228-1.598h-617.551c-0.114 0.343-0.228 0.913-0.228 1.598v425.173h618.008zM476.091 201.383v-102.183c0-19.98 16.212-36.192 36.192-36.192s36.192 16.212 36.192 36.192v102.411c19.181 12.33 30.712 33.11 30.712 56.172 0 36.991-30.027 67.018-67.018 67.018s-67.018-30.027-67.018-67.018c0.114-22.72 11.874-44.184 30.94-56.4z" />
<glyph unicode="&#xe93e;" glyph-name="login_email" d="M921.963 803.126c56.895 0 101.418-57.736 101.418-126.593v-585.066c0-68.428-43.797-126.593-101.418-126.593h-818.619c-57.619 0-102.724 58.164-102.724 126.593v585.066c0 68.094 42.223 126.593 102.724 126.593h818.619zM196.216 706.857c-41.525 0-105.256 1.696-105.256-62.402v-12.375c0 0 355.857-248.080 421.022-248.080 65.174 0 421.022 247.295 421.022 247.295v13.16c1.774 62.402-63.726 62.402-105.251 62.402h-631.537zM91.101 119.197c-1.2 0-0.299-76.594 79.581-76.594h686.889c73.935 0 75.552 77.787 75.548 76.594v398.206c0 0-299.455-223.86-421.009-223.86-120.287 0-421.009 222.746-421.009 222.746v-397.092z" />
<glyph unicode="&#xe93f;" glyph-name="login_intro" d="M76.248 3.749c-38.582 0-69.8 32.361-69.8 72.36 0 39.964 31.225 72.325 69.8 72.325 38.562 0 69.8-32.361 69.8-72.325 0-39.999-31.239-72.36-69.8-72.36zM76.248 311.661c-38.582 0-69.8 32.361-69.8 72.381 0 39.964 31.225 72.325 69.8 72.325 38.562 0 69.8-32.361 69.8-72.325 0-40.027-31.239-72.381-69.8-72.381zM76.248 619.567c-38.582 0-69.8 32.361-69.8 72.36 0 39.964 31.225 72.325 69.8 72.325 38.562 0 69.8-32.361 69.8-72.325 0-39.999-31.239-72.36-69.8-72.36zM950.191 21.051h-654.437c-38.595 0-69.888 24.644-69.888 55.040s31.293 55.040 69.888 55.040h654.437c38.595 0 69.888-24.644 69.888-55.040s-31.293-55.040-69.888-55.040zM950.191 328.974h-654.437c-38.595 0-69.888 24.644-69.888 55.040s31.293 55.040 69.888 55.040h654.437c38.595 0 69.888-24.644 69.888-55.040 0-30.39-31.293-55.040-69.888-55.040zM950.191 636.869h-654.437c-38.595 0-69.888 24.644-69.888 55.040s31.293 55.040 69.888 55.040h654.437c38.595 0 69.888-24.644 69.888-55.040s-31.293-55.040-69.888-55.040z" />
<glyph unicode="&#xe940;" glyph-name="login_manual" d="M440.889 896h358.549c76.575 0 139.229-62.649 139.229-139.263v-745.478c0-76.594-62.655-139.259-139.229-139.259h-574.877c-76.574 0-139.227 62.665-139.227 139.259v519.027l355.556 365.714zM844.834 17.681v732.637c0 29.601-23.942 53.844-53.476 53.844h-279.358v-290.056c0-30.085-23.942-53.714-53.476-53.714h-279.358v-443.416c0-29.19 23.885-53.14 53.349-53.14h558.969c29.658 0 53.349 24.107 53.349 53.844zM421.892 739.347l-185.679-189.495c37.043 0 73.403 0 147.489 0 21.178 0 38.19 16.845 38.19 37.625v151.87z" />
<glyph unicode="&#xe941;" glyph-name="lookup_table" d="M64 832v-896h896v896h-896zM0 896h1024v-1024h-1024v1024zM325.888 703.744h85.12v-568.064h338.688v-71.68h-423.808v639.744z" />
<glyph unicode="&#xe942;" glyph-name="mark_favorite" d="M1004.12 435.32l-199.272-186.588 47.015-263.141c4.229-23.839-5.877-47.759-25.823-61.737-10.957-7.683-23.944-11.695-37.245-11.695-10.172 0-20.186 2.318-29.297 6.94l-247.526 125.021-247.545-124.899c-21.303-10.821-47.030-9.083-66.452 4.528-20.059 13.883-30.211 37.96-25.968 61.878l47.008 263.105-199.323 186.635c-17.741 16.689-24.205 41.914-16.474 64.893 7.625 22.664 27.745 38.965 51.676 42.37l276.492 38.604 123.431 240.141c10.96 21.222 33.104 34.466 57.161 34.466s46.202-13.244 57.188-34.517l123.405-240.090 276.444-38.61c23.901-3.375 44.027-19.617 51.689-42.261 7.902-23.072 1.288-48.4-16.585-65.043zM960.639 482.974l-307.352 42.926-137.666 267.835c-0.534 1.033-1.933 1.87-3.642 1.87s-3.108-0.837-3.615-1.818l-137.692-267.887-307.369-42.915c-1.604-0.228-2.725-1.136-2.992-1.931-0.124-0.368 74.462-70.605 223.756-210.712l-52.756-295.272c2.37-2.789 4.311-2.92 5.911-2.107l274.765 138.633 274.716-138.754c3.145-0.447 4.038-0.171 4.762 0.337 0.612 0.429-16.61 99.483-51.666 297.163l223.212 209.004c0.373 2.5-0.74 3.399-2.372 3.629z" />
<glyph unicode="&#xe943;" glyph-name="measure" d="M512-128c-282.77 0-512 229.23-512 512s229.23 512 512 512c282.77 0 512-229.23 512-512s-229.23-512-512-512zM512-59.733c245.067 0 443.733 198.666 443.733 443.733s-198.666 443.733-443.733 443.733c-245.067 0-443.733-198.666-443.733-443.733s198.666-443.733 443.733-443.733zM273.067 105.706v517.227h101.698l143.286-400.152 147.48 400.152h90.864v-517.227h-68.498v420.771l-142.587-386.173h-70.944l-138.393 387.222v-421.82h-62.906z" />
<glyph unicode="&#xe944;" glyph-name="Messages" d="M974.115 530.253h-64.121v19.622c0 30.103-23.835 54.63-53.042 54.63h-192.809c-8.057 15.386-20.143 26.535-36.704 26.535-281.101 0-533.666 242.604-533.666 242.604-8.169 4.348-16.674 6.355-24.954 6.355-27.64 0-52.818-22.075-52.818-52.624 0-466.812 0-893.153 0-893.153 0-30.771 25.29-52.624 52.818-52.624 8.952 0 18.24 2.341 26.857 7.47 0 0 233.318 290.322 535.009 290.322 15.443 0 26.521 10.369 33.907 24.751h4.588c1.567-67.229-14.212-138.806-28.871-190.426-8.505-29.991 3.357-61.543 29.542-78.601 11.862-7.693 25.402-11.595 38.83-11.595 16.114 0 32.116 5.575 45.321 16.389 77.437 64.107 106.42 137.803 117.163 188.308 6.714 31.552 7.274 58.198 6.49 75.814 4.029 5.129 7.833 10.703 11.526 16.278 20.926 31.998 20.926 44.373 20.926 50.282v25.197h64.009c22.269 0 40.285 17.95 40.285 40.137v154.192c0 22.187-18.016 40.137-40.285 40.137zM596.106 258.55c-68.597-4.348-138.312-21.295-207.804-50.617-63.001-26.646-125.891-63.55-186.99-109.707-42.076-31.775-77.437-63.55-104.853-90.308v757.691c29.542-23.413 69.156-52.512 116.155-81.5 61.771-38.13 124.101-68.678 185.312-90.642 67.366-24.194 133.612-38.241 197.397-41.809 0-0.669 0-1.226 0-1.895 0-2.564 0.224-5.017 0.671-7.358v-282.629c0.112-0.446 0.112-0.78 0.112-1.226zM829.424 277.281c-3.469-6.801-10.743-17.95-15.107-23.525-3.581-2.23-6.826-5.017-9.512-8.25-7.609-9.142-10.855-21.183-8.728-32.89 0-0.223 4.588-28.765-3.693-67.786-9.624-45.488-31.78-86.071-65.911-121.079 16.226 65.222 29.878 149.063 20.254 225.546-2.574 20.068-19.695 35.12-39.949 35.12h-28.647v33.336c0 3.679-0.56 7.247-1.455 10.592v195.889h152.748v-246.952zM933.83 376.062h-23.835v73.918h23.835v-73.918z" />
<glyph unicode="&#xe945;" glyph-name="model" d="M960 135.698c0-6.961-2.784-11.735-8.254-14.519l-431.393-232.304h-2.088c-1.392-1.392-3.481-2.088-6.265-2.088s-4.873 0.696-6.265 2.088h-1.989l-431.393 232.304c-5.569 2.784-8.353 7.558-8.353 14.519v499.811c0 1.293 0.696 2.784 2.088 4.177v2.088l6.265 6.265 431.393 232.204c5.569 1.293 11.038 1.293 16.607 0l431.393-232.304 6.265-6.265 1.989-6.166v-499.811zM147.852 627.336l364.148-196.382 364.148 196.382-364.148 196.382-364.148-196.382zM904.668 157.736v427.559l-369.751-200.297v-427.559l369.751 200.297z" />
<glyph unicode="&#xe946;" glyph-name="monitor" d="M833.96-22.193c0-21.208-17.192-38.4-38.4-38.4h-567.121c-21.208 0-38.4 17.192-38.4 38.4s17.192 38.4 38.4 38.4h567.121c21.208 0 38.4-17.192 38.4-38.4zM76.8 751.793v-529.067h870.4v529.067h-870.4zM550.4 145.926v-129.719h-76.8v129.719h-441.6c-17.673 0-32 14.327-32 32v618.667c0 17.673 14.327 32 32 32h960c17.673 0 32-14.327 32-32v-618.667c0-17.673-14.327-32-32-32h-441.6zM184.654 659.215h590.373c14.138 0 25.6-11.462 25.6-25.6v-25.6c0-14.138-11.462-25.6-25.6-25.6h-590.373c-14.138 0-25.6 11.462-25.6 25.6v25.6c0 14.138 11.462 25.6 25.6 25.6zM184.654 527.139h366.527c14.138 0 25.6-11.462 25.6-25.6v-25.6c0-14.138-11.462-25.6-25.6-25.6h-366.527c-14.138 0-25.6 11.462-25.6 25.6v25.6c0 14.138 11.462 25.6 25.6 25.6zM184.654 395.062h652.8c14.138 0 25.6-11.462 25.6-25.6v-25.6c0-14.138-11.462-25.6-25.6-25.6h-652.8c-14.138 0-25.6 11.462-25.6 25.6v25.6c0 14.138 11.462 25.6 25.6 25.6z" />
<glyph unicode="&#xe947;" glyph-name="more_02" d="M203.712-82.202c-18.381 22.885-14.729 56.36 8.156 74.741l464.391 373.582-462.078 371.269c-22.885 18.381-26.537 51.856-8.156 74.741s51.856 26.537 74.741 8.156l513.691-412.779c12.538-9.982 19.842-25.319 19.842-41.387 0-16.19-7.304-31.406-19.842-41.509l-515.882-414.97c-9.86-7.791-21.668-11.686-33.353-11.686-15.581 0-30.919 6.817-41.509 19.842z" />
<glyph unicode="&#xe948;" glyph-name="more_03" d="M413.414-63.18c-18.381 22.885-14.729 56.36 8.156 74.741l464.391 373.582-462.078 371.269c-22.885 18.381-26.537 51.856-8.156 74.741s51.856 26.537 74.741 8.156l513.691-412.779c12.538-9.982 19.842-25.319 19.842-41.387 0-16.19-7.304-31.406-19.842-41.509l-515.882-414.97c-9.86-7.791-21.668-11.686-33.353-11.686-15.581 0-30.919 6.817-41.509 19.842zM11.712-63.18c-18.381 22.885-14.729 56.36 8.156 74.741l464.391 373.582-462.078 371.269c-22.885 18.381-26.537 51.856-8.156 74.741s51.856 26.537 74.741 8.156l513.691-412.779c12.538-9.982 19.842-25.319 19.842-41.387 0-16.19-7.304-31.406-19.842-41.509l-515.882-414.97c-9.86-7.791-21.668-11.686-33.353-11.686-15.581 0-30.919 6.817-41.509 19.842z" />
<glyph unicode="&#xe949;" glyph-name="more_04" d="M610.586 831.18c18.381-22.885 14.729-56.36-8.156-74.741l-464.391-373.582 462.078-371.269c22.885-18.381 26.537-51.856 8.156-74.741s-51.856-26.537-74.741-8.156l-513.691 412.779c-12.538 9.982-19.842 25.319-19.842 41.387 0 16.19 7.304 31.406 19.842 41.509l515.882 414.97c9.86 7.791 21.668 11.686 33.353 11.686 15.581 0 30.919-6.817 41.509-19.842zM1012.288 831.18c18.381-22.885 14.729-56.36-8.156-74.741l-464.391-373.582 462.078-371.269c22.885-18.381 26.537-51.856 8.156-74.741s-51.856-26.537-74.741-8.156l-513.691 412.779c-12.538 9.982-19.842 25.319-19.842 41.387 0 16.19 7.304 31.406 19.842 41.509l515.882 414.97c9.86 7.791 21.668 11.686 33.353 11.686 15.581 0 30.919-6.817 41.509-19.842z" />
<glyph unicode="&#xe94a;" glyph-name="more_05" d="M68.267 384c0-243.812 190.928-441.379 426.486-441.379h34.494c235.502 0 426.486 197.627 426.486 441.379 0 243.812-190.928 441.379-426.486 441.379h-34.494c-235.502 0-426.486-197.627-426.486-441.379zM0 384c0 282.77 221.562 512 494.753 512h34.494c273.244 0 494.753-229.168 494.753-512 0-282.77-221.562-512-494.753-512h-34.494c-273.245 0-494.753 229.168-494.753 512zM290.133 384c0-28.277 22.923-51.2 51.2-51.2s51.2 22.923 51.2 51.2c0 28.277-22.923 51.2-51.2 51.2s-51.2-22.923-51.2-51.2zM460.8 384c0-28.277 22.923-51.2 51.2-51.2s51.2 22.923 51.2 51.2c0 28.277-22.923 51.2-51.2 51.2s-51.2-22.923-51.2-51.2zM631.467 384c0-28.277 22.923-51.2 51.2-51.2s51.2 22.923 51.2 51.2c0 28.277-22.923 51.2-51.2 51.2s-51.2-22.923-51.2-51.2z" />
<glyph unicode="&#xe94b;" glyph-name="ostin_diagnose" d="M891.949 616.312h-30.673v147.628c0 72.833-59.551 132.060-132.751 132.060h-432.998c-35.503 0-68.828-13.657-93.85-38.444-25.129-24.918-38.954-58.153-38.954-93.616v-147.628h-30.673c-72.827 0-132.050-59.377-132.050-132.362v-477.585c0-72.986 59.222-132.388 132.050-132.388h759.9c72.827 0 132.051 59.403 132.051 132.388v477.585c0 72.986-59.224 132.362-132.051 132.362zM276.839 279.395h469.325v-68.48h-469.325v68.48zM477.262 463.001h68.48v-435.691h-68.48v435.691zM235.657 747.303c0 41.343 34.964 74.979 77.965 74.979h396.574c42.977 0 77.917-33.638 77.917-74.979v-130.99h-55.686v83.019c0 38.1-32.009 69.084-71.347 69.084h-298.39c-39.338 0-71.347-30.984-71.347-69.084v-83.019h-55.686v130.99zM658.69 675.753v-59.44h-294.377v59.44c0 10.784 10.118 19.234 23.038 19.234h248.3c12.483 0 23.039-8.809 23.039-19.234zM951.036 25.993c0-42.922-35.786-77.835-79.777-77.835h-718.517c-43.992 0-79.777 34.914-79.777 77.835v438.329c0 42.898 35.786 77.831 79.777 77.831h718.516c43.992 0 79.777-34.933 79.777-77.831v-438.329h0.001z" />
<glyph unicode="&#xe94c;" glyph-name="overview" d="M551.424 636.756l0.896-51.348-0.128-0.002c0.306-17.586-13.701-32.091-31.287-32.398s-32.091 13.7-32.398 31.286c-0.017 0.97 0.010 1.931 0.078 2.88l-0.891 51.022 0.132 0.002c-0.003 0.114-0.006 0.229-0.008 0.344-0.307 17.586 13.7 32.091 31.286 32.398s32.091-13.7 32.398-31.286c0.017-0.976-0.010-1.943-0.079-2.898zM327.934 557.471l0.183 0.119 27.339-42.099c0.781-0.944 1.517-1.943 2.2-2.995 9.579-14.751 5.387-34.475-9.364-44.054s-34.474-5.387-44.054 9.363l-0.179-0.116-27.514 42.368c-0.787 0.949-1.527 1.954-2.215 3.014-9.579 14.751-5.387 34.475 9.364 44.054s34.475 5.387 44.054-9.364c0.062-0.096 0.124-0.192 0.185-0.289zM167.495 381.109l0.036 0.081 47.099-20.97c0.733-0.264 1.461-0.557 2.183-0.879 16.068-7.154 23.294-25.979 16.14-42.047s-25.979-23.294-42.047-16.14l-0.035-0.078-47.4 21.104c-0.737 0.265-1.47 0.56-2.198 0.884-16.068 7.154-23.294 25.979-16.14 42.047s25.979 23.294 42.047 16.14c0.105-0.047 0.209-0.094 0.314-0.142zM901.97 332.475l0.056-0.119-46.249-21.566c-0.823-0.478-1.675-0.923-2.554-1.333-15.941-7.433-34.889-0.537-42.322 15.404s-0.537 34.889 15.404 42.322l-0.054 0.116 46.544 21.704c0.828 0.481 1.685 0.929 2.57 1.342 15.941 7.433 34.889 0.537 42.322-15.404s0.537-34.889-15.404-42.322c-0.104-0.049-0.208-0.096-0.312-0.144zM764.714 522.563l-28.567-45.717c-9.321-14.916-28.968-19.452-43.884-10.131s-19.452 28.968-10.131 43.884l28.567 45.717c0.061 0.097 0.122 0.194 0.182 0.292 9.321 14.916 28.968 19.452 43.884 10.131s19.452-28.968 10.131-43.884c-0.061-0.097-0.122-0.194-0.184-0.291zM313.111 782.918c63.255 26.996 129.583 40.541 198.889 40.541 69.353 0 135.68-13.545 198.842-40.541 63.348-26.996 117.853-63.348 163.514-109.056 45.801-45.754 82.106-100.305 109.103-163.468 26.996-63.302 40.541-129.629 40.541-198.935 0-70.889-13.684-137.868-41.146-201.169-27.415-63.162-65.489-118.458-114.316-165.748h-713.076c-48.826 47.29-86.9 102.54-114.316 165.748-27.415 63.255-41.146 130.281-41.146 201.169 0 69.353 13.545 135.633 40.588 198.935 26.996 63.209 63.348 117.76 109.056 163.468 45.754 45.708 100.305 82.060 163.468 109.056zM189.038 20.891h645.97c74.718 82.403 112.146 179.432 112.192 291.225 0 78.527-19.476 151.242-58.38 218.096s-91.84 119.683-158.666 158.624c-66.872 38.802-139.606 58.273-218.154 58.273s-151.282-19.47-218.154-58.273c-66.872-38.895-119.761-91.769-158.666-158.624-38.859-66.901-58.38-139.569-58.38-218.096 0-111.793 37.428-208.822 112.238-291.225zM355.949 377.105l174.823-114.13c24.253 5.775 45.552 0.327 63.966-16.281 13.915-13.003 21.176-28.981 21.726-48.035s-5.634-35.697-18.502-49.959c-12.918-14.233-29.063-21.667-48.333-22.36-19.361-0.675-36.004 5.509-49.879 18.523-19.724 19.11-26.305 42.082-19.585 68.959l-124.217 163.282z" />
<glyph unicode="&#xe94d;" glyph-name="paramters" d="M136.533 861.867c-56.554 0-102.4-45.846-102.4-102.4v-750.933c0-56.554 45.846-102.4 102.4-102.4h750.933c56.554 0 102.4 45.846 102.4 102.4v750.933c0 56.554-45.846 102.4-102.4 102.4h-750.933zM136.533 896h750.933c75.405 0 136.533-61.128 136.533-136.533v-750.933c0-75.405-61.128-136.533-136.533-136.533h-750.933c-75.405 0-136.533 61.128-136.533 136.533v750.933c0 75.405 61.128 136.533 136.533 136.533zM809.282 544.277l-211.822 213.881c-3.431 3.431-7.167 6.329-11.209 8.769-1.068 0.61-2.135 1.22-3.279 1.754-0.686 0.381-1.449 0.686-2.135 0.991-6.862 3.050-14.411 4.727-22.112 4.727h-263.062c-30.347 0-55.662-24.552-55.662-54.9v-671c0-30.348 25.315-54.9 55.662-54.9h475.037c30.348 0 54.137 24.552 54.137 54.9v457.119c0 14.487-5.337 28.365-15.555 38.659zM586.937 690.22l153.11-153.72h-153.11v153.72zM766.955 52.712h-469.073v662.576h234.16v-180.702c0-29.966 24.997-54.211 54.964-54.211h179.95v-427.662zM552.777 388.575h-85.934l-43.234-254.675h58.865l14.335 90.737h28.67c51.697 0 101.336 25.849 111.63 84.104 10.751 60.542-30.347 79.834-84.332 79.834zM579.846 308.741c-4.194-23.942-20.359-37.591-49.029-37.591h-25.62l12.429 70.912h24.019c28.212 0 42.547-8.616 38.201-33.321z" />
<glyph unicode="&#xe94e;" glyph-name="pause" d="M512 896c282.8 0 512-229.2 512-512s-229.2-512-512-512c-282.8 0-512 229.2-512 512s229.2 512 512 512zM421 228v312c0 19.9-28.622 36-64 36s-64-16.1-64-36v-312c0-19.9 28.622-36 64-36s64 16.1 64 36zM731 228v312c0 19.9-28.622 36-64 36s-64-16.1-64-36v-312c0-19.9 28.622-36 64-36s64 16.1 64 36z" />
<glyph unicode="&#xe94f;" glyph-name="progress" d="M512-9.792c212.077 0 384 171.923 384 384s-171.923 384-384 384c-212.077 0-384-171.923-384-384s171.923-384 384-384zM512-137.792c-282.77 0-512 229.23-512 512s229.23 512 512 512c282.77 0 512-229.23 512-512s-229.23-512-512-512zM1027.987 363.864c0-35.346-28.654-64-64-64s-64 28.654-64 64c0 219.88-178.248 398.128-398.128 398.128-35.346 0-64 28.654-64 64s28.654 64 64 64c290.572 0 526.128-235.555 526.128-526.128z" />
<glyph unicode="&#xe950;" glyph-name="project_add" d="M73.143 859.429c-20.198 0-36.571-16.374-36.571-36.571v-877.714c0-20.198 16.374-36.571 36.571-36.571h877.714c20.198 0 36.571 16.374 36.571 36.571v877.714c0 20.198-16.374 36.571-36.571 36.571h-877.714zM73.143 896h877.714c40.396 0 73.143-32.747 73.143-73.143v-877.714c0-40.396-32.747-73.143-73.143-73.143h-877.714c-40.396 0-73.143 32.747-73.143 73.143v877.714c0 40.396 32.747 73.143 73.143 73.143zM487.004 694.643c0 13.94 12.28 25.24 27.429 25.24s27.429-11.3 27.429-25.24v-621.286c0-13.94-12.28-25.24-27.429-25.24s-27.429 11.3-27.429 25.24v621.286zM204.357 354.383c-13.805 0-24.996 12.28-24.996 27.429s11.191 27.429 24.996 27.429h615.287c13.805 0 24.996-12.28 24.996-27.429s-11.191-27.429-24.996-27.429h-615.287z" />
<glyph unicode="&#xe951;" glyph-name="project_list" d="M73.143 859.429c-20.198 0-36.571-16.374-36.571-36.571v-877.714c0-20.198 16.374-36.571 36.571-36.571h877.714c20.198 0 36.571 16.374 36.571 36.571v877.714c0 20.198-16.374 36.571-36.571 36.571h-877.714zM73.143 896h877.714c40.396 0 73.143-32.747 73.143-73.143v-877.714c0-40.396-32.747-73.143-73.143-73.143h-877.714c-40.396 0-73.143 32.747-73.143 73.143v877.714c0 40.396 32.747 73.143 73.143 73.143zM766.022 608.665h-509.635c-20.373 0-36.958 13.886-36.958 30.943s16.585 30.943 36.958 30.943h509.737c20.373 0 36.958-13.886 36.958-30.943-0.102-17.143-16.585-30.943-37.061-30.943zM766.022 352.665h-509.635c-20.373 0-36.958 13.886-36.958 30.943s16.585 30.943 36.958 30.943h509.737c20.373 0 36.958-13.886 36.958-30.943-0.102-17.057-16.585-30.943-37.061-30.943zM766.022 133.237h-509.635c-20.373 0-36.958 13.886-36.958 30.943s16.585 30.943 36.958 30.943h509.737c20.373 0 36.958-13.886 36.958-30.943-0.102-17.143-16.585-30.943-37.061-30.943z" />
<glyph unicode="&#xe952;" glyph-name="project_status" d="M187.734 718.563c-13.332 12.552-34.948 12.552-48.264 0-13.342-12.542-13.342-32.878 0-45.431l48.264-45.425c13.332-12.547 34.932-12.547 48.264 0 13.332 12.542 13.332 32.878 0 45.425l-48.264 45.431zM836.262 718.563l-48.27-45.431c-13.322-12.547-13.322-32.883 0-45.425 13.317-12.547 34.932-12.547 48.27 0l48.26 45.425c13.336 12.552 13.336 32.883 0 45.431-13.327 12.547-34.929 12.547-48.26 0zM102.4 464.32h-68.262c-18.852 0-34.138-14.387-34.138-32.121 0-17.747 15.282-32.126 34.138-32.126h68.261c18.852 0 34.133 14.379 34.133 32.126 0.001 17.734-15.282 32.121-34.132 32.121zM989.857 464.32h-68.261c-18.852 0-34.138-14.387-34.138-32.121 0-17.747 15.287-32.126 34.138-32.126h68.261c18.852 0 34.143 14.379 34.143 32.126 0 17.734-15.292 32.121-34.143 32.121zM477.862 833.761v-64.251c0-17.743 15.282-32.117 34.133-32.117 18.846 0 34.138 14.374 34.138 32.117v64.251c0 17.743-15.292 32.121-34.138 32.121-18.852 0-34.133-14.379-34.133-32.121zM204.8 384.012c0-159.697 137.529-289.145 307.195-289.145s307.2 129.448 307.2 289.145c0 159.683-137.533 289.122-307.2 289.122s-307.195-129.439-307.195-289.122zM443.729-65.757c0-17.728 15.287-32.126 34.133-32.126h68.271c18.846 0 34.133 14.397 34.133 32.126 0 17.751-15.287 32.126-34.133 32.126h-68.271c-18.847 0-34.133-14.374-34.133-32.126zM375.466 30.62c0-17.728 15.282-32.13 34.129-32.13h204.8c18.852 0 34.133 14.402 34.133 32.13 0 17.751-15.282 32.13-34.133 32.13h-204.8c-18.852 0-34.129-14.379-34.129-32.13z" />
<glyph unicode="&#xe953;" glyph-name="project" d="M421.647 775.529v-466.824h542.118v466.824h-542.118zM1024 835.765v-587.294h-662.588v587.294h662.588zM602.353 173.176h60.235v-240.941h-662.588v587.294h271.059v-60.235h-210.824v-466.824h542.118v180.706z" />
<glyph unicode="&#xe954;" glyph-name="query_add" d="M618.575 164.48h-219.429v73.143h219.429v219.429h73.143v-219.429h219.429v-73.143h-219.429v-219.429h-73.143v219.429zM138.737-26.008h334.956v-64h-398.956v948.015h874.526v-403.569h-64v339.569h-746.526v-820.015z" />
<glyph unicode="&#xe955;" glyph-name="query_import" d="M904.412 800.9h-811.321c-51.433 0-93.091-40.050-93.091-89.496v-166.306h66.594v190.385h894.583v-700.49h-894.583v229.376h-66.594v-208.668c0-49.447 41.658-88.601 93.091-88.601h837.818c51.433 0 93.091 39.378 93.091 88.601v655.702c0 49.447-68.155 89.496-119.588 89.496zM465.455 219.621l186.182 178.993-186.182 178.993v-134.244h-465.455v-89.496h465.455v-134.244z" />
<glyph unicode="&#xe956;" glyph-name="record" d="M9.886 281.076c-2.176 4.863-3.386 10.253-3.386 15.926 0 0.596 0.013 1.188 0.040 1.778-0.013 0.078-0.027 0.156-0.040 0.234 1.098 20.626 18.153 37.029 39.040 37.029 21.016 0 38.153-16.606 39.007-37.412 0.062 0 0.123 0 0.182 0 33.435-164.283 161.476-295.707 326.955-331.674 1.985-0.432 36.809-9.791 91.279-13.714 0 0 0-24.282 0-72.846-22.239 0-44.142 1.442-65.62 4.236-213.064 27.725-384.3 188.622-427.458 396.444zM156.58 633.435l110.199 17.454c19.693 3.119 38.138-10.281 41.176-29.916 3.119-19.693-10.281-38.138-29.916-41.176l-189.672-30.041c-19.693-3.119-38.138 10.281-41.176 29.916l-29.96 189.613c-3.119 19.693 10.281 38.138 29.916 41.176 19.693 3.119 38.138-10.281 41.176-29.916l14.391-90.86c92.028 120.314 237.076 197.919 400.25 197.919 278.133 0 503.604-225.471 503.604-503.604-46.812 0-72.606 0-77.381 0 1.031 10.38-0.135 24.951-0.21 26.197-13.534 223.517-199.093 400.608-426.013 400.608-139.27 0-266.942-67.165-346.384-177.369zM588.484-113.204v76.8h429.015v-76.8h-429.015zM588.484 110.779h429.015v-76.8h-429.015v76.8zM588.484 257.962h429.015v-76.8h-429.015v76.8zM606.781 661.787v-326.73h-256v70.507h186.288v256.222h69.712z" />
<glyph unicode="&#xe957;" glyph-name="right" d="M721.3 590.4l-327.5-328.5-85.4 149.5c-9.9 17.3-31.8 23.3-49.1 13.4s-23.3-31.8-13.4-49.1l108.8-190.5c6.6-11.6 18.8-18.2 31.3-18.2 6.1 0 12.2 1.5 17.8 4.7 3.2 1.9 6.1 4.1 8.5 6.7 0.1 0.1 0.3 0.3 0.4 0.4l359.5 360.6c14 14.1 14 36.9-0.1 50.9-14 14.2-36.7 14.2-50.8 0.1zM512 896c-282.8 0-512-229.2-512-512s229.2-512 512-512c282.8 0 512 229.2 512 512s-229.2 512-512 512zM823.1 72.9c-40.4-40.4-87.5-72.2-139.9-94.3-54.2-23-111.8-34.6-171.2-34.6s-117 11.6-171.2 34.5c-52.4 22.2-99.4 53.9-139.9 94.3-40.4 40.4-72.2 87.5-94.3 139.9-23 54.3-34.6 111.9-34.6 171.3s11.6 117 34.5 171.2c22.2 52.4 53.9 99.4 94.3 139.9 40.4 40.4 87.5 72.2 139.9 94.3 54.3 23 111.9 34.6 171.3 34.6s117-11.6 171.2-34.5c52.4-22.2 99.4-53.9 139.9-94.3 40.4-40.4 72.2-87.5 94.3-139.9 23-54.3 34.6-111.9 34.6-171.3s-11.6-117-34.5-171.2c-22.2-52.4-53.9-99.5-94.4-139.9z" />
<glyph unicode="&#xe958;" glyph-name="sample" d="M64 896h896c35.346 0 64-28.654 64-64v-896c0-35.346-28.654-64-64-64h-896c-35.346 0-64 28.654-64 64v896c0 35.346 28.654 64 64 64zM56.011 827.733v-132.341h912.998v132.341h-912.998zM56.011 622.474v-284.44h256.372v284.44h-256.372zM362.964 622.474v-284.44h299.092v284.44h-299.092zM712.647 622.474v-284.44h256.362v284.44h-256.362zM56.011 274.087v-333.821h256.372v333.821h-256.372zM362.964 274.087v-333.821h299.092v333.821h-299.092zM712.647 274.087v-333.821h256.362v333.821h-256.362z" />
<glyph unicode="&#xe959;" glyph-name="search-engine" d="M1006.035 772.94l-205.811 118.344c-5.502 3.144-11.677 4.716-17.74 4.716s-12.239-1.572-17.74-4.716l-205.811-118.344c-11.004-6.4-17.74-18.077-17.74-30.877v-9.993l-11.34 6.512c-5.502 3.144-11.677 4.716-17.74 4.716s-12.239-1.572-17.74-4.716l-11.453-6.625v10.105c0 12.688-6.849 24.477-17.853 30.877l-205.923 118.344c-5.502 3.144-11.677 4.716-17.74 4.716s-12.239-1.572-17.74-4.716l-205.811-118.344c-11.116-6.4-17.853-18.077-17.853-30.877v-237.586c0-12.688 6.737-24.477 17.853-30.877l205.811-118.344c5.502-3.144 11.565-4.716 17.74-4.716s12.239 1.572 17.74 4.716l11.453 6.625v-10.105c0-12.688 6.849-24.477 17.853-30.877l7.298-4.154-7.298-4.154c-11.004-6.4-17.853-18.077-17.853-30.877v-237.586c0-12.688 6.849-24.477 17.853-30.877l205.811-118.344c5.502-3.144 11.677-4.716 17.74-4.716s12.239 1.572 17.74 4.716l205.811 118.344c11.004 6.4 17.853 18.077 17.853 30.877v237.474c0 12.688-6.849 24.477-17.853 30.877l-7.298 4.154 7.298 4.154c11.004 6.4 17.853 18.077 17.853 30.877v9.993l11.34-6.512c5.502-3.144 11.677-4.716 17.74-4.716s12.239 1.572 17.74 4.716l205.811 118.456c11.004 6.4 17.965 18.077 17.965 30.877v237.586c0 12.8-6.849 24.477-17.965 30.877zM241.404 438.344l-160.561 92.295v185.263l160.561 92.295 160.561-92.295v-30.428l-113.516-65.235c-11.004-6.4-17.853-18.077-17.853-30.877v-134.288l-29.193-16.73zM401.965 625.853v-95.326l-79.719-45.811v95.326l79.719 45.811zM672.561 255.439v-185.263l-160.561-92.295-160.561 92.295v185.263l25.375 14.596 117.446-67.481c5.502-3.144 11.677-4.716 17.74-4.716s12.239 1.572 17.74 4.716l117.446 67.481 25.375-14.596zM428.688 299.902l83.312 47.944 83.312-47.944-83.312-47.944-83.312 47.944zM701.754 360.982l-25.263-14.596-146.751 84.323c-5.502 3.144-11.677 4.716-17.74 4.716s-12.239-1.572-17.74-4.716l-146.751-84.323-25.263 14.596v30.54l142.709 82.077c11.004 6.4 17.853 18.077 17.853 30.877v167.86l29.305 16.842 29.081-16.73v-168.084c0-12.688 6.737-24.477 17.74-30.877l142.821-82.077v-30.428zM701.754 484.716l-79.719 45.923v95.439l79.719-45.923v-95.439zM943.158 530.639l-160.674-92.295-29.081 16.618v134.4c0 12.688-6.737 24.477-17.74 30.877l-113.628 65.347v30.316l160.561 92.295 160.561-92.295v-185.263z" />
<glyph unicode="&#xe95a;" glyph-name="search" d="M1011.986-57.701l-235.082 234.968c62.971 75.999 100.799 173.483 100.799 279.882 0 242.397-196.454 438.851-438.851 438.851s-438.851-196.454-438.851-438.851c0-242.397 196.454-438.851 438.851-438.851 106.399 0 203.883 37.828 279.882 100.799l235.082-235.082c8-8 18.514-12 29.142-12s21.028 4 29.142 12c15.885 16.114 15.885 42.171-0.114 58.285zM577.592 128.582c-43.885-18.628-90.513-28-138.741-28s-94.856 9.371-138.741 28c-42.399 17.943-80.57 43.657-113.37 76.456s-58.513 70.97-76.456 113.37c-18.628 43.885-28 90.513-28 138.741s9.371 94.856 28 138.741c17.943 42.399 43.657 80.57 76.456 113.37s70.97 58.513 113.37 76.456c43.885 18.628 90.513 28 138.741 28s94.856-9.371 138.741-28c42.399-17.943 80.57-43.657 113.37-76.456s58.513-70.97 76.456-113.37c18.628-43.885 28-90.513 28-138.741s-9.371-94.856-28-138.741c-17.943-42.399-43.657-80.57-76.456-113.37s-70.856-58.513-113.37-76.456z" />
<glyph unicode="&#xe95b;" glyph-name="security" d="M155.896 394.298c2.373-34.606 5.585-67.45 9.679-98.251 9.194-69.192 74.612-149.087 180.886-226.679 44.433-32.441 92.516-62.025 140.629-87.944 8.943-4.818 17.231-9.166 24.758-13.027 7.54 3.864 15.843 8.217 24.803 13.040 48.152 25.921 96.274 55.507 140.743 87.95 106.355 77.593 171.823 157.491 181.023 226.669 4.096 30.798 7.31 63.642 9.684 98.248 6.865 100.068 6.463 207.457 1.383 310.872-21.271-1.28-42.391-1.772-63.037-1.292-41.036 0.954-77.9 5.692-110.461 15.686-72.026 22.104-133.414 48.581-184.135 80.033-50.685-31.448-112.025-57.924-183.991-80.026-32.555-10-69.406-14.74-110.427-15.694-20.609-0.479-41.69 0.012-62.922 1.288-5.077-103.416-5.477-210.805 1.384-310.875zM308.806 787.095c89.068 27.354 156.993 61.427 203.775 102.22 46.818-40.793 114.794-74.866 203.928-102.22 83.252-25.553 224.253-0.011 224.316 0 0.004-0.041 25.486-276.021-5.098-506.006-30.588-230.008-423.146-403.787-423.146-403.787s-392.271 173.778-422.833 403.787c-30.562 229.955-5.108 505.891-5.097 506.006 0.003-0.001 140.949-25.558 224.155 0zM513.158 141.833c-34.2-0.119-66.381 12.944-90.605 36.693s-37.643 55.337-37.703 89.002c-0.119 33.725 13.062 65.371 37.228 89.24 16.328 16.15 36.515 26.956 58.365 32.537l-0.772 203.951c-0.059 17.397 14.19 31.528 31.884 31.528 8.847 0 16.862-3.503 22.622-9.203 5.819-5.7 9.381-13.537 9.441-22.265l0.237-55.159 52.843 0.119c8.847 0 16.862-3.503 22.622-9.203 5.819-5.7 9.381-13.537 9.441-22.265 0.059-17.397-14.19-31.528-31.884-31.528l-52.843-0.119 0.297-85.796c21.909-5.522 42.156-16.209 58.603-32.359 24.225-23.75 37.643-55.396 37.703-89.062 0.119-33.606-13.062-65.252-37.168-89.062-24.047-23.868-56.168-36.99-90.308-37.050zM576.748 267.885c-0.059 33.665-29.806 62.937-64.184 62.818-17.040 0-33.072-6.531-45.125-18.465s-18.644-27.787-18.644-44.709c0-16.803 6.709-32.597 18.822-44.412 12.053-11.875 28.143-18.406 45.243-18.347s33.19 6.591 45.243 18.525c12.112 11.934 18.703 27.787 18.644 44.59z" />
<glyph unicode="&#xe95c;" glyph-name="setting" d="M1017.117 465.273l-4.267 26.941-82.308 27.503c-7.187 22.227-16.17 44.004-26.837 64.772l38.852 77.569-15.945 22.227c-32.339 44.117-70.967 82.733-114.872 114.613l-22.121 15.94-77.592-38.841c-20.886 10.664-42.558 19.645-64.791 26.829l-27.399 82.059-26.725 4.153c-29.757 4.715-55.471 6.96-81.073 6.96-24.928 0-50.755-2.245-81.185-7.072l-26.949-4.266-27.399-82.396c-22.682-7.409-44.467-16.389-64.791-26.717l-77.48 38.953-22.121-15.94c-44.017-31.881-82.645-70.385-114.76-114.613l-15.945-22.227 38.852-77.569c-10.555-20.767-19.538-42.433-26.725-64.66l-82.308-27.278-4.267-26.941c-4.716-29.748-6.962-56.24-6.962-81.273 0-25.145 2.246-51.638 6.962-81.161l4.267-26.941 82.308-27.503c7.187-22.227 16.17-44.004 26.837-64.772l-38.628-77.344 15.945-22.002c16.619-23.125 33.799-43.443 52.439-62.19 17.405-17.512 37.729-34.687 62.096-52.536l22.121-15.94 77.48 38.841c20.886-10.664 42.558-19.757 64.791-26.829l27.399-82.396 26.949-4.266c29.532-4.715 56.032-6.96 81.073-6.96s51.541 2.245 81.185 6.96l26.949 4.266 27.399 82.396c22.009 7.184 43.681 16.165 64.679 26.717l77.592-38.841 22.121 15.94c24.142 17.4 44.467 34.575 62.096 52.536 18.303 18.298 35.371 38.728 52.439 62.19l15.945 22.227-38.852 77.569c10.667 20.767 19.651 42.433 26.837 64.772l82.308 27.503 4.267 26.941c4.716 29.523 6.962 56.016 6.962 81.049 0.337 24.809-1.909 51.413-6.85 81.049zM961.794 384.761v-0.585c0-15.805-1.054-31.844-3.045-49.054l-41.456-13.815-36.655-12.41-11.359-36.878c-6.441-21.307-14.99-42.029-25.412-61.698l-18.035-34.068 36.772-73.405c-10.774-13.58-21.431-25.639-32.556-36.761l-0.234-0.234c-10.891-11.005-22.953-21.659-36.538-32.312l-73.192 36.644-33.961-17.678c-20.025-10.42-41.105-19.083-62.536-25.873l-36.655-11.473-11.945-36.293-13.819-41.444c-17.098-2.107-33.259-3.044-49.068-3.044-15.692 0-31.853 1.054-49.068 3.044l-13.819 41.444-12.062 36.644-36.889 11.356c-21.782 6.673-42.51 15.219-61.716 25.405l-34.195 17.795-73.544-36.644c-13.585 10.771-25.647 21.424-36.772 32.546-11.359 11.356-22.016 23.415-32.556 36.761l36.538 73.171-17.8 33.951c-10.657 20.371-19.323 41.21-25.647 62.049l-11.359 36.878-77.994 25.873c-2.108 17.093-3.045 33.249-3.045 49.054s1.054 31.844 3.045 49.054l77.76 25.873 11.359 36.761c6.558 21.19 15.224 42.146 25.647 62.283l17.8 33.951-36.538 73.288c20.494 25.522 43.798 48.819 69.328 69.307l73.309-36.644 34.078 17.912c19.674 10.302 40.636 18.966 62.301 25.756l36.655 11.473 12.179 36.41 13.819 41.444c17.683 1.99 33.727 3.044 48.951 3.044 15.692 0 31.853-1.054 48.951-3.044l25.998-77.619 36.655-11.356c21.314-6.673 42.276-15.337 62.301-25.639l33.961-17.795 73.192 36.644c25.53-20.488 48.951-43.785 69.679-69.424l-36.538-73.171 17.566-33.834c10.423-20.137 19.206-41.21 25.881-62.634l11.477-36.644 77.877-25.99c2.225-17.561 3.162-33.366 2.928-48.351zM512 579.662c-107.91 0-195.72-87.784-195.72-195.662s87.81-195.662 195.72-195.662c107.91 0 195.72 87.784 195.72 195.662s-87.81 195.662-195.72 195.662zM609.534 286.495c-26.036-26.028-60.706-40.459-97.534-40.459s-71.498 14.295-97.534 40.459c-26.036 26.028-40.471 60.688-40.471 97.505s14.3 71.477 40.471 97.505c26.036 26.028 60.706 40.459 97.534 40.459s71.498-14.295 97.534-40.459c26.036-26.163 40.471-60.688 40.471-97.505s-14.435-71.477-40.471-97.505z" />
<glyph unicode="&#xe95d;" glyph-name="shrink" d="M64 896h896c35.346 0 64-28.654 64-64v-896c0-35.346-28.654-64-64-64h-896c-35.346 0-64 28.654-64 64v896c0 35.346 28.654 64 64 64zM721.761 365c18.929 0 34.244 14.715 34.244 32.903s-15.315 32.903-34.244 32.903h-419.485c-18.929 0-34.244-14.715-34.244-32.903s15.315-32.903 34.244-32.903h419.485z" />
<glyph unicode="&#xe95e;" glyph-name="sql" d="M170.688 896h682.624c94.268 0 170.688-76.42 170.688-170.688v-682.624c0-94.268-76.42-170.688-170.688-170.688h-682.624c-94.268 0-170.688 76.42-170.688 170.688v682.624c0 94.268 76.42 170.688 170.688 170.688zM170.688 839.104c-62.848 0-113.792-50.944-113.792-113.792v-682.624c0-30.208 11.968-59.136 33.344-80.448 21.312-21.376 50.24-33.344 80.448-33.344h682.624c30.208 0 59.136 11.968 80.448 33.344 21.376 21.312 33.344 50.24 33.344 80.448v682.624c0 30.208-11.968 59.136-33.344 80.448-21.318 21.366-50.266 33.364-80.448 33.344h-682.624zM106.88 278.016c10.56-9.216 24.576-16.768 42.24-22.72 17.6-5.888 34.368-8.832 50.24-8.832 48.256 0 72.384 17.152 72.384 51.52 0.139 9.25-2.564 18.32-7.744 25.984-5.651 8.193-12.901 15.159-21.312 20.48-16.503 9.974-33.507 19.096-50.944 27.328-34.496 17.152-57.216 33.152-68.224 47.872-10.886 14.611-16.645 32.406-16.384 50.624 0 28.544 11.456 51.2 34.432 67.968 22.976 16.704 51.904 25.088 86.912 25.088 34.176 0 59.328-4.16 75.328-12.416v-48.448c-20.8 14.4-47.040 21.568-78.72 21.568-21.056 0-38.144-4.48-51.392-13.248-12.759-7.805-20.356-21.85-19.904-36.8-0.471-12.772 4.536-25.137 13.76-33.984 9.216-8.704 29.12-20.672 59.776-35.776 33.792-16.128 57.472-32.256 70.912-48.448 13.44-16.128 20.224-34.304 20.224-54.464 0-30.208-11.008-53.376-32.896-69.568-21.952-16.128-52.352-24.192-91.328-24.192-13.696 0-29.568 1.92-47.68 5.696-18.176 3.712-31.36 8.512-39.68 14.080v50.688zM700.032 124.032c-10.816-3.456-23.808-5.12-38.912-5.12-21.376 0-41.536 5.184-60.544 15.488-19.072 10.432-45.376 34.816-79.040 73.152-46.080-0.32-83.968 16.064-113.664 49.152-29.696 32.96-44.544 74.496-44.544 124.608 0 55.872 15.040 100.16 45.12 132.928s71.168 49.088 123.328 49.088c46.976 0 85.056-16.064 114.368-48.192 29.248-32.128 43.776-74.048 43.776-125.568 0-45.76-10.24-84.16-30.784-115.392-20.608-31.104-49.856-51.2-87.808-60.16 19.136-20.736 35.392-34.944 48.896-42.56 13.44-7.616 28.48-11.456 45.12-11.456 13.632 0 25.152 2.048 34.688 6.016v-41.984zM409.984 384.896c0-41.6 10.624-75.008 31.872-100.096 21.248-25.152 49.024-37.696 83.2-37.696 36.8 0 65.6 12.032 86.592 36.16 20.928 24.064 31.488 57.664 31.488 100.992 0 44.416-10.24 78.72-30.784 102.912-20.544 24.064-48.64 36.16-84.352 36.16-35.136 0-63.552-12.736-85.376-38.208-21.76-25.536-32.64-58.88-32.64-100.224zM937.984 213.312h-181.568v344.192h44.48v-304.832h137.088v-39.36z" />
<glyph unicode="&#xe95f;" glyph-name="status" d="M204.8 383.986c0 159.683 137.529 289.122 307.195 289.122s307.2-129.439 307.2-289.122c0-159.697-137.533-289.145-307.2-289.145s-307.195 129.448-307.195 289.145zM268.798 383.983c0-126.428 108.878-228.909 243.198-228.909s243.202 102.481 243.202 228.909c0 126.417-108.881 228.89-243.202 228.89s-243.198-102.474-243.198-228.89zM187.734 718.537c-13.332 12.552-34.948 12.552-48.264 0-13.342-12.542-13.342-32.878 0-45.431l48.264-45.425c13.332-12.547 34.932-12.547 48.264 0 13.332 12.542 13.332 32.878 0 45.425l-48.264 45.431zM836.262 718.537l-48.27-45.431c-13.322-12.547-13.322-32.883 0-45.425 13.317-12.547 34.932-12.547 48.27 0l48.26 45.425c13.336 12.552 13.336 32.883 0 45.431-13.327 12.547-34.929 12.547-48.26 0zM102.4 464.295h-68.262c-18.852 0-34.138-14.387-34.138-32.121 0-17.747 15.282-32.126 34.138-32.126h68.261c18.852 0 34.133 14.379 34.133 32.126 0.001 17.734-15.282 32.121-34.132 32.121zM989.857 464.295h-68.261c-18.852 0-34.138-14.387-34.138-32.121 0-17.747 15.287-32.126 34.138-32.126h68.261c18.852 0 34.143 14.379 34.143 32.126 0 17.734-15.292 32.121-34.143 32.121zM477.862 833.735v-64.251c0-17.743 15.282-32.117 34.133-32.117 18.846 0 34.138 14.374 34.138 32.117v64.251c0 17.743-15.292 32.121-34.138 32.121-18.852 0-34.133-14.379-34.133-32.121zM443.729-65.783c0-17.728 15.287-32.126 34.133-32.126h68.271c18.846 0 34.133 14.397 34.133 32.126 0 17.751-15.287 32.126-34.133 32.126h-68.271c-18.847 0-34.133-14.374-34.133-32.126zM375.466 30.594c0-17.728 15.282-32.13 34.129-32.13h204.8c18.852 0 34.133 14.402 34.133 32.13 0 17.751-15.282 32.13-34.133 32.13h-204.8c-18.852 0-34.129-14.379-34.129-32.13z" />
<glyph unicode="&#xe960;" glyph-name="studio" d="M512-57.6c89.239 0 185.6 192.722 185.6 441.6s-96.361 441.6-185.6 441.6c-89.239 0-185.6-192.722-185.6-441.6s96.361-441.6 185.6-441.6zM512-128c-141.385 0-256 229.23-256 512s114.615 512 256 512c141.385 0 256-229.23 256-512s-114.615-512-256-512zM125.794 606.976c-47.175-81.71 71.53-265.297 289.211-390.975s436.025-136.686 483.2-54.977c47.175 81.71-71.53 265.297-289.211 390.975s-436.025 136.686-483.2 54.977zM64.826 642.176c73.009 126.455 332.401 113.378 579.368-29.209s387.989-360.688 314.98-487.143c-73.009-126.455-332.401-113.378-579.368 29.209s-387.989 360.688-314.98 487.143zM898.206 606.976c-47.175 81.71-265.518 70.702-483.2-54.977s-336.387-309.266-289.211-390.975c47.175-81.71 265.518-70.702 483.2 54.977s336.387 309.266 289.211 390.975zM959.174 642.176c73.009-126.455-68.012-344.557-314.98-487.143s-506.36-155.664-579.368-29.209c-73.009 126.455 68.012 344.557 314.98 487.143s506.36 155.664 579.368 29.209zM394.809 464.327l109.504 41.907 116.15-41.907-113.677-41.519-111.977 41.519zM389.224 318.932v119.039l104.718-39.046v-129.239l-104.718 49.246zM629.122 318.932v119.039l-104.718-39.046v-129.239l104.718 49.246z" />
<glyph unicode="&#xe961;" glyph-name="symbol_a" d="M512-128c-282.77 0-512 229.23-512 512s229.23 512 512 512c282.77 0 512-229.23 512-512s-229.23-512-512-512zM512-79.238c255.839 0 463.238 207.399 463.238 463.238s-207.399 463.238-463.238 463.238c-255.839 0-463.238-207.399-463.238-463.238s207.399-463.238 463.238-463.238zM602.5 318.75l-94.5 239.25-94.875-239.25h189.375zM685.75 106.5l-60.375 153.75h-235.125l-61.125-153.75h-73.125l220.125 555h78l216.75-555h-85.125z" />
<glyph unicode="&#xe962;" glyph-name="symbol_fk" d="M256 768c-106.039 0-192-85.961-192-192v-384c0-106.039 85.961-192 192-192h512c106.039 0 192 85.961 192 192v384c0 106.039-85.961 192-192 192h-512zM256 832h512c141.385 0 256-114.615 256-256v-384c0-141.385-114.615-256-256-256h-512c-141.385 0-256 114.615-256 256v384c0 141.385 114.615 256 256 256zM192 576h270.144v-46.080h-215.424v-130.752h188.928v-46.080h-188.928v-188.352h-54.72v411.264zM512 576h54.72v-205.056l208.512 205.056h70.848l-173.376-165.888 180.288-245.376h-69.12l-148.608 207.936-68.544-63.936v-144h-54.72v411.264z" />
<glyph unicode="&#xe963;" glyph-name="symbol_pk" d="M256 768c-106.039 0-192-85.961-192-192v-384c0-106.039 85.961-192 192-192h512c106.039 0 192 85.961 192 192v384c0 106.039-85.961 192-192 192h-512zM256 832h512c141.385 0 256-114.615 256-256v-384c0-141.385-114.615-256-256-256h-512c-141.385 0-256 114.615-256 256v384c0 141.385 114.615 256 256 256zM304.64 400.896h95.232c27.648-0.341 47.872 5.291 60.672 16.896s19.2 28.331 19.2 50.176c0 21.845-6.4 38.485-19.2 49.92s-33.024 17.152-60.672 17.152h-95.232v-134.144zM256 576h160.256c36.864 0 64.768-9.472 83.712-28.416s28.416-45.482 28.416-79.616c0-34.134-9.472-60.757-28.416-79.872s-46.848-28.501-83.712-28.16h-111.616v-149.504h-48.64v365.568zM587.776 576h48.64v-182.272l185.344 182.272h62.976l-154.112-147.456 160.256-218.112h-61.44l-132.096 184.832-60.928-56.832v-128h-48.64v365.568z" />
<glyph unicode="&#xe964;" glyph-name="symbol_s" d="M512-90.919c-265.097 0-480 214.903-480 480s214.903 480 480 480c265.097 0 480-214.903 480-480s-214.903-480-480-480zM512-26.919c229.75 0 416 186.25 416 416s-186.25 416-416 416c-229.75 0-416-186.25-416-416s186.25-416 416-416zM391.936 303.513c0.597-16.725 4.48-30.912 11.648-42.56s16.576-20.907 28.224-27.776c11.648-6.869 24.789-11.797 39.424-14.784s29.717-4.48 45.248-4.48c11.947 0 24.491 0.896 37.632 2.688s25.237 5.077 36.288 9.856c11.051 4.779 20.16 11.797 27.328 21.056s10.752 21.056 10.752 35.392c0 19.712-7.467 34.645-22.4 44.8s-33.6 18.368-56 24.64c-22.4 6.272-46.741 11.947-73.024 17.024s-50.624 12.245-73.024 21.504c-22.4 9.259-41.067 22.251-56 38.976s-22.4 40.021-22.4 69.888c0 23.296 5.227 43.307 15.68 60.032s23.893 30.315 40.32 40.768c16.427 10.453 34.944 18.219 55.552 23.296s41.067 7.616 61.376 7.616c26.283 0 50.475-2.24 72.576-6.72s41.664-12.245 58.688-23.296c17.024-11.051 30.613-25.984 40.768-44.8s16.128-42.261 17.92-70.336h-76.16c-1.195 14.933-5.077 27.328-11.648 37.184s-14.933 17.771-25.088 23.744c-10.155 5.973-21.355 10.304-33.6 12.992s-24.64 4.032-37.184 4.032c-11.349 0-22.848-0.896-34.496-2.688s-22.251-4.928-31.808-9.408c-9.557-4.48-17.323-10.453-23.296-17.92s-8.96-17.173-8.96-29.12c0-13.141 4.629-24.043 13.888-32.704s21.056-15.829 35.392-21.504c14.336-5.675 30.464-10.453 48.384-14.336s35.84-7.915 53.76-12.096c19.115-4.181 37.781-9.259 56-15.232s34.347-13.888 48.384-23.744c14.037-9.856 25.387-22.251 34.048-37.184s12.992-33.451 12.992-55.552c0-28.075-5.824-51.371-17.472-69.888s-26.88-33.451-45.696-44.8c-18.816-11.349-40.021-19.264-63.616-23.744s-47.040-6.72-70.336-6.72c-25.685 0-50.176 2.688-73.472 8.064s-43.904 14.187-61.824 26.432c-17.92 12.245-32.256 28.373-43.008 48.384s-16.725 44.352-17.92 73.024h76.16z" />
</font>
</defs>
</svg>
