<svg width="240" height="272" viewBox="0 0 240 272" fill="none" xmlns="http://www.w3.org/2000/svg">
<g clip-path="url(#clip0_35_1797)">
<path d="M39.8321 28.0612C41.1002 26.3703 46.7254 24.712 51.1476 23.3789C57.0005 21.623 68.4135 16.2579 76.0548 15.2499C83.696 14.2419 90.1017 15.2824 94.8815 15.2499C98.6859 15.2174 101.255 12.5511 101.157 10.2425C100.994 7.54363 95.6294 4.87733 98.5233 1.59322C100.214 -0.325221 104.506 -0.81296 106.62 1.69077C108.246 3.57669 109.286 5.65771 109.546 8.94182C109.839 12.291 106.652 17.2659 111.335 23.4764C115.497 29.0041 126.389 40.4497 121.447 59.1464C118.163 71.5675 106.587 85.2892 84.639 88.0856C66.5276 90.4267 51.8955 91.0445 46.1401 109.253C42.3683 121.219 47.7985 138.03 64.6092 141.899C67.5031 142.582 72.0878 142.387 71.5026 141.867C70.8197 141.249 68.6412 141.184 65.8773 140.013C62.203 138.485 54.5943 132.893 52.8709 124.146C51.3427 116.407 53.066 104.961 65.2595 98.7508C71.9253 95.3366 75.502 95.6293 86.0697 93.6133C95.6619 91.7924 99.6613 92.1826 112.538 82.4278C125.609 72.543 128.503 56.2525 127.983 48.4161C127.56 42.2056 129.706 42.7909 135.299 53.7488C139.526 62.0403 142.94 82.1026 130.096 98.5557C117.48 114.716 99.4988 115.496 86.655 112.668C81.0947 111.432 74.2989 110.522 72.0878 116.277C70.2995 120.894 74.1038 125.804 78.8186 125.706C82.2003 125.641 84.7365 121.902 82.9807 119.431C81.4849 117.317 80.477 119.366 78.8186 117.643C78.0708 116.862 78.1358 114.944 79.7291 114.326C81.2248 113.773 83.4359 114.488 84.7365 115.366C87.1752 117.025 87.5329 119.041 90.1342 119.268C94.3938 119.691 95.857 119.398 96.1171 125.609C96.2797 129.511 95.3367 141.152 87.2728 148.305C77.4204 157.052 69.6166 154.483 62.3331 164.335C58.171 169.961 60.9999 175.228 60.5772 178.675C60.3496 180.723 2.60132 178.707 2.60132 178.707C2.60132 178.707 -3.93438 170.286 3.83693 162.287C12.226 153.703 20.29 159.068 28.7441 161.409C39.1817 164.335 41.4904 161.441 43.3763 157.702C45.5223 153.378 38.2063 152.077 31.4104 144.338C17.9163 128.991 20.0299 110.099 26.0453 98.9784C32.0607 87.8579 41.8806 81.81 50.7249 79.3388C60.7073 76.5424 76.2824 78.2983 75.6646 73.3233C74.8842 67.1453 65.5521 72.9006 56.8379 70.3319C50.4322 68.4459 48.839 62.2354 49.977 60.317C52.9685 55.1469 51.5703 54.2365 52.1231 52.5457C52.7084 50.7573 53.7163 52.2855 54.7894 53.8788C56.3501 56.1549 64.5442 57.0003 70.1369 56.1224C75.6646 55.2445 80.0868 51.6677 78.1358 48.026C75.3394 42.8559 70.2995 39.3767 65.6497 38.6288C60.4797 37.816 56.1225 41.8804 55.5372 43.4412C54.7243 45.6198 56.7078 46.6928 55.7649 47.2456C54.074 48.221 45.7499 41.6203 42.4008 37.2957C39.1492 33.2312 38.2713 30.1097 39.8321 28.0612Z" fill="white"/>
<path d="M77.7456 169.278C78.2659 167.912 76.7051 165.799 76.51 162.84C76.3149 160.239 77.4855 156.532 80.6721 154.483C85.9396 151.102 91.2397 153.735 94.1011 156.792C95.987 158.775 95.5969 159.978 101.58 160.499C104.766 160.791 108.408 159.621 104.929 162.385C102.068 164.628 97.3852 165.376 94.3613 163.978C91.3698 162.58 89.5489 163.88 89.9716 166.417C90.5569 169.928 92.768 170.871 94.4263 172.172C96.3122 173.7 95.7594 176.692 93.4508 176.692C91.0121 176.724 74.364 176.757 72.5431 176.692C69.7142 176.594 67.1129 173.05 69.9418 170.253C72.5106 167.815 76.7702 171.847 77.7456 169.278Z" fill="white"/>
<path d="M113.123 166.189C115.822 166.742 120.927 165.961 122.162 164.856C123.691 163.49 120.276 162.417 114.619 154.971C108.05 146.354 108.213 136.209 111.627 129.186C114.391 123.528 122.065 112.57 135.461 116.57C141.152 118.26 144.403 122.487 145.996 126.292C146.744 128.113 147.427 130.064 146.289 132.47C145.314 134.616 142.485 135.721 139.949 134.258C138.16 133.25 138.03 131.592 137.802 129.966C137.315 126.487 136.209 125.284 134.356 124.341C129.186 121.74 120.732 125.024 125.511 138.518C128.308 146.452 139.461 154.841 153.117 149.801C160.206 147.2 167.522 139.981 167.457 129.186C167.359 118.423 159.718 111.302 154.418 109.091C146.224 105.644 142.452 107.888 137.77 106.164C134.421 104.929 129.381 99.4987 132.86 99.5312C135.494 99.5637 136.372 100.247 142.29 99.3361C145.346 98.8484 152.597 95.4342 163.75 97.4827C169.701 98.5557 191.714 105.026 196.851 133.705C199.778 150.158 198.38 158.32 208.167 164.628C216.946 170.253 230.115 165.669 230.278 155.263C230.408 148.338 226.441 143.818 222.181 143.395C218.637 143.07 216.491 144.566 215.678 146.289C214.573 148.598 215.548 149.898 216.751 151.199C217.564 152.044 218.637 153.865 216.621 155.556C215.32 156.629 212.459 156.206 211.126 153.573C209.24 149.898 209.24 144.988 211.841 141.152C215.45 135.754 222.539 135.006 227.709 136.697C233.627 138.648 241.528 145.931 239.675 159.946C238.082 171.684 227.904 179.13 217.922 179.52C205.923 179.976 194.12 172.139 188.072 167.782C184.17 164.986 182.252 165.636 183.552 169.961C184.268 172.399 188.202 176.724 186.056 176.887C180.886 177.244 165.376 176.822 160.921 176.756C157.345 176.724 156.369 173.44 158.483 171.944C161.116 170.091 164.921 175.456 167.587 172.985C168.725 171.944 164.173 171.651 163.75 168.01C163.425 165.181 165.799 163.945 167.132 162.059C168.823 159.686 164.238 160.726 158.873 166.319C153.508 171.879 158.255 174.936 155.166 177.732C152.077 180.561 107.855 178.772 102.393 179.26C99.8889 179.488 95.1091 173.993 100.182 168.14C104.799 162.872 110.424 165.636 113.123 166.189Z" fill="white"/>
<path d="M165.018 32.516C151.784 27.5411 136.404 26.7932 131.007 26.9883C129.023 27.0533 127.95 27.5411 131.429 28.1264C152.37 31.5731 171.229 40.3523 182.512 49.0016C202.217 64.089 214.833 82.4605 220.003 101.157C221.206 105.449 226.051 108.018 230.603 105.872C234.05 104.246 235.285 100.084 233.562 96.2147C212.459 48.9365 174.578 36.0928 165.018 32.516Z" fill="white"/>
<path d="M111.92 271.053C160.954 273.556 192.267 246.048 203.192 233.952C206.086 230.733 207.647 228.327 199.128 234.342C170.839 254.372 141.802 261.038 111.107 256.356C70.1044 250.08 45.0997 225.953 29.0368 198.25C26.5331 193.827 23.6717 190.316 17.8188 191.974C12.974 193.372 9.91746 198.25 12.6488 204.2C35.1498 253.429 81.7126 269.492 111.92 271.053Z" fill="white"/>
<path d="M64.8043 207.939L62.8208 214.085H60.1545L66.8203 194.575H69.8443L76.5101 214.085H73.8112L71.7302 207.939H64.8043ZM71.1774 205.956L69.259 200.33C68.8363 199.062 68.5436 197.892 68.251 196.786H68.1535C67.8933 197.924 67.5682 199.127 67.178 200.298L65.2595 205.923H71.1774V205.956Z" fill="white"/>
<path d="M79.2089 204.623C79.2089 202.834 79.1764 201.371 79.0789 200.103H81.355L81.485 202.477H81.5175C82.5255 200.786 84.2164 199.778 86.525 199.778C89.9066 199.778 92.4429 202.607 92.4429 206.866C92.4429 211.906 89.3864 214.41 86.1023 214.41C84.1838 214.41 82.5906 213.597 81.7452 212.199H81.7126V219.808H79.2089V204.623ZM81.7126 208.362C81.7126 208.752 81.7452 209.077 81.8427 209.403C82.2979 211.191 83.8262 212.394 85.6471 212.394C88.3459 212.394 89.9066 210.183 89.9066 206.964C89.9066 204.167 88.4109 201.794 85.7446 201.794C84.0213 201.794 82.3955 203.029 81.8752 204.915C81.7777 205.24 81.7126 205.598 81.7126 205.956V208.362Z" fill="white"/>
<path d="M105.547 210.703C105.547 211.939 105.579 213.109 105.742 214.052H103.466L103.238 212.264H103.206C102.425 213.337 100.929 214.345 98.9134 214.345C96.1171 214.345 94.6213 212.296 94.6213 210.313C94.6213 206.931 97.6453 205.078 103.043 205.143V204.818C103.043 203.68 102.718 201.566 99.8564 201.566C98.5558 201.566 97.1576 201.989 96.2146 202.607L95.5968 200.948C96.7349 200.201 98.4907 199.713 100.214 199.713C104.506 199.713 105.547 202.639 105.547 205.436V210.703ZM103.108 206.931C100.312 206.834 97.1901 207.354 97.1901 210.053C97.1901 211.744 98.3281 212.492 99.5963 212.492C101.45 212.492 102.588 211.353 103.01 210.15C103.043 209.858 103.141 209.598 103.141 209.337V206.931H103.108Z" fill="white"/>
<path d="M119.659 213.532C118.976 213.89 117.513 214.378 115.627 214.378C111.4 214.378 108.636 211.484 108.636 207.224C108.636 202.899 111.595 199.745 116.179 199.745C117.675 199.745 119.008 200.136 119.691 200.461L119.106 202.444C118.521 202.087 117.545 201.761 116.147 201.761C112.928 201.761 111.204 204.168 111.204 207.061C111.204 210.313 113.286 212.297 116.114 212.297C117.545 212.297 118.488 211.906 119.203 211.614L119.659 213.532Z" fill="white"/>
<path d="M122.65 193.502H125.154V202.249H125.186C125.609 201.534 126.259 200.883 127.04 200.461C127.788 200.038 128.698 199.778 129.641 199.778C131.527 199.778 134.518 200.916 134.518 205.761V214.085H132.015V206.053C132.015 203.777 131.169 201.891 128.763 201.891C127.072 201.891 125.804 203.062 125.349 204.395C125.219 204.818 125.154 205.175 125.154 205.631V214.085H122.65V193.502Z" fill="white"/>
<path d="M140.144 207.517C140.176 210.963 142.387 212.394 144.956 212.394C146.777 212.394 147.915 212.069 148.858 211.679L149.281 213.5C148.403 213.922 146.842 214.378 144.631 214.378C140.306 214.378 137.738 211.484 137.738 207.289C137.738 203.029 140.241 199.745 144.338 199.745C148.858 199.745 150.094 203.745 150.094 206.314C150.094 206.834 150.061 207.257 149.964 207.484L140.144 207.517ZM147.622 205.696C147.655 204.102 146.94 201.599 144.111 201.599C141.542 201.599 140.404 203.94 140.209 205.696H147.622Z" fill="white"/>
<path d="M159.458 194.543H161.995V203.94H162.092C162.612 203.192 163.133 202.509 163.62 201.859L169.603 194.543H172.692L165.669 202.834L173.278 214.052H170.286L163.88 204.46L162.027 206.606V214.052H159.491L159.458 194.543Z" fill="white"/>
<path d="M175.553 200.07L178.61 208.329C178.935 209.272 179.293 210.345 179.488 211.223H179.52C179.781 210.41 180.073 209.305 180.398 208.329L183.195 200.103H185.894L182.122 210.053C180.301 214.865 179.065 217.336 177.309 218.865C176.041 219.938 174.806 220.36 174.188 220.49L173.538 218.344C174.22 218.149 175.033 217.759 175.781 217.109C176.464 216.556 177.309 215.581 177.895 214.28C178.025 214.02 178.09 213.857 178.09 213.695C178.09 213.565 178.057 213.337 177.895 213.012L172.725 200.135L175.553 200.07Z" fill="white"/>
<path d="M188.267 193.502H190.771V214.052H188.267V193.502Z" fill="white"/>
<path d="M197.989 196.103C197.989 196.981 197.339 197.664 196.364 197.664C195.421 197.664 194.803 196.981 194.835 196.103C194.803 195.225 195.486 194.51 196.396 194.51C197.307 194.51 197.924 195.225 197.989 196.103ZM195.096 214.052V200.07H197.599V214.052H195.096Z" fill="white"/>
<path d="M201.892 203.842C201.892 202.412 201.859 201.209 201.761 200.071H204.005L204.135 202.347H204.233C204.916 201.046 206.574 199.745 208.85 199.745C210.768 199.745 213.76 200.883 213.76 205.663V214.052H211.256V206.021C211.256 203.745 210.411 201.859 208.005 201.859C206.314 201.859 205.046 203.029 204.59 204.46C204.46 204.785 204.395 205.208 204.395 205.631V214.052H201.924L201.892 203.842Z" fill="white"/>
<path d="M217.954 195.063V193.99H222.669V195.063H220.946V199.778H219.677V195.063H217.954Z" fill="white"/>
<path d="M225.14 193.99L226.506 197.957L227.774 193.99H229.562V199.745H228.359V195.648L226.961 199.745H225.986L224.587 195.681V199.745H223.384V193.99H225.14Z" fill="white"/>
</g>
<defs>
<clipPath id="clip0_35_1797">
<rect width="240" height="271.215" fill="white"/>
</clipPath>
</defs>
</svg>
