<svg width="128" height="128" viewBox="0 0 128 128" fill="none" xmlns="http://www.w3.org/2000/svg">
<g clip-path="url(#clip0_3_127)">
<path d="M12.792 86.461L11.263 85.033C7.439 81.457 4.04 78.328 0.871 75.467L0 74.682L0.263 73.537C2.128 65.437 6.263 58.05 12.222 52.173C20.646 43.865 31.847 39.29 43.762 39.29C45.37 39.29 46.996 39.376 48.595 39.547L52.351 39.948L12.792 86.461ZM4.433 73.303C6.931 75.569 9.577 78 12.461 80.688L44.27 43.286C33.254 43.182 22.819 47.332 15.027 55.015C9.888 60.085 6.24 66.387 4.433 73.303Z" fill="#153E7B"/>
<path d="M53.83 127.783L53.05 126.941C49.675 123.3 46.018 119.441 42.18 115.466L40.683 113.915L88.572 74.2781L89.121 77.7351C91.323 91.6201 86.64 105.827 76.59 115.741C70.632 121.618 63.15 125.694 54.951 127.53L53.83 127.783ZM46.548 114.246C49.566 117.385 52.461 120.445 55.184 123.371C62.218 121.59 68.629 117.984 73.785 112.9C82.056 104.74 86.328 93.3801 85.576 81.9411L46.548 114.246Z" fill="#153E7B"/>
<path d="M56.031 105.199L21.61 71.244L61.975 23.782C74.71 8.80704 93.396 0.217041 113.241 0.217041C117.278 0.217041 121.337 0.579041 125.301 1.29304L126.659 1.53804L126.91 2.89504C131.234 26.239 122.495 50.195 104.103 65.416L56.031 105.199ZM27.055 71.006L56.266 99.82L101.557 62.34C118.474 48.34 126.699 26.476 123.221 4.99204C119.929 4.47304 116.578 4.21104 113.242 4.21104C94.57 4.21104 76.993 12.288 65.017 26.37L27.055 71.006Z" fill="#153E7B"/>
<path d="M4.931 123.645H3.591L3.08 122.403C2.908 121.983 2.549 121.108 6.399 110.299C9.085 102.758 11.409 97.986 13.309 96.113C15.643 93.81 18.745 92.541 22.043 92.541C25.341 92.541 28.443 93.811 30.777 96.113C33.12 98.422 34.411 101.498 34.411 104.769C34.411 108.04 33.12 111.115 30.777 113.423C26.722 117.425 9.652 122.392 5.972 123.427L5.757 123.642L4.931 123.645ZM22.043 96.533C19.802 96.533 17.696 97.394 16.113 98.955C13.556 101.476 9.581 112.957 7.799 118.74C15.484 116.435 25.658 112.865 27.973 110.58C29.55 109.025 30.417 106.963 30.417 104.769C30.417 102.574 29.549 100.509 27.973 98.956C26.39 97.395 24.284 96.533 22.043 96.533Z" fill="#153E7B"/>
<path d="M123.905 37.9081L121.558 34.5211C117.822 29.1291 113.506 24.0051 108.73 19.2921C103.954 14.5821 98.758 10.3251 93.289 6.63807L89.782 4.27407L93.836 3.06807C104.032 0.0350666 114.909 -0.577933 125.301 1.29307L126.659 1.53807L126.91 2.89507C128.808 13.1541 128.185 23.8991 125.109 33.9681L123.905 37.9081ZM99.069 5.82307C103.447 9.03307 107.627 12.5961 111.535 16.4501C115.464 20.3281 119.094 24.4751 122.363 28.8171C124.191 20.9981 124.488 12.8601 123.219 4.99207C115.232 3.73507 106.977 4.02307 99.069 5.82307Z" fill="#153E7B"/>
<path d="M91.844 52.3081C87.417 52.3081 83.254 50.6061 80.12 47.5161C76.979 44.4191 75.25 40.2981 75.25 35.9131C75.25 31.5291 76.979 27.4081 80.12 24.3101C83.251 21.2201 87.414 19.5181 91.841 19.5181C96.269 19.5181 100.433 21.2201 103.565 24.3101C106.706 27.4081 108.435 31.5281 108.435 35.9121C108.435 40.2971 106.706 44.4181 103.565 47.5161C100.434 50.6061 96.271 52.3081 91.844 52.3081ZM91.841 23.5121C88.471 23.5121 85.304 24.8051 82.925 27.1531C80.551 29.4951 79.243 32.6061 79.243 35.9131C79.243 39.2211 80.551 42.3321 82.924 44.6731C85.305 47.0211 88.474 48.3151 91.844 48.3151C95.215 48.3151 98.381 47.0221 100.761 44.6731C103.135 42.3311 104.442 39.2201 104.442 35.9121C104.442 32.6051 103.134 29.4941 100.761 27.1531C98.38 24.8051 95.212 23.5121 91.841 23.5121Z" fill="#153E7B"/>
<path d="M69.159 93.2539L33.6736 58.2471L30.8693 61.0897L66.3547 96.0965L69.159 93.2539Z" fill="#153E7B"/>
</g>
<defs>
<clipPath id="clip0_3_127">
<rect width="128" height="128" fill="white"/>
</clipPath>
</defs>
</svg>
