<svg width="128" height="128" viewBox="0 0 128 128" fill="none" xmlns="http://www.w3.org/2000/svg">
<g clip-path="url(#clip0_3_145)">
<path d="M64.01 107.915C52.273 107.915 41.231 103.344 32.92 95.044C15.809 77.913 15.814 50.052 32.93 32.936C41.233 24.648 52.267 20.085 64.002 20.085C75.737 20.085 86.767 24.648 95.057 32.935C103.354 41.233 107.924 52.264 107.926 63.997C107.927 75.732 103.357 86.762 95.056 95.054C86.768 103.347 75.74 107.915 64.01 107.915ZM64.002 24.085C53.335 24.085 43.303 28.233 35.757 35.765C20.201 51.321 20.197 76.645 35.748 92.215C43.302 99.758 53.34 103.914 64.009 103.914C74.672 103.914 84.693 99.762 92.228 92.224C99.773 84.687 103.926 74.663 103.925 63.997C103.923 53.333 99.769 43.306 92.228 35.764C84.693 28.233 74.669 24.085 64.002 24.085Z" fill="#153E7B"/>
<path d="M64.017 121.842C64.015 121.842 64.015 121.842 64.013 121.842C48.552 121.841 34.009 115.821 23.064 104.89C0.525005 82.324 0.532005 45.628 23.076 23.087C34.011 12.169 48.545 6.15796 64.002 6.15796C79.46 6.15796 93.986 12.17 104.906 23.087C115.834 34.016 121.852 48.545 121.855 63.998C121.857 79.456 115.838 93.982 104.906 104.902C93.989 115.825 79.467 121.842 64.017 121.842ZM64.002 10.158C49.612 10.158 36.082 15.755 25.903 25.917C4.91901 46.899 4.91301 81.058 25.891 102.062C36.079 112.237 49.619 117.841 64.013 117.842H64.017C78.399 117.843 91.915 112.242 102.079 102.072C112.256 91.907 117.858 78.385 117.856 63.998C117.853 49.613 112.251 36.088 102.079 25.915C91.914 15.754 78.392 10.158 64.002 10.158Z" fill="#153E7B"/>
<path d="M64.007 92.985H64.005C56.258 92.984 48.972 89.968 43.488 84.492C32.196 73.181 32.199 54.791 43.492 43.496C48.973 38.027 56.256 35.016 64.001 35.016C71.746 35.016 79.026 38.027 84.499 43.496C89.974 48.974 92.989 56.254 92.991 63.996C92.992 71.741 89.976 79.021 84.499 84.495C79.027 89.97 71.749 92.985 64.007 92.985ZM64.001 39.016C57.322 39.016 51.043 41.612 46.319 46.326C36.586 56.061 36.584 71.915 46.317 81.664C51.044 86.384 57.326 88.984 64.005 88.985H64.007C70.681 88.985 76.954 86.385 81.67 81.666C86.393 76.947 88.992 70.673 88.991 63.997C88.989 57.322 86.389 51.046 81.671 46.325C76.954 41.611 70.679 39.016 64.001 39.016Z" fill="#153E7B"/>
<path d="M66 0H62V44.762H66V0Z" fill="#153E7B"/>
<path d="M66 83.236H62V128H66V83.236Z" fill="#153E7B"/>
<path d="M128 62H83.236V66H128V62Z" fill="#153E7B"/>
<path d="M44.762 62H0V66H44.762V62Z" fill="#153E7B"/>
<path d="M65.95 67.087L59.7 64.652C57.125 63.019 56.584 61.194 56.584 59.951V57.319C56.584 54.085 59.215 51.454 62.449 51.454H65.554C68.785 51.454 71.414 54.085 71.414 57.319V58.548H67.414V57.319C67.414 56.291 66.579 55.454 65.554 55.454H62.449C61.421 55.454 60.584 56.29 60.584 57.319V59.951C60.584 60.179 60.876 60.628 61.685 61.172L67.38 63.351L65.95 67.087Z" fill="#153E7B"/>
<path d="M65.553 76.995H62.449C59.215 76.995 56.584 74.365 56.584 71.132V69.903H60.584V71.132C60.584 72.159 61.421 72.995 62.449 72.995H65.553C66.579 72.995 67.414 72.159 67.414 71.132V68.5C67.414 68.292 67.1 67.788 66.246 67.212L60.823 65.124L62.26 61.391L68.237 63.734C70.863 65.405 71.415 67.248 71.415 68.5V71.132C71.414 74.365 68.785 76.995 65.553 76.995Z" fill="#153E7B"/>
<path d="M66.234 48.162H62.234V53.935H66.234V48.162Z" fill="#153E7B"/>
<path d="M66.234 74.063H62.234V79.837H66.234V74.063Z" fill="#153E7B"/>
</g>
<defs>
<clipPath id="clip0_3_145">
<rect width="128" height="128" fill="white"/>
</clipPath>
</defs>
</svg>
