<svg width="128" height="128" viewBox="0 0 128 128" fill="none" xmlns="http://www.w3.org/2000/svg">
<g clip-path="url(#clip0_3_173)">
<path d="M106.439 82.375C106.105 82.375 105.767 82.292 105.456 82.115L105.028 81.873C104.067 81.329 103.729 80.108 104.273 79.147C104.818 78.184 106.036 77.847 106.999 78.392L107.427 78.634C108.388 79.178 108.726 80.399 108.182 81.36C107.813 82.011 107.137 82.375 106.439 82.375Z" fill="#153E7B"/>
<path d="M119.214 89.598C118.881 89.598 118.542 89.515 118.232 89.339L117.517 88.935C116.555 88.391 116.217 87.17 116.76 86.209C117.304 85.248 118.525 84.907 119.486 85.452L120.201 85.856C121.163 86.4 121.501 87.621 120.958 88.582C120.589 89.232 119.911 89.598 119.214 89.598ZM112.781 85.961C112.448 85.961 112.109 85.878 111.799 85.702L111.084 85.298C110.122 84.754 109.784 83.533 110.327 82.572C110.871 81.611 112.092 81.271 113.053 81.815L113.768 82.219C114.73 82.763 115.068 83.984 114.525 84.945C114.156 85.596 113.479 85.961 112.781 85.961Z" fill="#153E7B"/>
<path d="M124.73 93.201C124.035 93.201 123.359 92.839 122.99 92.19C122.769 91.801 122.692 91.37 122.743 90.958C122.692 90.548 122.768 90.118 122.987 89.731C123.53 88.769 124.75 88.429 125.712 88.973L126.141 89.215C126.768 89.569 127.157 90.233 127.158 90.952C127.159 91.673 126.773 92.338 126.147 92.694L125.718 92.938C125.406 93.117 125.065 93.201 124.73 93.201Z" fill="#153E7B"/>
<path d="M70.2891 124.293C69.5941 124.293 68.9191 123.931 68.5501 123.284C68.0031 122.324 68.3371 121.103 69.2961 120.555L70.1621 120.061C71.1201 119.512 72.3421 119.848 72.8911 120.807C73.4381 121.767 73.1041 122.988 72.1451 123.536L71.2791 124.03C70.9661 124.209 70.6251 124.293 70.2891 124.293ZM78.0831 119.843C77.3891 119.843 76.7151 119.482 76.3451 118.836C75.7971 117.877 76.1291 116.655 77.0881 116.107L77.9531 115.612C78.9121 115.065 80.1341 115.397 80.6821 116.355C81.2301 117.314 80.8981 118.536 79.9391 119.084L79.0741 119.579C78.7611 119.758 78.4201 119.843 78.0831 119.843ZM85.8761 115.392C85.1811 115.392 84.5061 115.03 84.1371 114.383C83.5901 113.423 83.9241 112.202 84.8831 111.654L85.7491 111.16C86.7071 110.61 87.9301 110.947 88.4781 111.906C89.0251 112.866 88.6911 114.087 87.7321 114.635L86.8661 115.129C86.5531 115.308 86.2121 115.392 85.8761 115.392ZM93.6691 110.94C92.9741 110.94 92.2991 110.578 91.9301 109.931C91.3831 108.971 91.7171 107.75 92.6761 107.202L93.5421 106.708C94.5001 106.159 95.7231 106.495 96.2711 107.454C96.8181 108.414 96.4841 109.635 95.5251 110.183L94.6591 110.677C94.3461 110.856 94.0051 110.94 93.6691 110.94ZM101.463 106.49C100.769 106.49 100.095 106.129 99.7251 105.483C99.1771 104.524 99.5091 103.302 100.468 102.754L101.333 102.259C102.293 101.712 103.513 102.043 104.062 103.002C104.61 103.961 104.278 105.183 103.319 105.731L102.454 106.226C102.141 106.405 101.8 106.49 101.463 106.49ZM109.256 102.039C108.561 102.039 107.886 101.677 107.517 101.03C106.97 100.07 107.304 98.849 108.263 98.301L109.129 97.807C110.087 97.257 111.31 97.594 111.858 98.553C112.405 99.513 112.071 100.734 111.112 101.282L110.246 101.776C109.933 101.955 109.592 102.039 109.256 102.039ZM117.049 97.588C116.354 97.588 115.679 97.226 115.31 96.579C114.763 95.619 115.097 94.398 116.056 93.85L116.922 93.356C117.88 92.807 119.103 93.143 119.651 94.102C120.198 95.062 119.864 96.283 118.905 96.831L118.039 97.325C117.726 97.504 117.385 97.588 117.049 97.588Z" fill="#153E7B"/>
<path d="M63.798 128C63.458 128 63.118 127.913 62.813 127.74L62.385 127.498C61.424 126.954 61.0861 125.733 61.6301 124.772C62.0721 123.991 62.962 123.624 63.794 123.802C64.628 123.619 65.519 123.984 65.964 124.765C66.511 125.724 66.1761 126.946 65.2171 127.493L64.7881 127.737C64.4811 127.912 64.14 128 63.798 128Z" fill="#153E7B"/>
<path d="M56.596 123.93C56.263 123.93 55.925 123.847 55.614 123.671L54.754 123.185C53.793 122.641 53.454 121.421 53.997 120.459C54.54 119.498 55.761 119.158 56.723 119.702L57.583 120.188C58.544 120.732 58.883 121.952 58.34 122.914C57.972 123.564 57.294 123.93 56.596 123.93ZM48.855 119.553C48.522 119.553 48.184 119.47 47.873 119.294L47.013 118.808C46.051 118.264 45.713 117.043 46.257 116.082C46.8 115.12 48.02 114.781 48.982 115.325L49.842 115.811C50.804 116.355 51.142 117.576 50.598 118.537C50.23 119.188 49.553 119.553 48.855 119.553ZM41.114 115.175C40.781 115.175 40.443 115.092 40.132 114.916L39.272 114.43C38.311 113.886 37.972 112.666 38.515 111.704C39.057 110.742 40.278 110.402 41.241 110.947L42.101 111.433C43.062 111.977 43.401 113.197 42.858 114.159C42.49 114.81 41.812 115.175 41.114 115.175ZM33.373 110.798C33.04 110.798 32.702 110.715 32.391 110.539L31.531 110.053C30.57 109.509 30.231 108.288 30.775 107.327C31.318 106.365 32.537 106.025 33.5 106.57L34.36 107.056C35.322 107.6 35.66 108.821 35.116 109.782C34.748 110.433 34.071 110.798 33.373 110.798ZM25.632 106.421C25.298 106.421 24.96 106.338 24.648 106.161L23.788 105.674C22.827 105.13 22.489 103.909 23.034 102.948C23.578 101.986 24.799 101.647 25.76 102.193L26.62 102.68C27.581 103.224 27.919 104.445 27.374 105.406C27.006 106.057 26.33 106.421 25.632 106.421ZM17.891 102.043C17.558 102.043 17.22 101.96 16.909 101.784L16.049 101.298C15.087 100.754 14.749 99.533 15.293 98.572C15.836 97.611 17.056 97.271 18.018 97.815L18.878 98.301C19.84 98.845 20.178 100.066 19.634 101.027C19.266 101.678 18.589 102.043 17.891 102.043ZM10.15 97.666C9.81699 97.666 9.47899 97.583 9.16799 97.407L8.30799 96.921C7.34699 96.377 7.00799 95.157 7.55099 94.195C8.09399 93.233 9.31499 92.894 10.277 93.438L11.137 93.924C12.098 94.468 12.437 95.688 11.894 96.65C11.526 97.301 10.848 97.666 10.15 97.666Z" fill="#153E7B"/>
<path d="M3.26903 93.7731C2.93603 93.7731 2.60003 93.6901 2.29003 93.5151L1.86203 93.2741C1.23503 92.9201 0.845025 92.2571 0.843025 91.5371C0.841025 90.8171 1.22703 90.1511 1.85203 89.7951L2.28003 89.5511C3.24103 89.0021 4.46203 89.3391 5.00803 90.2981C5.23003 90.6871 5.30703 91.1181 5.25603 91.5301C5.30603 91.9391 5.23103 92.3681 5.01303 92.7551C4.64603 93.4071 3.96803 93.7731 3.26903 93.7731Z" fill="#153E7B"/>
<path d="M9.08502 89.969C8.39102 89.969 7.71602 89.608 7.34702 88.961C6.79902 88.002 7.13202 86.78 8.09102 86.232L8.82902 85.81C9.78802 85.263 11.01 85.594 11.558 86.554C12.106 87.513 11.773 88.735 10.814 89.283L10.076 89.705C9.76202 89.884 9.42102 89.969 9.08502 89.969ZM15.729 86.173C15.035 86.173 14.36 85.812 13.991 85.165C13.443 84.206 13.776 82.984 14.735 82.436L15.473 82.014C16.433 81.466 17.654 81.799 18.202 82.758C18.75 83.717 18.417 84.939 17.458 85.487L16.72 85.909C16.406 86.088 16.065 86.173 15.729 86.173Z" fill="#153E7B"/>
<path d="M22.162 82.499C21.467 82.499 20.792 82.137 20.423 81.49C19.875 80.531 20.209 79.309 21.169 78.761L21.597 78.517C22.555 77.971 23.778 78.304 24.325 79.263C24.873 80.222 24.539 81.444 23.579 81.992L23.151 82.236C22.839 82.414 22.498 82.499 22.162 82.499Z" fill="#153E7B"/>
<path d="M63.8921 67.395C63.5531 67.395 63.2131 67.309 62.9081 67.136L21.9971 44.001C21.3711 43.647 20.9831 42.984 20.9811 42.265C20.9791 41.546 21.3641 40.881 21.9891 40.524L41.6271 29.306C42.5871 28.757 43.8081 29.092 44.3561 30.051C44.9041 31.01 44.5701 32.232 43.6111 32.78L27.0281 42.252L63.8861 63.094L101.021 41.884L85.8411 33.301C84.8791 32.757 84.5411 31.537 85.0841 30.575C85.6281 29.615 86.8461 29.274 87.8101 29.818L106.053 40.133C106.679 40.487 107.067 41.151 107.069 41.87C107.071 42.589 106.685 43.254 106.061 43.611L64.8841 67.131C64.5771 67.307 64.2341 67.395 63.8921 67.395Z" fill="#153E7B"/>
<path d="M64.3651 114.415C64.0211 114.415 63.6781 114.326 63.3701 114.149C62.7551 113.796 62.3721 113.144 62.3651 112.435L61.8921 65.4139C61.8851 64.6879 62.2701 64.0169 62.9001 63.6569L104.078 40.1369C104.695 39.7849 105.452 39.7859 106.065 40.1389C106.68 40.4919 107.062 41.1439 107.07 41.8529L107.549 88.8649C107.556 89.5909 107.171 90.2619 106.541 90.6219L65.3561 114.15C65.0501 114.327 64.7081 114.415 64.3651 114.415ZM65.9041 66.5489L66.3311 108.988L103.538 87.7319L103.105 45.2999L65.9041 66.5489Z" fill="#153E7B"/>
<path d="M64.3651 114.415C64.0261 114.415 63.6861 114.329 63.3811 114.156L22.4651 91.019C21.8431 90.667 21.4571 90.011 21.4491 89.297L20.9811 42.281C20.9741 41.566 21.3491 40.902 21.9651 40.538C22.5801 40.175 23.3431 40.167 23.9651 40.52L64.8771 63.654C65.4981 64.005 65.8851 64.661 65.8921 65.374L66.3661 112.395C66.3731 113.11 65.9981 113.775 65.3831 114.138C65.0681 114.322 64.7171 114.415 64.3651 114.415ZM25.4381 88.104L62.3311 108.966L61.9041 66.567L25.0161 45.709L25.4381 88.104Z" fill="#153E7B"/>
<path d="M64.067 28.585C63.728 28.585 63.388 28.499 63.083 28.326L41.527 16.135C40.901 15.781 40.513 15.118 40.511 14.399C40.509 13.68 40.894 13.015 41.519 12.658L63.216 0.263002C63.829 -0.0869978 64.578 -0.0869978 65.193 0.259002L86.755 12.449C87.381 12.803 87.769 13.467 87.771 14.186C87.773 14.905 87.387 15.57 86.763 15.927L65.059 28.322C64.752 28.497 64.409 28.585 64.067 28.585ZM46.559 14.385L64.062 24.284L81.722 14.198L64.213 4.3L46.559 14.385Z" fill="#153E7B"/>
<path d="M64.318 53.363C63.974 53.363 63.631 53.275 63.323 53.098C62.708 52.745 62.325 52.093 62.318 51.384L62.067 26.6061C62.06 25.8811 62.445 25.2091 63.075 24.8491L84.777 12.4541C85.394 12.1021 86.151 12.103 86.764 12.456C87.379 12.809 87.762 13.461 87.769 14.171L88.019 38.945C88.026 39.67 87.641 40.342 87.011 40.701L65.31 53.099C65.003 53.275 64.66 53.363 64.318 53.363ZM66.079 27.739L66.283 47.9361L84.008 37.8101L83.804 17.616L66.079 27.739Z" fill="#153E7B"/>
<path d="M64.318 53.363C63.979 53.363 63.639 53.277 63.334 53.104L41.772 40.912C41.15 40.561 40.764 39.905 40.756 39.191L40.51 14.414C40.503 13.699 40.878 13.035 41.494 12.671C42.108 12.308 42.872 12.3 43.494 12.653L65.05 24.844C65.671 25.195 66.058 25.851 66.065 26.565L66.316 51.343C66.324 52.058 65.949 52.722 65.333 53.086C65.021 53.27 64.67 53.363 64.318 53.363ZM44.745 37.998L62.283 47.915L62.079 27.759L44.546 17.843L44.745 37.998Z" fill="#153E7B"/>
</g>
<defs>
<clipPath id="clip0_3_173">
<rect width="128" height="128" fill="white"/>
</clipPath>
</defs>
</svg>
