<svg width="128" height="128" viewBox="0 0 128 128" fill="none" xmlns="http://www.w3.org/2000/svg">
<path d="M94.449 112.897L50.003 95.0111L51.497 91.2981L92.091 107.636L121.108 27.0241L10.402 74.7591L28.767 82.1501L27.272 85.8621L0 74.8861L128 19.6951L94.449 112.897Z" fill="#153E7B"/>
<path d="M36.319 111.87L25.573 83.1801L72.307 53.8191L74.436 57.2081L30.465 84.8331L37.688 104.116L48.611 91.3791L123.19 21.8961L125.918 24.8241L51.422 94.2291L36.319 111.87Z" fill="#153E7B"/>
<path d="M57.514 39.5701C57.191 30.7891 50.178 23.9091 41.548 23.9091C37.463 23.9091 33.579 25.4761 30.612 28.3211L27.842 25.4321C31.558 21.8691 36.425 19.9071 41.547 19.9071C52.34 19.9071 61.11 28.4791 61.512 39.4241L57.514 39.5701Z" fill="#153E7B"/>
<path d="M61.589 41.4981H1.86401L1.62101 39.7761C1.53601 39.1781 1.49701 38.6711 1.49701 38.1781C1.49701 32.5081 5.67101 27.8071 11.07 27.0611C13.427 19.9501 19.985 15.1021 27.493 15.1021C31.957 15.1021 36.275 16.8841 39.501 20.0281C40.218 19.9471 40.894 19.9071 41.548 19.9071C52.341 19.9071 61.111 28.479 61.513 39.424L61.589 41.4981ZM5.53001 37.496H57.31C56.055 29.729 49.486 23.9091 41.548 23.9091C40.796 23.9091 39.988 23.979 39.08 24.123L38.012 24.293L37.285 23.4921C34.717 20.6621 31.24 19.1041 27.493 19.1041C21.347 19.1041 16.024 23.3511 14.551 29.4311L14.181 30.9611L12.493 30.9591C8.85401 31.0041 5.86601 33.862 5.53001 37.496Z" fill="#153E7B"/>
</svg>
