<svg width="128" height="128" viewBox="0 0 128 128" fill="none" xmlns="http://www.w3.org/2000/svg">
<g clip-path="url(#clip0_3_223)">
<path d="M65.823 127.936H0.679993V62.0589H25.46C25.924 61.9719 26.264 61.5639 26.264 61.0809C26.264 60.6729 26.018 60.4129 25.87 60.2939C22.925 57.9809 21.224 54.4829 21.224 50.7149C21.224 44.0189 26.619 38.5699 33.249 38.5699C39.882 38.5699 45.277 44.0179 45.277 50.7149C45.277 54.4869 43.573 57.9859 40.601 60.3119C40.486 60.4069 40.238 60.6699 40.238 61.0799C40.238 61.5629 40.577 61.9709 41.039 62.0579H65.823V86.6349C66.168 87.2069 66.624 87.7689 66.895 87.9399C67.226 87.8959 67.439 87.6689 67.521 87.5649C69.803 84.5779 73.275 82.8519 77.031 82.8519C83.658 82.8519 89.05 88.2999 89.05 94.9969C89.05 101.692 83.658 107.141 77.031 107.141C73.275 107.141 69.802 105.412 67.505 102.399C67.423 102.296 67.213 102.09 66.895 102.05C66.625 102.219 66.169 102.776 65.824 103.348L65.823 127.936ZM4.67999 123.936H61.824V102.363L62.034 101.942C62.489 101.027 64.176 98.0439 66.786 98.0439C68.293 98.0439 69.706 98.7359 70.663 99.9439C72.222 101.987 74.534 103.141 77.032 103.141C81.454 103.141 85.051 99.4879 85.051 94.9969C85.051 90.5059 81.454 86.8519 77.032 86.8519C74.533 86.8519 72.219 88.0039 70.684 90.0129C69.714 91.2489 68.299 91.9469 66.786 91.9469C64.175 91.9469 62.487 88.9549 62.033 88.0379L61.824 87.6179V66.0579L40.689 66.0469C38.152 65.7729 36.239 63.6379 36.239 61.0799C36.239 59.5739 36.92 58.1559 38.105 57.1879C40.133 55.5999 41.278 53.2499 41.278 50.7149C41.278 46.2239 37.676 42.5699 33.25 42.5699C28.825 42.5699 25.225 46.2239 25.225 50.7149C25.225 53.2469 26.37 55.5979 28.364 57.1649C29.58 58.1459 30.265 59.5669 30.265 61.0809C30.265 63.6389 28.351 65.7729 25.813 66.0479L25.598 66.0589H4.67999V123.936Z" fill="#153E7B"/>
<path d="M26.832 65.88H0.679993V0H65.824V25.067C65.911 25.542 66.303 25.89 66.765 25.89C67.149 25.89 67.396 25.649 67.51 25.506C69.79 22.521 73.26 20.794 77.007 20.794C80.223 20.794 83.245 22.06 85.519 24.358C87.786 26.651 89.034 29.697 89.033 32.936C89.033 39.634 83.637 45.084 77.006 45.084C73.262 45.084 69.792 43.357 67.486 40.346C67.413 40.253 67.159 39.985 66.763 39.985C66.3 39.985 65.909 40.334 65.821 40.808V65.877H39.663L39.284 65.714C39.126 65.646 38.977 65.57 38.829 65.488L38.563 65.331C38.523 65.307 38.483 65.281 38.444 65.255L38.229 65.193L37.924 64.852C37.666 64.623 37.429 64.36 37.214 64.071L37.125 63.953C37.037 63.83 36.957 63.695 36.885 63.556C36.795 63.405 36.717 63.247 36.653 63.089C36.615 63.006 36.561 62.877 36.518 62.743C36.459 62.562 36.414 62.414 36.379 62.263C36.353 62.156 36.332 62.062 36.317 61.97C36.262 61.669 36.236 61.388 36.236 61.113C36.236 59.606 36.918 58.188 38.105 57.222C40.13 55.636 41.275 53.285 41.275 50.751C41.275 46.26 37.673 42.605 33.247 42.605C28.822 42.605 25.222 46.259 25.222 50.751C25.222 53.285 26.366 55.634 28.359 57.196C29.577 58.18 30.262 59.601 30.262 61.113C30.262 61.397 30.232 61.669 30.19 61.941L30.093 62.382C30.057 62.505 30.021 62.624 29.98 62.749C29.918 62.92 29.875 63.034 29.825 63.143C29.762 63.289 29.686 63.434 29.608 63.571C29.559 63.662 29.505 63.756 29.447 63.846L29.236 64.134C29.075 64.36 28.841 64.618 28.58 64.85L28.312 65.152L28.104 65.223C28.049 65.261 27.994 65.299 27.938 65.335L27.5 65.58C27.405 65.628 27.308 65.674 27.207 65.718L26.832 65.88ZM4.67999 61.88H25.869L26.189 61.477L26.232 61.335C26.239 61.305 26.246 61.276 26.253 61.247C26.249 61.253 26.263 61.218 26.263 61.115C26.263 60.707 26.016 60.447 25.869 60.327C22.925 58.02 21.223 54.524 21.223 50.752C21.223 44.055 26.618 38.606 33.248 38.606C39.881 38.606 45.276 44.055 45.276 50.752C45.276 54.524 43.572 58.022 40.601 60.35C40.483 60.446 40.237 60.706 40.237 61.114C40.237 61.17 40.247 61.222 40.257 61.275L40.445 61.673L40.63 61.879H61.821L61.833 40.46C62.108 37.91 64.228 35.987 66.763 35.987C68.274 35.987 69.689 36.682 70.644 37.894C72.205 39.931 74.516 41.086 77.005 41.086C81.432 41.086 85.032 37.43 85.032 32.937C85.033 30.758 84.195 28.711 82.674 27.172C81.158 25.639 79.146 24.795 77.007 24.795C74.516 24.795 72.205 25.95 70.666 27.963C69.688 29.198 68.274 29.891 66.765 29.891C64.23 29.891 62.111 27.968 61.835 25.417L61.823 25.203V4H4.67999V61.88Z" fill="#153E7B"/>
<path d="M127.25 128L62.053 127.934L62.091 102.511C62.365 99.958 64.487 98.029 67.024 98.022C68.56 98.032 69.973 98.733 70.918 99.946C72.472 101.981 74.786 103.139 77.277 103.139C81.713 103.139 85.319 99.483 85.324 94.992C85.326 90.495 81.724 86.833 77.298 86.83C74.781 86.83 72.48 87.979 70.952 89.983C69.975 91.222 68.557 91.918 67.041 91.918C64.488 91.911 62.37 89.974 62.108 87.411L62.098 87.206L62.126 61.99L87.833 62.025L88.103 62.102C90.235 62.714 91.718 64.694 91.708 66.917C91.718 68.421 91.031 69.85 89.825 70.814C87.805 72.386 86.659 74.736 86.659 77.278C86.653 81.776 90.253 85.44 94.684 85.448C99.115 85.448 102.719 81.795 102.724 77.303C102.727 74.759 101.586 72.405 99.594 70.841C98.372 69.852 97.691 68.427 97.697 66.914C97.7 64.662 99.154 62.732 101.314 62.116L101.585 62.039L127.32 62.068L127.25 128ZM66.057 123.938L123.254 123.997L123.317 66.064L102.222 66.041C101.94 66.192 101.699 66.496 101.698 66.927C101.696 67.337 101.942 67.597 102.09 67.716C105.031 70.024 106.731 73.528 106.726 77.309C106.719 84.003 101.32 89.45 94.691 89.45C88.043 89.438 82.651 83.977 82.661 77.277C82.661 73.496 84.37 69.996 87.349 67.676C87.472 67.577 87.713 67.324 87.71 66.922C87.712 66.533 87.506 66.194 87.19 66.025L66.123 65.997L66.098 87.08C66.181 87.561 66.577 87.916 67.045 87.917C67.429 87.917 67.677 87.676 67.79 87.532C70.061 84.553 73.521 82.829 77.268 82.829C83.932 82.834 89.326 88.291 89.324 94.994C89.317 101.69 83.916 107.138 77.285 107.139C73.528 107.139 70.056 105.408 67.75 102.388C67.651 102.262 67.409 102.024 67.017 102.022C66.565 102.023 66.167 102.378 66.08 102.861L66.057 123.938Z" fill="#153E7B"/>
<path d="M65.102 0.000976562H63.154V4.00098H65.102V0.000976562Z" fill="#153E7B"/>
<path d="M120.869 4.00098H116.878V0.000976562H120.869V4.00098ZM112.887 4.00098H108.896V0.000976562H112.887V4.00098ZM104.904 4.00098H100.913V0.000976562H104.904V4.00098ZM96.922 4.00098H92.932V0.000976562H96.922V4.00098ZM88.94 4.00098H84.95V0.000976562H88.94V4.00098ZM80.959 4.00098H76.968V0.000976562H80.959V4.00098ZM72.977 4.00098H68.986V0.000976562H72.977V4.00098Z" fill="#153E7B"/>
<path d="M125.318 4.00098H123.372V3.94698H123.318V2.00098H123.372V0.000976562H127.318V3.94698H125.318V4.00098Z" fill="#153E7B"/>
<path d="M127.318 60.431H123.318V56.389H127.318V60.431ZM127.318 52.346H123.318V48.304H127.318V52.346ZM127.318 44.262H123.318V40.22H127.318V44.262ZM127.318 36.177H123.318V32.135H127.318V36.177ZM127.318 28.092H123.318V24.05H127.318V28.092ZM127.318 20.008H123.318V15.966H127.318V20.008ZM127.318 11.923H123.318V7.88098H127.318V11.923Z" fill="#153E7B"/>
<path d="M127.318 62.9669H123.318V64.9149H127.318V62.9669Z" fill="#153E7B"/>
</g>
<defs>
<clipPath id="clip0_3_223">
<rect width="128" height="128" fill="white"/>
</clipPath>
</defs>
</svg>
