<svg width="128" height="128" viewBox="0 0 128 128" fill="none" xmlns="http://www.w3.org/2000/svg">
<g clip-path="url(#clip0_3_243)">
<path d="M125.411 127.056H0V0.94397H4.008V123.047H125.411V127.056Z" fill="#153E7B"/>
<path d="M17.023 115.879H13.015V123.397H17.023V115.879Z" fill="#153E7B"/>
<path d="M34.079 115.879H30.071V123.397H34.079V115.879Z" fill="#153E7B"/>
<path d="M51.134 115.879H47.126V123.397H51.134V115.879Z" fill="#153E7B"/>
<path d="M68.192 115.879H64.184V123.397H68.192V115.879Z" fill="#153E7B"/>
<path d="M85.247 115.879H81.239V123.397H85.247V115.879Z" fill="#153E7B"/>
<path d="M102.301 115.879H98.293V123.397H102.301V115.879Z" fill="#153E7B"/>
<path d="M119.36 115.879H115.351V123.397H119.36V115.879Z" fill="#153E7B"/>
<path d="M9.21394 5.67297H1.74194V9.68097H9.21394V5.67297Z" fill="#153E7B"/>
<path d="M9.21394 22.823H1.74194V26.831H9.21394V22.823Z" fill="#153E7B"/>
<path d="M9.21394 39.9769H1.74194V43.9849H9.21394V39.9769Z" fill="#153E7B"/>
<path d="M9.21394 57.129H1.74194V61.137H9.21394V57.129Z" fill="#153E7B"/>
<path d="M9.21394 74.281H1.74194V78.29H9.21394V74.281Z" fill="#153E7B"/>
<path d="M9.21394 91.433H1.74194V95.442H9.21394V91.433Z" fill="#153E7B"/>
<path d="M9.21394 108.586H1.74194V112.595H9.21394V108.586Z" fill="#153E7B"/>
<path d="M77.015 79.782L61.112 63.789L55.853 69.079L53.01 66.253L61.111 58.103L77.015 74.097L124.575 26.267L127.417 29.093L77.015 79.782Z" fill="#153E7B"/>
<path d="M45.1961 79.7991L42.354 76.9727L12.6122 106.879L15.4543 109.705L45.1961 79.7991Z" fill="#153E7B"/>
<path d="M128 48.153H123.991V29.684H105.64V25.676H128V48.153Z" fill="#153E7B"/>
<path d="M128 78.8579H123.991V60.3919H105.64V56.3829H128V78.8579Z" fill="#153E7B"/>
<path d="M80.196 107.29L34.712 61.549L18.003 78.353L15.162 75.526L34.712 55.865L80.196 101.605L124.575 56.975L127.417 59.8L80.196 107.29Z" fill="#153E7B"/>
</g>
<defs>
<clipPath id="clip0_3_243">
<rect width="128" height="128" fill="white"/>
</clipPath>
</defs>
</svg>
