<svg width="128" height="128" viewBox="0 0 128 128" fill="none" xmlns="http://www.w3.org/2000/svg">
<g clip-path="url(#clip0_3_287)">
<path d="M103.634 40.2987C116.838 40.2987 127.58 50.9307 127.58 63.9987C127.58 77.0677 116.838 87.6997 103.634 87.6997C90.4296 87.6997 79.6866 77.0677 79.6866 63.9987C79.6866 50.9307 90.4296 40.2987 103.634 40.2987ZM103.634 83.6997C114.633 83.6997 123.58 74.8617 123.58 63.9987C123.58 53.1367 114.632 44.2987 103.634 44.2987C92.6356 44.2987 83.6866 53.1367 83.6866 63.9987C83.6866 74.8617 92.6346 83.6997 103.634 83.6997Z" fill="#153E7B"/>
<path d="M103.635 50.4836C111.159 50.4836 117.28 56.5466 117.28 63.9986C117.28 71.4506 111.159 77.5126 103.635 77.5126C96.1108 77.5126 89.9898 71.4496 89.9898 63.9986C89.9898 56.5466 96.1108 50.4836 103.635 50.4836ZM103.635 73.5126C108.953 73.5126 113.28 69.2446 113.28 63.9986C113.28 58.7526 108.953 54.4836 103.635 54.4836C98.3168 54.4836 93.9898 58.7526 93.9898 63.9986C93.9898 69.2446 98.3168 73.5126 103.635 73.5126Z" fill="#153E7B"/>
<path d="M24.3596 80.5986C37.5636 80.5986 48.3066 91.2306 48.3066 104.299C48.3076 117.368 37.5636 128 24.3596 128C11.1576 128 0.417603 117.368 0.417603 104.299C0.417603 91.2306 11.1576 80.5986 24.3596 80.5986ZM24.3596 124C35.3586 124 44.3076 115.162 44.3076 104.299C44.3076 93.4366 35.3596 84.5986 24.3606 84.5986C13.3646 84.5986 4.4186 93.4356 4.4186 104.299C4.4176 115.162 13.3636 124 24.3596 124Z" fill="#153E7B"/>
<path d="M24.3618 90.7859C31.8858 90.7859 38.0078 96.8479 38.0078 104.299C38.0078 111.75 31.8868 117.812 24.3618 117.812C16.8388 117.812 10.7168 111.75 10.7168 104.299C10.7168 96.8479 16.8388 90.7859 24.3618 90.7859ZM24.3618 113.812C29.6798 113.812 34.0078 109.544 34.0078 104.299C34.0078 99.0539 29.6808 94.7859 24.3618 94.7859C19.0428 94.7859 14.7168 99.0539 14.7168 104.299C14.7178 109.544 19.0438 113.812 24.3618 113.812Z" fill="#153E7B"/>
<path d="M24.3596 -0.000366211C37.5636 -0.000366211 48.3066 10.6316 48.3066 23.7006C48.3066 36.7666 37.5636 47.3976 24.3596 47.3976C11.1576 47.3976 0.417603 36.7666 0.417603 23.7006C0.417603 10.6316 11.1576 -0.000366211 24.3596 -0.000366211ZM24.3596 43.3976C35.3586 43.3976 44.3066 34.5616 44.3066 23.7006C44.3066 12.8376 35.3586 3.99963 24.3596 3.99963C13.3636 3.99963 4.4176 12.8376 4.4176 23.7006C4.4176 34.5616 13.3636 43.3976 24.3596 43.3976Z" fill="#153E7B"/>
<path d="M24.3618 10.1838C31.8858 10.1838 38.0078 16.2468 38.0078 23.7018C38.0078 31.1528 31.8868 37.2158 24.3618 37.2158C16.8388 37.2158 10.7168 31.1528 10.7168 23.7018C10.7178 16.2468 16.8388 10.1838 24.3618 10.1838ZM24.3618 33.2148C29.6798 33.2148 34.0078 28.9468 34.0078 23.7008C34.0078 18.4528 29.6808 14.1828 24.3618 14.1828C19.0428 14.1828 14.7168 18.4528 14.7168 23.7008C14.7178 28.9468 19.0438 33.2148 24.3618 33.2148Z" fill="#153E7B"/>
<path d="M50.5974 35.4944L85.7832 53.2095L87.582 49.6367L52.3962 31.9216L50.5974 35.4944Z" fill="#153E7B"/>
<path d="M45.3155 95.1217L47.1147 98.6945L80.3981 81.9336L78.5989 78.3608L45.3155 95.1217Z" fill="#153E7B"/>
</g>
<defs>
<clipPath id="clip0_3_287">
<rect width="128" height="128" fill="white"/>
</clipPath>
</defs>
</svg>
