<svg width="128" height="128" viewBox="0 0 128 128" fill="none" xmlns="http://www.w3.org/2000/svg">
<g clip-path="url(#clip0_3_296)">
<path d="M64.002 103.006C63.257 103.006 62.52 102.985 61.788 102.943L62.014 98.9389C63.277 99.0099 64.571 99.0119 65.842 98.9459L66.056 102.95C65.376 102.986 64.692 103.005 64.002 103.006ZM70.302 102.483L69.639 98.5289C70.894 98.3179 72.148 98.0349 73.366 97.6849L74.472 101.538C73.108 101.931 71.705 102.248 70.302 102.483ZM57.539 102.455C56.14 102.215 54.738 101.892 53.373 101.493L54.494 97.6439C55.715 97.9989 56.969 98.2889 58.22 98.5039L57.539 102.455ZM78.51 100.129L76.975 96.4249C78.144 95.9409 79.302 95.3819 80.416 94.7669L82.356 98.2749C81.11 98.9639 79.816 99.5869 78.51 100.129ZM49.342 100.067C48.035 99.5189 46.742 98.8899 45.499 98.1969L47.453 94.6949C48.565 95.3159 49.722 95.8799 50.891 96.3689L49.342 100.067ZM85.973 96.0039L83.655 92.7329C84.691 91.9989 85.699 91.1969 86.65 90.3509L89.315 93.3459C88.253 94.2909 87.129 95.1849 85.973 96.0039ZM41.891 95.9089C40.74 95.0849 39.62 94.1869 38.561 93.2379L41.236 90.2529C42.185 91.1029 43.19 91.9089 44.223 92.6479L41.891 95.9089ZM92.345 90.3379L89.367 87.6519C90.22 86.7079 91.029 85.7049 91.774 84.6729L95.026 87.0179C94.196 88.1689 93.293 89.2859 92.345 90.3379ZM35.544 90.2179C34.597 89.1579 33.7 88.0389 32.877 86.8879L36.139 84.5559C36.877 85.5889 37.682 86.5939 38.533 87.5439L35.544 90.2179ZM97.332 83.4269L93.844 81.4489C94.472 80.3409 95.046 79.1859 95.548 78.0189L99.231 79.6039C98.67 80.9049 98.032 82.1909 97.332 83.4269ZM30.588 83.2879C29.894 82.0509 29.261 80.7639 28.705 79.4589L32.394 77.8889C32.893 79.0599 33.461 80.2159 34.084 81.3259L30.588 83.2879ZM100.7 75.5969L96.867 74.4219C97.239 73.2059 97.55 71.9549 97.788 70.7039L101.727 71.4559C101.461 72.8499 101.115 74.2429 100.7 75.5969ZM27.25 75.4469C26.841 74.0939 26.501 72.6999 26.241 71.3019L30.182 70.5659C30.417 71.8209 30.722 73.0729 31.089 74.2869L27.25 75.4469ZM102.299 67.2299L98.303 66.9089C98.381 65.9429 98.42 64.9639 98.42 63.9999C98.419 63.6939 98.415 63.3819 98.408 63.0719L102.415 62.9749C102.424 63.3139 102.428 63.6529 102.429 63.9939C102.429 65.0709 102.385 66.1569 102.299 67.2299ZM25.687 67.0739C25.609 66.0569 25.569 65.0219 25.569 63.9999C25.569 63.6029 25.575 63.2079 25.587 62.8129L29.595 62.9339C29.584 63.2879 29.579 63.6429 29.579 63.9999C29.579 64.9209 29.615 65.8519 29.684 66.7679L25.687 67.0739ZM98.106 59.2549C97.937 57.9869 97.697 56.7199 97.394 55.4889L101.289 54.5329C101.625 55.9029 101.892 57.3129 102.08 58.7219L98.106 59.2549ZM29.911 59.1129L25.939 58.5669C26.132 57.1609 26.404 55.7519 26.747 54.3789L30.637 55.3509C30.329 56.5829 30.085 57.8489 29.911 59.1129ZM96.28 51.8269C95.842 50.6299 95.335 49.4449 94.772 48.3049L98.367 46.5289C98.994 47.7979 99.558 49.1169 100.047 50.4499L96.28 51.8269ZM31.767 51.6909L28.006 50.3009C28.498 48.9699 29.069 47.6519 29.703 46.3829L33.289 48.1749C32.721 49.3129 32.208 50.4969 31.767 51.6909ZM92.892 44.9719C92.209 43.9019 91.457 42.8559 90.659 41.8619L93.784 39.3489C94.675 40.4559 95.512 41.6209 96.272 42.8139L92.892 44.9719ZM35.186 44.8469L31.815 42.6749C32.584 41.4829 33.426 40.3199 34.319 39.2189L37.433 41.7439C36.632 42.7329 35.875 43.7769 35.186 44.8469ZM88.099 39.0139C87.201 38.1169 86.24 37.2589 85.245 36.4649L87.747 33.3329C88.856 34.2189 89.928 35.1759 90.932 36.1769L88.099 39.0139ZM40.006 38.9079L37.187 36.0569C38.198 35.0569 39.273 34.1049 40.384 33.2269L42.871 36.3709C41.876 37.1579 40.912 38.0109 40.006 38.9079ZM82.128 34.2449C81.051 33.5649 79.926 32.9409 78.785 32.3879L80.533 28.7799C81.807 29.3979 83.064 30.0949 84.267 30.8549L82.128 34.2449ZM45.997 34.1649L43.872 30.7649C45.077 30.0129 46.335 29.3199 47.614 28.7059L49.348 32.3219C48.202 32.8709 47.075 33.4909 45.997 34.1649ZM75.256 30.9169C74.057 30.4959 72.821 30.1379 71.584 29.8549L72.477 25.9459C73.863 26.2629 75.245 26.6619 76.585 27.1339L75.256 30.9169ZM52.881 30.8689L51.567 27.0809C52.908 26.6159 54.291 26.2219 55.678 25.9109L56.556 29.8239C55.316 30.1019 54.079 30.4539 52.881 30.8689ZM67.816 29.2169C65.346 28.9389 62.795 28.9349 60.325 29.1999L59.896 25.2139C62.656 24.9169 65.502 24.9219 68.262 25.2319L67.816 29.2169Z" fill="#153E7B"/>
<path d="M63.807 65.908C63.459 65.908 63.112 65.816 62.8 65.637L41.826 53.458C41.21 53.101 40.83 52.442 40.828 51.729C40.827 51.017 41.203 50.356 41.818 49.996L62.928 37.614C63.55 37.248 64.323 37.246 64.949 37.61L85.928 49.79C86.544 50.147 86.924 50.807 86.926 51.519C86.928 52.232 86.55 52.893 85.936 53.252L64.82 65.632C64.508 65.815 64.157 65.908 63.807 65.908ZM46.81 51.716L63.802 61.581L80.944 51.53L63.949 41.663L46.81 51.716Z" fill="#153E7B"/>
<path d="M64.052 90.66C63.712 90.66 63.371 90.573 63.065 90.399C62.442 90.047 62.055 89.39 62.048 88.674L61.802 63.922C61.795 63.203 62.173 62.536 62.793 62.172L83.908 49.792C84.525 49.43 85.288 49.424 85.91 49.777C86.532 50.129 86.92 50.787 86.927 51.502L87.171 76.25C87.178 76.969 86.8 77.636 86.18 78L65.066 90.385C64.753 90.568 64.403 90.66 64.052 90.66ZM65.822 65.045L66.022 85.176L83.148 75.13L82.951 55.002L65.822 65.045Z" fill="#153E7B"/>
<path d="M64.072 90.66C64.065 90.66 64.059 90.66 64.052 90.66C63.704 90.66 63.357 90.57 63.045 90.389L42.067 78.208C41.455 77.853 41.076 77.202 41.069 76.494L40.828 51.744C40.821 51.024 41.201 50.354 41.824 49.992C42.447 49.629 43.216 49.629 43.84 49.991L64.814 62.168C65.425 62.523 65.804 63.174 65.811 63.881L66.054 88.35C66.069 88.449 66.076 88.55 66.076 88.654C66.076 89.763 65.18 90.66 64.072 90.66ZM45.067 75.313L62.012 85.153L61.813 65.063L44.872 55.227L45.067 75.313Z" fill="#153E7B"/>
<path d="M72.834 13.912L64.756 5.713L56.681 13.912L53.824 11.099L64.756 0L75.69 11.098L72.834 13.912Z" fill="#153E7B"/>
<path d="M66.762 4.76599H62.752V21.1H66.762V4.76599Z" fill="#153E7B"/>
<path d="M23.972 33.869L19.962 33.868L19.968 18.215L35.411 18.209L35.412 22.219L23.977 22.223L23.972 33.869Z" fill="#153E7B"/>
<path d="M36.0988 31.7086L24.73 20.1632L21.8736 22.9759L33.2424 34.5213L36.0988 31.7086Z" fill="#153E7B"/>
<path d="M11.876 74.291L0.994995 63.229L11.876 52.168L14.734 54.979L6.619 63.229L14.734 71.479L11.876 74.291Z" fill="#153E7B"/>
<path d="M21.767 61.2229H5.68701V65.2319H21.767V61.2229Z" fill="#153E7B"/>
<path d="M34.337 108.7L18.895 108.692L18.89 93.042L22.9 93.04L22.903 104.686L34.339 104.691L34.337 108.7Z" fill="#153E7B"/>
<path d="M35.0274 95.1873L32.1694 92.3762L20.8043 103.931L23.6623 106.742L35.0274 95.1873Z" fill="#153E7B"/>
<path d="M92.588 109.789L92.586 105.779L104.021 105.774L104.025 94.1299L108.035 94.1319L108.029 109.782L92.588 109.789Z" fill="#153E7B"/>
<path d="M106.132 105.023L94.7596 93.4792L91.9036 96.2928L103.276 107.836L106.132 105.023Z" fill="#153E7B"/>
<path d="M116.122 75.83L113.264 73.02L121.381 64.771L113.264 56.52L116.122 53.708L127.005 64.771L116.122 75.83Z" fill="#153E7B"/>
<path d="M122.311 62.7681H106.23V66.7781H122.311V62.7681Z" fill="#153E7B"/>
<path d="M63.241 128L52.307 116.902L55.163 114.089L63.241 122.287L71.319 114.089L74.175 116.902L63.241 128Z" fill="#153E7B"/>
<path d="M65.244 106.9H61.235V123.236H65.244V106.9Z" fill="#153E7B"/>
<path d="M105.098 34.959L105.094 23.3139L93.658 23.308L93.66 19.299L109.101 19.306L109.106 34.958L105.098 34.959Z" fill="#153E7B"/>
<path d="M107.197 24.0688L104.34 21.2565L92.9715 32.8065L95.8287 35.6188L107.197 24.0688Z" fill="#153E7B"/>
</g>
<defs>
<clipPath id="clip0_3_296">
<rect width="128" height="128" fill="white"/>
</clipPath>
</defs>
</svg>
