<svg width="128" height="128" viewBox="0 0 128 128" fill="none" xmlns="http://www.w3.org/2000/svg">
<path d="M127.962 92.8721H0V17.5621C0 14.5651 2.42 12.1271 5.396 12.1271H24.901V16.1271H5.396C4.626 16.1281 4 16.7711 4 17.5631V88.8731H123.962V17.5631C123.962 16.7731 123.335 16.1291 122.565 16.1291H73.844V12.1291H122.565C125.542 12.1291 127.962 14.5671 127.962 17.5631V92.8721Z" fill="#153E7B"/>
<path d="M122.797 107.654H6.06599C3.00999 107.654 0.0109863 104.542 0.0109863 101.371V88.7981H128V101.544C128 104.548 126.054 107.654 122.797 107.654ZM4.01099 92.7981V101.371C4.01099 102.331 5.20099 103.654 6.06599 103.654H122.797C123.485 103.654 124 102.54 124 101.544V92.7981H4.01099Z" fill="#153E7B"/>
<path d="M45.2841 123.882L43.6801 120.218C45.0021 119.639 46.0991 119.119 46.6901 118.792L46.8691 118.691C47.1171 118.552 47.4251 118.381 47.4901 118.314C47.5301 118.262 47.6841 117.987 47.9401 116.683C48.2401 115.148 48.2041 112.389 48.1711 109.954C48.1491 108.28 48.1281 106.698 48.2181 105.576L52.2051 105.898C52.1291 106.833 52.1491 108.323 52.1701 109.901C52.2071 112.658 52.2441 115.508 51.8641 117.451C51.2841 120.409 50.6601 121.155 48.8171 122.183L48.6381 122.283C47.6771 122.817 46.1251 123.514 45.2841 123.882Z" fill="#153E7B"/>
<path d="M82.595 123.896C81.747 123.525 80.181 122.824 79.216 122.292L79.094 122.223C77.138 121.125 76.629 120.323 76.069 117.452C75.69 115.513 75.726 112.715 75.761 110.01C75.782 108.452 75.801 106.981 75.725 106.043L79.711 105.719C79.803 106.845 79.782 108.407 79.761 110.062C79.73 112.448 79.695 115.152 79.994 116.685C80.24 117.945 80.378 118.283 80.437 118.373C80.496 118.425 80.803 118.598 81.051 118.736L81.161 118.799C81.749 119.122 82.86 119.649 84.197 120.234L82.595 123.896Z" fill="#153E7B"/>
<path d="M86.943 119.838H41.08V123.838H86.943V119.838Z" fill="#153E7B"/>
<path d="M33.589 81.409H14.017V57.76H33.589V81.409ZM18.017 77.409H29.589V61.76H18.017V77.409Z" fill="#153E7B"/>
<path d="M59.2651 81.41H39.6851V31.349H59.2651V81.41ZM43.6851 77.41H55.2651V35.349H43.6851V77.41Z" fill="#153E7B"/>
<path d="M84.936 81.409H65.356V43.813H84.936V81.409ZM69.355 77.409H80.935V47.813H69.355V77.409Z" fill="#153E7B"/>
<path d="M110.605 81.4091H91.031V20.6841H110.605V81.4091ZM95.031 77.4091H106.605V24.6841H95.031V77.4091Z" fill="#153E7B"/>
<path d="M49.104 31.328L45.114 24.342H34.771C32.52 24.342 30.689 22.504 30.689 20.244V8.20103C30.689 5.94103 32.52 4.10303 34.771 4.10303H63.444C64.53 4.10303 65.554 4.52803 66.323 5.29903C67.097 6.07403 67.523 7.10703 67.521 8.20403V20.243C67.521 22.503 65.691 24.341 63.442 24.341H53.095L49.104 31.328ZM34.771 8.10403C34.725 8.10403 34.689 8.14703 34.689 8.20203V20.245C34.689 20.303 34.723 20.343 34.771 20.343H47.438L49.105 23.266L50.768 20.343H63.443C63.482 20.343 63.522 20.307 63.522 20.245V8.20103L63.444 8.10303H34.771V8.10403Z" fill="#153E7B"/>
<path d="M56.8409 12.3311H41.3719V16.3311H56.8409V12.3311Z" fill="#153E7B"/>
<path d="M116.995 77.4089H11.005V81.4089H116.995V77.4089Z" fill="#153E7B"/>
</svg>
