<svg class="icon" viewBox="0 0 1024 1024" version="1.1" xmlns="http://www.w3.org/2000/svg"
     width="16" height="16">
    <path d="M74.666667 405.333333a32 32 0 0 1 32-32h810.666666a32 32 0 0 1 32 32v298.666667a32 32 0 0 1-64 0v-266.666667H138.666667V874.666667c0 5.888 4.778667 10.666667 10.666666 10.666666H512a32 32 0 0 1 0 64H149.333333a74.666667 74.666667 0 0 1-74.666666-74.666666v-469.333334z"
          fill="#363A3A"></path>
    <path d="M149.333333 202.666667a10.666667 10.666667 0 0 0-10.666666 10.666666v160h746.666666V213.333333a10.666667 10.666667 0 0 0-10.666666-10.666666h-725.333334zM74.666667 213.333333c0-41.216 33.450667-74.666667 74.666666-74.666666h725.333334c41.216 0 74.666667 33.450667 74.666666 74.666666v192a32 32 0 0 1-32 32h-810.666666a32 32 0 0 1-32-32V213.333333z"
          fill="#363A3A"></path>
    <path d="M341.333333 74.666667a32 32 0 0 1 32 32v170.666666a32 32 0 0 1-64 0v-170.666666A32 32 0 0 1 341.333333 74.666667zM682.666667 74.666667a32 32 0 0 1 32 32v170.666666a32 32 0 0 1-64 0v-170.666666a32 32 0 0 1 32-32zM640 565.333333a117.333333 117.333333 0 1 0 0 234.666667 117.333333 117.333333 0 0 0 0-234.666667zM458.666667 682.666667a181.333333 181.333333 0 1 1 362.666666 0 181.333333 181.333333 0 0 1-362.666666 0z"
          fill="#363A3A"></path>
    <path d="M743.424 768.853333a32 32 0 0 1 45.056-4.096l128 106.666667a32 32 0 1 1-40.96 49.152l-128-106.666667a32 32 0 0 1-4.096-45.056z"
          fill="#363A3A"></path>
</svg>
