<svg xmlns="http://www.w3.org/2000/svg" width="16" height="16" viewBox="0 0 1024 1024" version="1.1">
    <path d="M789.333333 106.666667a117.333333 117.333333 0 0 1 117.248 112.618666l0.085334 4.714667v405.333333a117.333333 117.333333 0 0 1-112.618667 117.248L789.333333 746.666667h-10.666666v42.666666a85.333333 85.333333 0 0 1-85.333334 85.333334h-469.333333a85.333333 85.333333 0 0 1-85.333333-85.333334V320a85.333333 85.333333 0 0 1 85.333333-85.333333h42.666667v-10.666667a117.333333 117.333333 0 0 1 112.618666-117.248L384 106.666667h405.333333z m-96 192h-469.333333a21.333333 21.333333 0 0 0-21.184 18.837333L202.666667 320v469.333333a21.333333 21.333333 0 0 0 18.837333 21.184L224 810.666667h469.333333a21.333333 21.333333 0 0 0 21.184-18.837334L714.666667 789.333333V320a21.333333 21.333333 0 0 0-18.837334-21.184L693.333333 298.666667z m-234.666666 96a32 32 0 0 1 31.850666 28.928L490.666667 426.666667v96h96a32 32 0 0 1 3.072 63.850666l-3.072 0.149334H490.666667V682.666667a32 32 0 0 1-63.850667 3.072L426.666667 682.666667v-96h-96a32 32 0 0 1-3.072-63.850667l3.072-0.149333H426.666667V426.666667a32 32 0 0 1 32-32zM789.333333 170.666667H384a53.333333 53.333333 0 0 0-53.226667 49.834666l-0.106666 3.498667v10.666667h362.666666a85.333333 85.333333 0 0 1 85.333334 85.333333v362.666667h10.666666a53.333333 53.333333 0 0 0 53.226667-49.834667l0.106667-3.498667v-405.333333a53.333333 53.333333 0 0 0-49.834667-53.226667L789.333333 170.666667z"
          fill="#40434E"></path>
</svg>
