<svg xmlns="http://www.w3.org/2000/svg"
     viewBox="0 0 1024 1024"
     version="1.1"
     width="16"
     height="16">
    <path d="M786.285714 201.142857h-694.857143a36.571429 36.571429 0 0 0-36.571428 36.571429v694.857143a36.571429 36.571429 0 0 0 36.571428 36.571428h694.857143a36.571429 36.571429 0 0 0 36.571429-36.571428v-694.857143a36.571429 36.571429 0 0 0-36.571429-36.571429z m-45.714285 685.714286h-603.428572v-603.428572h603.428572v603.428572zM932.571429 54.857143H228.571429A9.142857 9.142857 0 0 0 219.428571 64v64c0 5.046857 4.096 9.142857 9.142858 9.142857h658.285714v658.285714c0 5.046857 4.096 9.142857 9.142857 9.142858h64a9.142857 9.142857 0 0 0 9.142857-9.142858V91.428571a36.571429 36.571429 0 0 0-36.571428-36.571428zM269.677714 555.446857h338.358857v73.142857H269.604571v-73.142857z"
          fill="#565757">
    </path>
</svg>
