<svg class="icon" viewBox="0 0 1024 1024" version="1.1" xmlns="http://www.w3.org/2000/svg"
     width="16" height="16">
    <path d="M924.8 236.8L544 19.2c-19.2-12.8-44.8-12.8-64 0L99.2 236.8c-19.2 12.8-32 32-32 54.4v438.4c0 22.4 12.8 44.8 32 54.4L480 1004.8c9.6 6.4 22.4 9.6 32 9.6s22.4-3.2 32-9.6l380.8-217.6c19.2-12.8 32-32 32-54.4V294.4c0-25.6-12.8-44.8-32-57.6z m-32 492.8L512 950.4 131.2 729.6V294.4L512 73.6l380.8 217.6v438.4z"></path>
    <path d="M480 243.2l-185.6 105.6c-19.2 12.8-32 32-32 54.4v214.4c0 22.4 12.8 44.8 32 54.4l185.6 105.6c9.6 6.4 22.4 9.6 32 9.6s22.4-3.2 32-9.6l185.6-105.6c19.2-12.8 32-32 32-54.4v-214.4c0-22.4-12.8-44.8-32-54.4L544 243.2c-19.2-12.8-44.8-12.8-64 0zM310.4 646.4c-9.6-6.4-16-16-16-28.8v-214.4l201.6 115.2v233.6l-185.6-105.6z m403.2 0l-185.6 105.6v-233.6l201.6-115.2v214.4c0 12.8-6.4 22.4-16 28.8z m0-268.8L512 492.8l-201.6-115.2 185.6-105.6c6.4-3.2 9.6-3.2 16-3.2s9.6 0 16 3.2l185.6 105.6z"></path>
</svg>
