<svg class="icon" viewBox="0 0 1024 1024" version="1.1" xmlns="http://www.w3.org/2000/svg"
     width="16" height="16">
    <path d="M341.333333 64a42.666667 42.666667 0 0 1 42.666667 42.666667v21.333333h256V106.666667a42.666667 42.666667 0 1 1 85.333333 0v21.333333h149.333334a85.333333 85.333333 0 0 1 85.333333 85.333333v490.666667a42.666667 42.666667 0 1 1-85.333333 0V448H149.333333v426.666667h362.666667a42.666667 42.666667 0 1 1 0 85.333333H149.333333a85.333333 85.333333 0 0 1-85.333333-85.333333V213.333333a85.333333 85.333333 0 0 1 85.333333-85.333333h149.333334V106.666667a42.666667 42.666667 0 0 1 42.666666-42.666667z m-42.666666 149.333333H149.333333v149.333334h725.333334v-149.333334h-149.333334v64a42.666667 42.666667 0 1 1-85.333333 0v-64H384v64a42.666667 42.666667 0 1 1-85.333333 0v-64z m341.333333 362.666667a106.666667 106.666667 0 1 0 0 213.333333 106.666667 106.666667 0 0 0 0-213.333333z m-192 106.666667a192 192 0 1 1 384 0c0 31.36-7.509333 60.949333-20.842667 87.082666l112.149334 93.482667a42.666667 42.666667 0 1 1-54.613334 65.536l-112.192-93.482667A192 192 0 0 1 448 682.666667z"
          fill="#606060"></path>
</svg>
