<svg  class="icon" viewBox="0 0 1024 1024" version="1.1" xmlns="http://www.w3.org/2000/svg"
     width="16" height="16">
    <path d="M410.4704 563.2c0 84.48 69.0688 153.6 153.2928 153.6a153.9072 153.9072 0 0 0 153.2928-153.6c0-84.48-68.4544-153.088-152.7296-153.6h-0.512a153.9072 153.9072 0 0 0-153.344 153.6z m496.2304 270.848c19.9168 19.968 19.9168 52.736 0 72.704-10.24 9.728-23.04 14.848-36.352 14.848-13.312 0-26.0608-5.12-36.2496-14.848l-129.2288-129.536a259.584 259.584 0 0 1-141.1072 41.984 255.5904 255.5904 0 0 1-250.3168-204.8H153.6C125.3888 614.4 102.4 591.36 102.4 563.2s22.9888-51.2 51.0976-51.2h159.8976c7.6288-36.864 22.4256-70.656 44.4416-99.84l-202.3424 2.048h-0.512a51.0976 51.0976 0 0 1-51.0976-50.176c-0.512-28.672 22.4768-51.712 50.5856-52.224L563.2 307.2h0.512c141.1072 0 255.488 114.688 255.488 256 0 52.224-15.872 100.864-41.8304 141.312l129.28 129.536zM155.0336 205.9776a51.2 51.2 0 0 1-0.1536-102.4L563.6096 102.4h0.1536a51.2 51.2 0 1 1 0.1536 102.4l-408.7296 1.0752h-0.1536z"
          fill="black"></path>
</svg>
