<svg class="icon"
     viewBox="0 0 1024 1024"
     version="1.1"
     xmlns="http://www.w3.org/2000/svg"
     width="20" height="20">
    <path d="M773.952 128l25.472 126.976L896 274.24l-96.64 19.328-25.408 126.976-25.408-126.976-96.64-19.328 96.64-19.264L773.952 128zM383.488 371.776l-18.304-54.848-54.912-18.304 54.912-18.24 18.304-54.848 18.304 54.848 54.912 18.24-54.912 18.304-18.304 54.848zM730.048 610.624l19.52 78.08 19.52-78.08 78.08-19.456-78.08-19.52-19.52-78.016-19.52 78.08-78.08 19.456 78.08 19.456zM570.368 349.824l-428.608 428.16a49.664 49.664 0 0 0 0.128 68.736l34.56 34.56a47.68 47.68 0 0 0 68.864 0.064l428.608-428.096a49.856 49.856 0 0 0 0-68.928l-34.56-34.496a47.872 47.872 0 0 0-68.992 0z m68.48 69.44l-68.48 68.48-34.56-34.496 69.12-68.928c6.848 6.912 33.92 34.944 33.92 34.944z"
          fill="#2F374C"></path>
</svg>
